<?xml version="1.0" standalone="no"?>
<!DOCTYPE svg PUBLIC "-//W3C//DTD SVG 1.1//EN" "http://www.w3.org/Graphics/SVG/1.1/DTD/svg11.dtd" >
<svg>
<metadata>
Created by FontForge 20120731 at Mon Jun 12 14:12:15 2017
 By www
Copyright (c) 2012 by Daniel Hernandez. All rights reserved.
</metadata>
<defs>
<font id="AndesCndW04-Lt" horiz-adv-x="453" >
  <font-face 
    font-family="AndesCndW04-Lt"
    font-weight="300"
    font-stretch="normal"
    units-per-em="1000"
    panose-1="2 0 0 0 0 0 0 0 0 0"
    ascent="750"
    descent="-250"
    x-height="482"
    cap-height="700"
    bbox="-91 -254 826 944"
    underline-thickness="50"
    underline-position="-100"
    unicode-range="U+0020-FB04"
  />
<missing-glyph horiz-adv-x="347" 
 />
    <glyph glyph-name="uniFB00" unicode="ff" horiz-adv-x="560" 
d="M332 0v431h-185v-431h-62v431h-58v51h58v85q0 72 32.5 116.5t99.5 44.5q26 0 45.5 -7.5t32.5 -16.5q15 -11 24 -24l-23 -46l-4.5 6.5t-13.5 14t-22.5 14t-32.5 6.5q-35 0 -55.5 -29t-20.5 -81v-83h185v85q0 72 32.5 116.5t99.5 44.5q26 0 45 -7.5t32 -16.5q14 -11 24 -24
l-23 -46q-6 11 -17 20q-9 8 -22.5 14.5t-33.5 6.5q-35 0 -55 -29t-20 -81v-83h148v-51h-148v-431h-62z" />
    <glyph glyph-name="uniFB01" unicode="fi" horiz-adv-x="483" 
d="M447 1q-3 -1 -7 -2q-5 -1 -21 -1q-32 0 -50.5 21.5t-18.5 72.5v339h-203v-431h-62v431h-58v51h58v85q0 72 31 116.5t95 44.5q26 0 45 -7.5t32 -16.5q14 -11 24 -24l-23 -46q0 1 -4.5 7.5t-13.5 14t-22.5 13.5t-32.5 6q-32 0 -50.5 -29t-18.5 -81v-83h266v-384
q0 -25 7 -37.5t27 -12.5v-47zM427 633q0 -20 -13 -33.5t-32 -13.5q-20 0 -32.5 13.5t-12.5 33.5t12.5 33.5t32.5 13.5q19 0 32 -13.5t13 -33.5z" />
    <glyph glyph-name="uniFB02" unicode="fl" horiz-adv-x="503" 
d="M85 0v431h-58v51h58v85q0 72 32.5 116.5t99.5 44.5q26 0 45.5 -7.5t32.5 -16.5q15 -11 24 -24l-23 -46q-6 11 -17 20q-9 8 -22.5 14.5t-33.5 6.5q-35 0 -55.5 -29t-20.5 -81v-83h148v-51h-148v-431h-62zM467 1l-8 -2q-5 -1 -21 -1q-31 0 -50 21.5t-19 72.5v634h63v-628
q0 -25 7.5 -37.5t27.5 -12.5v-47z" />
    <glyph glyph-name="uniFB03" unicode="ffi" horiz-adv-x="729" 
d="M693 1q-3 -1 -7 -2q-5 -1 -21 -1q-32 0 -50.5 21.5t-18.5 72.5v339h-202v-431h-62v431h-185v-431h-62v431h-58v51h58v85q0 72 32.5 116.5t99.5 44.5q26 0 45.5 -7.5t32.5 -16.5q15 -11 24 -24l-23 -46q-6 11 -17 20q-9 8 -22.5 14.5t-33.5 6.5q-35 0 -55.5 -29t-20.5 -81
v-83h185v85q0 72 30.5 116.5t94.5 44.5q26 0 45 -7.5t32 -16.5q15 -11 25 -24l-24 -46q-6 11 -17 20q-9 8 -22.5 14.5t-32.5 6.5q-32 0 -50.5 -29t-18.5 -81v-83h265v-384q0 -25 7 -37.5t27 -12.5v-47zM674 633q0 -20 -13.5 -33.5t-32.5 -13.5q-20 0 -33 13.5t-13 33.5
t13 33.5t33 13.5q19 0 32.5 -13.5t13.5 -33.5z" />
    <glyph glyph-name="uniFB04" unicode="ffl" horiz-adv-x="750" 
d="M332 0v431h-185v-431h-62v431h-58v51h58v85q0 72 32.5 116.5t99.5 44.5q26 0 45.5 -7.5t32.5 -16.5q15 -11 24 -24l-23 -46q-6 11 -17 20q-9 8 -22.5 14.5t-33.5 6.5q-35 0 -55.5 -29t-20.5 -81v-83h185v85q0 72 32.5 116.5t99.5 44.5q26 0 45 -7.5t32 -16.5
q14 -11 24 -24l-23 -46l-4.5 6.5t-13.5 14t-22.5 14t-32.5 6.5q-35 0 -55 -29t-20 -81v-83h148v-51h-148v-431h-62zM713 1l-8 -2q-5 -1 -21 -1q-32 0 -50.5 21.5t-18.5 72.5v634h64v-628q0 -25 7 -37.5t27 -12.5v-47z" />
    <glyph glyph-name=".notdef" horiz-adv-x="347" 
 />
    <glyph glyph-name=".null" horiz-adv-x="0" 
 />
    <glyph glyph-name="nonmarkingreturn" horiz-adv-x="333" 
 />
    <glyph glyph-name="space" unicode=" " horiz-adv-x="201" 
 />
    <glyph glyph-name="exclam" unicode="!" horiz-adv-x="207" 
d="M140 737l-9 -548h-55l-6 548h70zM103 79q17 0 29.5 -13t12.5 -31q0 -19 -12.5 -32t-29.5 -13t-29.5 13t-12.5 32q0 18 12.5 31t29.5 13z" />
    <glyph glyph-name="quotedbl" unicode="&#x22;" horiz-adv-x="245" 
d="M56 580l-2 154h46l-2 -154h-42zM147 580l-2 154h46l-2 -154h-42z" />
    <glyph glyph-name="numbersign" unicode="#" horiz-adv-x="520" 
d="M343 149l-19 -106h-46l19 106h-117l-19 -106h-46l17 106h-94l9 39h94l27 150h-89l8 40h89l20 113h47l-20 -113h116l22 113h46l-20 -113h96l-9 -40h-95l-27 -150h90l-9 -39h-90zM332 338h-117l-28 -150h118z" />
    <glyph glyph-name="dollar" unicode="$" horiz-adv-x="498" 
d="M231 8q-58 4 -96.5 25.5t-61.5 44.5q-27 27 -43 61l41 38q17 -32 43 -57q23 -21 57.5 -38.5t83.5 -17.5q67 0 104.5 32.5t37.5 88.5q0 52 -26 78t-65 39t-84.5 21.5t-84.5 26.5t-65 52.5t-26 100.5q0 37 12 69.5t35.5 58t58 41t79.5 17.5v112h55v-113q51 -6 83 -26
t51 -42q22 -26 33 -56l-48 -33q-12 28 -32 51q-18 19 -47.5 35t-74.5 16q-35 0 -61 -10.5t-43.5 -28.5t-26.5 -41.5t-9 -48.5q0 -38 15 -61t40 -37t56.5 -22t64.5 -16t64.5 -19t56.5 -30.5t40 -51.5t15 -81q0 -34 -11 -64.5t-33 -54.5t-55.5 -39.5t-77.5 -18.5v-121h-55v120
z" />
    <glyph glyph-name="percent" unicode="%" horiz-adv-x="489" 
d="M133 0l178 700h47l-177 -700h-48zM121 424q-42 0 -66 34.5t-24 104.5t24 104.5t66 34.5q45 0 69.5 -34.5t24.5 -104.5t-24.5 -104.5t-69.5 -34.5zM121 461q28 0 39.5 27t11.5 75q0 47 -11.5 73.5t-39.5 26.5q-26 0 -37.5 -26.5t-11.5 -73.5q0 -48 11.5 -75t37.5 -27z
M365 -2q-43 0 -67 34.5t-24 104.5t24 104.5t67 34.5q45 0 69 -34.5t24 -104.5t-24 -104.5t-69 -34.5zM365 35q26 0 38.5 27t12.5 75q0 47 -12.5 73.5t-38.5 26.5t-38 -26.5t-12 -73.5q0 -48 12 -75t38 -27z" />
    <glyph glyph-name="ampersand" unicode="&#x26;" horiz-adv-x="577" 
d="M421 -95q-1 42 -5 75t-8 49q-14 -13 -33 -23q-17 -8 -42 -15t-60 -7q-50 0 -90.5 18t-69 50t-44.5 77.5t-16 100.5q0 58 15.5 97.5t34.5 64.5t35.5 36t18.5 12q-3 4 -9 13.5t-12 25t-10.5 36t-4.5 46.5q0 34 10.5 65.5t31.5 55t52 37.5t71 14q45 0 76.5 -15.5t52 -39.5
t29.5 -54t9 -58q0 -23 -2.5 -40.5t-4.5 -29.5q-4 -14 -7 -25h-63q3 11 6 25q2 11 4 27t2 34q0 20 -5 41t-16.5 38.5t-30.5 28.5t-47 11q-48 0 -75 -33t-27 -87q0 -32 13 -61t33.5 -57.5t47.5 -59.5t54.5 -67.5t54.5 -79.5t48 -97q13 20 23.5 66.5t10.5 124.5h66
q0 -97 -21 -161.5t-54 -94.5q7 -23 13.5 -66t6.5 -98h-62zM280 40q26 0 46.5 7t34.5 15q16 10 28 22q-19 57 -46 102.5t-54.5 83t-53.5 68.5t-43 59q-1 -1 -12.5 -9.5t-25 -27.5t-25 -49t-11.5 -74q0 -47 13 -83.5t35.5 -61.5t51.5 -38.5t62 -13.5z" />
    <glyph glyph-name="quotesingle" unicode="'" horiz-adv-x="154" 
d="M56 580l-2 154h46l-2 -154h-42z" />
    <glyph glyph-name="parenleft" unicode="(" horiz-adv-x="244" 
d="M167 -244q-35 52 -62 124q-23 62 -42.5 152t-19.5 209q0 118 19.5 208.5t42.5 152.5q27 72 62 124l54 -27q-33 -48 -59 -116q-22 -58 -40 -143.5t-18 -198.5q0 -114 18 -199t40 -143q26 -68 59 -116z" />
    <glyph glyph-name="parenright" unicode=")" horiz-adv-x="244" 
d="M23 -217q32 48 58 116q22 58 40 143t18 199q0 113 -18 198.5t-40 143.5q-26 68 -58 116l52 27q35 -52 63 -124q23 -62 43 -152.5t20 -208.5q0 -119 -20 -209t-43 -152q-28 -72 -63 -124z" />
    <glyph glyph-name="asterisk" unicode="*" horiz-adv-x="362" 
d="M217 448l-42 126l-67 -107l-29 23l77 104l-113 17l5 37l110 -26l-46 120l33 16l39 -127l70 114l29 -24l-78 -106l115 -17l-5 -37l-114 25l49 -122z" />
    <glyph glyph-name="plus" unicode="+" horiz-adv-x="386" 
d="M167 253h-123v48h123v157h48v-157h127v-48h-127v-163h-48v163z" />
    <glyph glyph-name="comma" unicode="," horiz-adv-x="196" 
d="M52 40q0 20 13 33.5t31 13.5q20 0 33.5 -15t13.5 -42q0 -40 -10.5 -64.5t-23.5 -38.5q-15 -17 -34 -24l-19 33q11 5 20 14q8 7 14 18t6 26q-18 0 -31 13t-13 33z" />
    <glyph glyph-name="hyphen" unicode="-" horiz-adv-x="340" 
d="M59 249v49h222v-49h-222z" />
    <glyph glyph-name="period" unicode="." horiz-adv-x="192" 
d="M52 40q0 20 13 33.5t31 13.5t30.5 -13.5t12.5 -33.5q0 -19 -12.5 -32.5t-30.5 -13.5t-31 13.5t-13 32.5z" />
    <glyph glyph-name="slash" unicode="/" horiz-adv-x="343" 
d="M22 -225l238 931h61l-236 -931h-63z" />
    <glyph glyph-name="zero" unicode="0" horiz-adv-x="527" 
d="M262 -6q-108 0 -159.5 91.5t-51.5 263.5q0 173 51.5 265t159.5 92q109 0 162 -92.5t53 -264.5t-52.5 -263.5t-162.5 -91.5zM262 51q78 0 113.5 74t35.5 224t-35.5 225t-113.5 75q-75 0 -110 -75t-35 -225t35 -224t110 -74z" />
    <glyph glyph-name="one" unicode="1" horiz-adv-x="346" 
d="M206 0v577q-6 -19 -21.5 -40.5t-38 -40t-50.5 -30.5t-61 -12l-10 63q36 0 68 16.5t56 42.5t39 58.5t18 65.5h65v-700h-65z" />
    <glyph glyph-name="two" unicode="2" horiz-adv-x="474" 
d="M48 0v56q0 62 23 103t57 70.5t74.5 53t74.5 50.5t57 63.5t23 92.5q0 75 -32 117.5t-88 42.5q-39 0 -63.5 -19t-38 -43t-18 -46t-4.5 -28l-64 18q0 10 7.5 39t28.5 59t57.5 53.5t93.5 23.5q44 0 78.5 -16t58.5 -45t36.5 -68.5t12.5 -87.5q0 -62 -22.5 -105t-56 -74.5
t-72.5 -55.5t-72.5 -49t-56 -55t-22.5 -73v-21h306v-56h-378z" />
    <glyph glyph-name="three" unicode="3" horiz-adv-x="489" 
d="M192 330v51h54q18 0 38 8.5t36.5 25t27.5 42t11 58.5q0 28 -8.5 52.5t-24.5 42.5t-40 28.5t-54 10.5q-32 0 -53.5 -13t-35 -30t-19.5 -32.5t-6 -19.5l-62 23q10 36 34 64q20 24 55.5 44.5t93.5 20.5q48 0 83 -16t57.5 -42.5t33.5 -59.5t11 -67q0 -47 -14.5 -77.5t-33 -49
t-35.5 -26t-21 -8.5q4 -1 23 -8.5t41 -26.5t39.5 -52.5t17.5 -86.5q0 -96 -55.5 -144t-150.5 -48q-63 0 -102 20t-61 45q-26 28 -36 65l47 32q13 -30 33 -53q17 -20 45.5 -36t70.5 -16q67 0 105 35.5t38 105.5q0 37 -13 63t-32.5 42.5t-42 24.5t-41.5 8h-54z" />
    <glyph glyph-name="four" unicode="4" horiz-adv-x="478" 
d="M300 0v165h-271v56l203 479h68l-203 -479h203v174h64v-174h85v-56h-85v-165h-64z" />
    <glyph glyph-name="five" unicode="5" horiz-adv-x="487" 
d="M132 644v-236q12 10 30 18q15 7 37 13t53 6q43 0 78.5 -17t61 -46.5t40 -69.5t14.5 -87q0 -45 -11.5 -86.5t-36.5 -74t-64.5 -51.5t-94.5 -19q-53 0 -90 17.5t-60 38.5q-27 25 -44 56l52 37q14 -26 34 -46q17 -17 43.5 -31.5t64.5 -14.5q68 0 104.5 45t36.5 129
q0 34 -9.5 63.5t-27.5 51.5t-43.5 35t-57.5 13q-28 0 -48 -7.5t-34 -16.5q-16 -11 -28 -24h-64v360h352v-56h-288z" />
    <glyph glyph-name="six" unicode="6" horiz-adv-x="507" 
d="M268 -6q-50 0 -90.5 20t-69 60.5t-43.5 102.5t-15 147q0 196 59 289t169 93q37 0 65 -10t47 -24t30.5 -28t17.5 -22l-49 -40q-2 4 -9.5 15t-20.5 23t-33 21t-48 9q-36 0 -65.5 -17t-50.5 -54t-33.5 -95t-13.5 -139q18 25 42 45q20 17 49 31.5t67 14.5q39 0 74.5 -13.5
t62 -40.5t42 -67.5t15.5 -94.5q0 -107 -52.5 -166.5t-146.5 -59.5zM117 283q5 -117 47 -174.5t104 -57.5q63 0 98 44.5t35 124.5q0 78 -36 118.5t-99 40.5q-34 0 -60.5 -14.5t-45.5 -32t-29.5 -32.5t-13.5 -17z" />
    <glyph glyph-name="seven" unicode="7" horiz-adv-x="428" 
d="M120 0q0 82 16 151t40 127.5t52.5 108t52.5 94t40 84.5t16 79h-310v56h378v-35q0 -50 -16.5 -96t-41 -92.5t-53 -96t-53 -106.5t-41 -124.5t-16.5 -149.5h-64z" />
    <glyph glyph-name="eight" unicode="8" horiz-adv-x="511" 
d="M154 372q-1 0 -13.5 7t-27 24t-26.5 46.5t-12 76.5q0 39 12.5 72t35.5 57t56.5 37.5t75.5 13.5q49 0 84 -16.5t57.5 -42.5t33 -60t10.5 -68q0 -48 -13.5 -79.5t-29.5 -51.5q-18 -23 -42 -35q60 -26 85 -71.5t25 -100.5q0 -87 -53 -137t-153 -50q-45 0 -83.5 12t-67.5 36
t-45.5 61.5t-16.5 88.5q0 50 16 84t36 55t37 30.5t19 10.5zM206 350q-27 -11 -47 -31q-18 -17 -32.5 -45.5t-14.5 -72.5q0 -72 40.5 -111.5t106.5 -39.5q67 0 103.5 37t36.5 106q0 45 -24.5 79.5t-72.5 49.5zM300 371q20 9 37 27q14 15 25.5 42t11.5 70q0 27 -7.5 52.5
t-22.5 44.5t-37.5 30.5t-51.5 11.5q-27 0 -48 -10.5t-36 -28t-22.5 -41t-7.5 -49.5q0 -30 7 -51t17.5 -35.5t24 -23.5t25.5 -13z" />
    <glyph glyph-name="nine" unicode="9" horiz-adv-x="506" 
d="M238 706q104 0 161 -85t57 -252q0 -195 -58.5 -285t-168.5 -90q-36 0 -63.5 10t-47 23.5t-32 27t-18.5 21.5l49 41q2 -4 10 -15t22 -22.5t34 -20.5t46 -9q75 0 117 71.5t45 224.5q-18 -25 -42 -43q-20 -16 -49.5 -29t-66.5 -13q-40 0 -75 13.5t-61 40.5t-41 68t-15 96
q0 104 51.5 165.5t145.5 61.5zM240 318q34 0 61 13.5t45.5 30t29 30.5t13.5 16q-4 115 -45 178t-105 63q-60 0 -96 -45t-36 -125t35 -120.5t98 -40.5z" />
    <glyph glyph-name="colon" unicode=":" horiz-adv-x="205" 
d="M58 40q0 20 13 33.5t31 13.5t30.5 -13.5t12.5 -33.5q0 -19 -12.5 -32.5t-30.5 -13.5t-31 13.5t-13 32.5zM58 458q0 20 13 33.5t31 13.5t30.5 -13.5t12.5 -33.5q0 -19 -12.5 -32.5t-30.5 -13.5t-31 13.5t-13 32.5z" />
    <glyph glyph-name="semicolon" unicode=";" horiz-adv-x="214" 
d="M61 40q0 20 13 33.5t31 13.5q20 0 33.5 -15t13.5 -42q0 -40 -10.5 -64.5t-23.5 -38.5q-15 -17 -34 -24l-19 33q11 5 20 14q8 7 14 18t6 26q-18 0 -31 13t-13 33zM61 458q0 20 13 33.5t31 13.5t30.5 -13.5t12.5 -33.5q0 -19 -12.5 -32.5t-30.5 -13.5t-31 13.5t-13 32.5z
" />
    <glyph glyph-name="less" unicode="&#x3c;" horiz-adv-x="352" 
d="M35 248v52l264 199v-57l-209 -168l209 -168v-57z" />
    <glyph glyph-name="equal" unicode="=" horiz-adv-x="436" 
d="M61 342v49h313v-49h-313zM61 151v48h313v-48h-313z" />
    <glyph glyph-name="greater" unicode="&#x3e;" horiz-adv-x="352" 
d="M53 49v57l209 168l-209 168v57l264 -199v-52z" />
    <glyph glyph-name="question" unicode="?" horiz-adv-x="385" 
d="M168 79q17 0 29 -13t12 -32q0 -18 -12 -31t-29 -13t-29 13t-12 31q0 19 12 32t29 13zM30 552q0 41 12 74.5t34 57t51 36.5t64 13q43 0 73.5 -15t50 -40.5t29 -58t9.5 -66.5q0 -47 -11.5 -78t-28.5 -54.5t-36.5 -44t-36.5 -46t-28.5 -60.5t-11.5 -88h-59q0 59 11 98.5
t27 67t35 47.5t35 41t27 47.5t11 66.5q0 26 -6 49t-18.5 40t-30.5 27t-42 10q-47 0 -75 -39t-28 -99z" />
    <glyph glyph-name="at" unicode="@" horiz-adv-x="702" 
d="M582 -33q-27 -31 -66 -56q-33 -21 -83 -38t-117 -17q-56 0 -105.5 20t-86.5 60.5t-58 101.5t-21 142q0 101 27.5 184.5t76 143.5t114.5 93.5t143 33.5q58 0 106.5 -21.5t83 -60t54 -91t19.5 -115.5q0 -66 -17.5 -121.5t-45 -95t-62.5 -62t-70 -22.5q-28 0 -41 13.5
t-14 37.5q0 9 2 22t5 21q-5 -10 -15.5 -25.5t-25.5 -30t-34.5 -25t-44.5 -10.5q-21 0 -40.5 7.5t-34.5 24.5t-24 45t-9 69q0 51 14.5 98.5t40 84t60 58t73.5 21.5q25 0 42 -8.5t27.5 -18.5t15 -19.5t4.5 -10.5l11 46h49q-20 -87 -36 -157q-7 -30 -13.5 -59.5t-12 -53.5
t-8.5 -40.5t-3 -20.5q-2 -29 22 -29q21 0 44.5 18.5t44 52.5t33.5 82t13 107q0 52 -14.5 95.5t-42.5 75.5t-67.5 50t-90.5 18q-67 0 -123.5 -31.5t-97 -86t-63 -128t-22.5 -157.5q0 -69 17 -121t47 -86.5t70 -52t85 -17.5q61 0 106 15.5t75 34.5q35 22 60 51zM463 360
q-6 15 -17 26q-9 10 -24 18t-38 8q-29 0 -53.5 -17.5t-42.5 -46.5t-28.5 -66.5t-10.5 -77.5q0 -56 19 -81t51 -25q25 0 44.5 13.5t34 32.5t23 39t12.5 32z" />
    <glyph glyph-name="A" unicode="A" horiz-adv-x="542" 
d="M393 207h-244l-62 -207h-66l218 700h64l219 -700h-67zM168 261h206l-103 350z" />
    <glyph glyph-name="B" unicode="B" horiz-adv-x="527" 
d="M75 0v700h191q88 0 136 -43.5t48 -134.5q0 -50 -10.5 -80.5t-25 -47.5t-30 -23t-25.5 -6v-2q14 0 36 -7.5t43 -27t36 -53.5t15 -87q0 -54 -17.5 -90t-47 -57.5t-67 -31t-77.5 -9.5h-205zM278 56q26 0 52 5.5t46.5 21t33.5 42.5t13 70q0 38 -10.5 65t-29 43.5t-44 24
t-54.5 7.5h-146v-279h139zM279 385q30 0 50 10t32 27.5t17 41.5t5 51q0 59 -29.5 94t-95.5 35h-119v-259h140z" />
    <glyph glyph-name="C" unicode="C" horiz-adv-x="534" 
d="M502 113q-19 -34 -48 -60q-25 -23 -62.5 -41t-88.5 -18q-55 0 -102 19.5t-81.5 62.5t-54 110t-19.5 162q0 94 18.5 161.5t51 111t77.5 64.5t99 21q47 0 80.5 -14.5t56 -36.5t36.5 -48.5t21 -49.5t9 -40t2 -21l-59 -11q-4 46 -21 82q-7 15 -18 30t-26 26.5t-35 18.5t-46 7
q-36 0 -69 -16t-57.5 -52t-39 -93.5t-14.5 -139.5q0 -84 16.5 -141t43.5 -91.5t62 -49.5t72 -15q38 0 67.5 16t49.5 36q23 23 40 53z" />
    <glyph glyph-name="D" unicode="D" horiz-adv-x="555" 
d="M75 0v700h150q58 0 110 -20.5t90 -63.5t60.5 -111t22.5 -162q0 -89 -19 -153.5t-52.5 -106.5t-80 -62.5t-101.5 -20.5h-180zM254 56q43 0 77.5 17.5t59.5 53t38.5 89.5t13.5 127q0 79 -16 135.5t-44.5 93.5t-68.5 54.5t-89 17.5h-86v-588h115z" />
    <glyph glyph-name="E" unicode="E" horiz-adv-x="463" 
d="M75 0v700h346v-56h-282v-268h238v-55h-238v-265h282v-56h-346z" />
    <glyph glyph-name="F" unicode="F" horiz-adv-x="447" 
d="M75 0v700h346v-56h-282v-270h238v-55h-238v-319h-64z" />
    <glyph glyph-name="G" unicode="G" horiz-adv-x="548" 
d="M502 255q0 -57 -12.5 -105t-38 -82.5t-65.5 -54t-94 -19.5q-50 0 -95 19.5t-78.5 62.5t-53 110t-19.5 162q0 94 18.5 161.5t51 111t77.5 64.5t99 21q46 0 79.5 -14.5t56 -36.5t36.5 -48t21 -49t9.5 -39.5t2.5 -19.5l-60 -11q-3 45 -20 80q-7 15 -18 29.5t-26 26t-35 18.5
t-46 7q-36 0 -69 -16t-57.5 -52t-39 -93.5t-14.5 -139.5q0 -84 16 -141t42 -91.5t58.5 -49.5t65.5 -15q76 0 111 54.5t35 149.5v40h-151v51h213v-91z" />
    <glyph glyph-name="H" unicode="H" horiz-adv-x="571" 
d="M432 0v316h-293v-316h-64v700h64v-328h293v328h65v-700h-65z" />
    <glyph glyph-name="I" unicode="I" horiz-adv-x="213" 
d="M75 0v700h64v-700h-64z" />
    <glyph glyph-name="J" unicode="J" horiz-adv-x="384" 
d="M250 700h64v-502q0 -53 -13 -91.5t-35.5 -63.5t-53 -37t-65.5 -12q-36 0 -62.5 11.5t-44.5 25.5q-21 17 -36 38l41 45q11 -18 27 -32q13 -12 32 -22t43 -10q49 0 76 34.5t27 108.5v507z" />
    <glyph glyph-name="K" unicode="K" horiz-adv-x="558" 
d="M550 1q-6 -1 -13 -2q-6 -1 -13.5 -1h-14.5q-37 0 -62 23t-43 58t-32.5 75.5t-30.5 75.5t-37.5 58t-53.5 23h-111v-311h-64v700h64v-334h106q30 0 60 18t54 58t39 103.5t15 154.5h64q0 -84 -12.5 -146t-32.5 -105.5t-45.5 -69.5t-50.5 -39q23 -11 40 -37t31 -58.5
t26.5 -67t26 -63t29.5 -47t38 -18.5h23v-48z" />
    <glyph glyph-name="L" unicode="L" horiz-adv-x="442" 
d="M75 0v700h64v-644h292v-56h-356z" />
    <glyph glyph-name="M" unicode="M" horiz-adv-x="686" 
d="M139 577v-577h-64v700h71l198 -513l196 513h71v-700h-65v577l-180 -479h-47z" />
    <glyph glyph-name="N" unicode="N" horiz-adv-x="569" 
d="M421 0l-282 584v-584h-64v700h73l282 -593v593h65v-700h-74z" />
    <glyph glyph-name="O" unicode="O" horiz-adv-x="589" 
d="M295 -6q-49 0 -94 19.5t-79.5 62t-55 110t-20.5 163.5t20.5 164t55 110.5t79.5 62.5t94 20t93.5 -20t79 -62.5t55 -110.5t20.5 -164t-20.5 -163.5t-55 -110t-79 -62t-93.5 -19.5zM295 51q35 0 68 16t58.5 51t40.5 92t15 139q0 83 -15 140.5t-40.5 93t-58.5 51t-68 15.5
q-36 0 -68.5 -15.5t-58 -51t-40.5 -93t-15 -140.5q0 -82 15 -139t40.5 -92t58 -51t68.5 -16z" />
    <glyph glyph-name="P" unicode="P" horiz-adv-x="495" 
d="M75 0v700h182q98 0 153 -54.5t55 -164.5q0 -55 -14.5 -95t-41 -66.5t-63 -39t-81.5 -12.5h-126v-268h-64zM255 323q73 0 108.5 41t35.5 117q0 75 -35.5 119t-110.5 44h-114v-321h116z" />
    <glyph glyph-name="Q" unicode="Q" horiz-adv-x="589" 
d="M476 -219q-47 0 -83.5 17t-63 46t-43.5 68t-25 84q-43 5 -82 27t-68.5 64.5t-47 107t-17.5 154.5q0 96 20.5 164t55 110.5t79.5 62.5t94 20t93.5 -20t79 -62.5t55 -110.5t20.5 -164q0 -91 -18 -156t-49 -108t-71 -64.5t-85 -25.5q17 -79 58 -117.5t98 -38.5v-58zM295 51
q35 0 68 16t58.5 51t40.5 92t15 139q0 83 -15 140.5t-40.5 93t-58.5 51t-68 15.5q-36 0 -68.5 -15.5t-58 -51t-40.5 -93t-15 -140.5q0 -82 15 -139t40.5 -92t58 -51t68.5 -16z" />
    <glyph glyph-name="R" unicode="R" horiz-adv-x="559" 
d="M550 1q-6 -1 -13 -2q-6 -1 -13 -1h-14q-38 0 -63 22t-43 55t-32.5 72t-30.5 72t-37.5 55t-54.5 22h-110v-296h-64v700h189q93 0 145.5 -48.5t52.5 -155.5q0 -39 -9.5 -69.5t-25 -53t-36.5 -37t-45 -21.5q20 -11 35 -34.5t28 -53t24.5 -61t25 -57.5t30 -43t38.5 -17h23
v-48zM255 348q30 0 56 9.5t45 28t30 45.5t11 63q0 68 -35.5 109t-101.5 41h-121v-296h116z" />
    <glyph glyph-name="S" unicode="S" horiz-adv-x="508" 
d="M411 545q-11 29 -32 52q-18 20 -48 36t-76 16q-35 0 -61 -11t-43.5 -29t-26.5 -41.5t-9 -49.5q0 -40 15.5 -64t40 -39t56.5 -23t65.5 -16.5t65.5 -19.5t56.5 -32t40 -54t15.5 -85q0 -39 -13 -73.5t-39 -60.5t-65.5 -41.5t-92.5 -15.5q-65 0 -108.5 20.5t-69.5 46.5
q-31 29 -49 67l41 38q17 -32 43 -58q23 -22 58 -39.5t85 -17.5q67 0 105.5 35.5t38.5 96.5q0 41 -15.5 66.5t-40 40.5t-56.5 23t-65.5 16t-65.5 19t-56.5 31.5t-40 53t-15.5 84.5q0 39 13 73t38.5 60t63.5 41t87 15q64 0 104.5 -20t63.5 -44q27 -28 40 -63z" />
    <glyph glyph-name="T" unicode="T" horiz-adv-x="504" 
d="M221 0v644h-208v56h478v-56h-206v-644h-64z" />
    <glyph glyph-name="U" unicode="U" horiz-adv-x="566" 
d="M432 700h64v-414q0 -84 -16 -140t-44.5 -89.5t-67.5 -48t-85 -14.5q-45 0 -84.5 14.5t-68.5 48t-45.5 89.5t-16.5 140v414h65v-418q0 -125 39.5 -178t110.5 -53q35 0 63 12.5t47 40.5t29 71.5t10 106.5v418z" />
    <glyph glyph-name="V" unicode="V" horiz-adv-x="538" 
d="M444 700h74l-217 -700h-64l-216 700h76l172 -620z" />
    <glyph glyph-name="W" unicode="W" horiz-adv-x="821" 
d="M587 81l129 619h77l-170 -700h-72l-141 597l-141 -597h-71l-170 700h77l128 -619l147 619h61z" />
    <glyph glyph-name="X" unicode="X" horiz-adv-x="509" 
d="M420 0l-165 307l-165 -307h-74l195 349l-195 351h77l162 -305l162 305h76l-195 -350l195 -350h-73z" />
    <glyph glyph-name="Y" unicode="Y" horiz-adv-x="527" 
d="M231 0v307l-211 393h77l167 -335l166 335h77l-212 -393v-307h-64z" />
    <glyph glyph-name="Z" unicode="Z" horiz-adv-x="499" 
d="M37 0v56l347 588h-347v56h426v-56l-346 -588h346v-56h-426z" />
    <glyph glyph-name="bracketleft" unicode="[" horiz-adv-x="261" 
d="M69 -244v970h160v-55h-98v-860h98v-55h-160z" />
    <glyph glyph-name="backslash" unicode="\" horiz-adv-x="343" 
d="M259 -225l-237 931h62l237 -931h-62z" />
    <glyph glyph-name="bracketright" unicode="]" horiz-adv-x="261" 
d="M31 -244v55h98v860h-98v55h160v-970h-160z" />
    <glyph glyph-name="asciicircum" unicode="^" horiz-adv-x="335" 
d="M50 523l82 195h71l81 -195h-57l-60 145l-60 -145h-57z" />
    <glyph glyph-name="underscore" unicode="_" horiz-adv-x="349" 
d="M24 -48v48h301v-48h-301z" />
    <glyph glyph-name="grave" unicode="`" horiz-adv-x="221" 
d="M126 564l-91 162h77l70 -162h-56z" />
    <glyph glyph-name="a" unicode="a" horiz-adv-x="426" 
d="M396 2q-3 -1 -7 -2q-10 -2 -21 -2q-27 0 -45 18t-18 56v26q-5 -15 -15.5 -33.5t-28 -34t-41.5 -26t-57 -10.5q-61 0 -94.5 32.5t-33.5 90.5q0 60 37.5 93.5t119.5 33.5h108v78q0 59 -24 85.5t-69 26.5q-46 0 -69 -25.5t-23 -66.5q0 -11 1 -19t3 -13q2 -6 4 -11h-57
q-3 5 -5 13q-2 7 -3 17t-1 24q0 57 39 96t112 39q154 0 154 -168v-219q0 -26 7 -40t27 -14v-45zM300 198h-108q-45 0 -69 -19.5t-24 -56.5t21.5 -57.5t58.5 -20.5q35 0 58.5 20t37.5 45q16 28 25 65v24z" />
    <glyph glyph-name="b" unicode="b" 
d="M62 0v726h62v-329q0 2 6.5 16.5t21.5 31t38.5 30t58.5 13.5q32 0 61.5 -13.5t52 -43t36 -75.5t13.5 -111q0 -68 -13.5 -115.5t-36.5 -77.5t-53 -44t-63 -14q-34 0 -57.5 12.5t-38.5 28t-23 29t-10 15.5v-79h-55zM124 157q0 -3 5 -21t17 -37.5t33.5 -35.5t54.5 -16
q51 0 83.5 48t32.5 149q0 51 -9.5 87.5t-26 59.5t-37.5 33.5t-43 10.5q-33 0 -54.5 -18t-33.5 -40q-15 -26 -22 -58v-162z" />
    <glyph glyph-name="c" unicode="c" horiz-adv-x="409" 
d="M372 81q-13 -25 -34 -44q-18 -17 -46.5 -30t-70.5 -13q-34 0 -66.5 12.5t-57.5 41.5t-40 76.5t-15 116.5q0 128 48 187.5t131 59.5q39 0 66 -12.5t44.5 -32.5t25.5 -46t8 -54q0 -11 -1 -20t-2 -15q-1 -7 -2 -13h-57l2 12q1 5 1.5 11.5t0.5 14.5q0 17 -4 35t-13.5 33
t-26.5 24.5t-42 9.5q-53 0 -85.5 -45t-32.5 -148q0 -59 12.5 -97t31 -59.5t40.5 -30t42 -8.5q28 0 48 10.5t34 24.5q16 15 26 35z" />
    <glyph glyph-name="d" unicode="d" horiz-adv-x="462" 
d="M427 1l-8 -2t-9 -1h-11q-26 0 -44.5 17.5t-18.5 54.5v22q-2 -3 -9 -18.5t-22 -33.5t-40 -32t-62 -14q-30 0 -59 14t-51.5 43.5t-36.5 76t-14 111.5q0 67 13.5 114t37 77t54 44t63.5 14t55 -11.5t36 -26t20.5 -27t7.5 -13.5v316h62v-625q0 -27 8 -40t28 -13v-47zM329 332
q0 3 -5.5 19.5t-18 35t-34 33.5t-53.5 15q-24 0 -44.5 -12t-36.5 -36.5t-25 -61.5t-9 -86t9.5 -85t25 -60t36.5 -35.5t44 -11.5q35 0 57 18.5t34 41t16 42t4 20.5v163z" />
    <glyph glyph-name="e" unicode="e" horiz-adv-x="413" 
d="M104 245v-12q1 -56 13.5 -92t31 -57t40 -29t40.5 -8q28 0 48 10.5t34 24.5q16 15 26 35l35 -36q-13 -25 -34 -44q-18 -17 -46.5 -30t-70.5 -13q-34 0 -66.5 12.5t-57.5 41.5t-40 76.5t-15 116.5q0 129 46.5 188t129.5 59q42 0 71 -16.5t47 -46t26 -69t8 -84.5v-27h-266z
M311 290q0 30 -5 56.5t-16.5 46t-30 31t-44.5 11.5q-44 0 -73.5 -34t-35.5 -111h205z" />
    <glyph glyph-name="f" unicode="f" horiz-adv-x="314" 
d="M85 0v431h-58v51h58v85q0 72 32.5 116.5t99.5 44.5q26 0 45.5 -7.5t32.5 -16.5q15 -11 24 -24l-23 -46q0 1 -4.5 7.5t-13.5 14t-22.5 13.5t-32.5 6q-35 0 -55.5 -29t-20.5 -81v-83h148v-51h-148v-431h-62z" />
    <glyph glyph-name="g" unicode="g" horiz-adv-x="432" 
d="M182 1q-42 -1 -68 -25.5t-26 -72.5t33.5 -72.5t92.5 -24.5q71 0 103 26t32 77q0 45 -25 68.5t-70 23.5h-72zM324 309q0 28 -8.5 51.5t-22.5 40t-34 25.5t-42 9q-46 0 -76 -34.5t-30 -91.5q0 -58 30 -92t75 -34q46 0 77 34t31 92zM255 48q33 0 61.5 -8.5t49.5 -26t33 -44
t12 -61.5q0 -69 -48 -112t-145 -43q-94 0 -142.5 39t-48.5 108q0 33 9.5 54.5t21.5 35.5t24 21t18 10l-13 6.5t-18.5 13t-16.5 22.5t-7 35q0 34 17.5 52.5t41.5 25.5q-4 3 -13 13t-18 26.5t-16 40t-7 53.5q0 41 13.5 74t36 56.5t52.5 36t64 12.5q28 0 45.5 -8.5t20.5 -9.5
q18 0 34 3.5t28.5 12.5t19.5 25t7 41l52 -8q0 -30 -9.5 -50t-23 -31.5t-29 -16.5t-27.5 -6q6 -5 14.5 -15.5t17 -26.5t14 -38.5t5.5 -50.5q0 -42 -13.5 -75.5t-36.5 -57t-53.5 -35.5t-64.5 -12q-28 0 -47 9.5t-24 11.5q-17 0 -30.5 -12t-13.5 -38q0 -32 21 -42t53 -10h79z
" />
    <glyph glyph-name="h" unicode="h" horiz-adv-x="452" 
d="M423 1q-3 -1 -7 -2q-5 -1 -21 -1q-32 0 -50.5 21.5t-18.5 72.5v213q0 54 -24 92t-71 38q-28 0 -48 -15.5t-33 -39t-19.5 -51.5t-6.5 -53v-276h-62v726h62v-346q12 44 42.5 76t79.5 32q38 0 65 -15t44 -40.5t25 -59.5t8 -73v-202q0 -25 7.5 -37.5t27.5 -12.5v-47z" />
    <glyph glyph-name="i" unicode="i" horiz-adv-x="193" 
d="M139 633q0 -20 -13.5 -33.5t-32.5 -13.5q-20 0 -32.5 13.5t-12.5 33.5t12.5 33.5t32.5 13.5q19 0 32.5 -13.5t13.5 -33.5zM157 1q-3 -1 -7 -2q-5 -1 -21 -1q-32 0 -51 21.5t-19 72.5v390h63v-384q0 -25 7.5 -37.5t27.5 -12.5v-47z" />
    <glyph glyph-name="j" unicode="j" horiz-adv-x="186" 
d="M-61 -176q6 -5 13 -9q14 -9 35 -9q38 0 56.5 28.5t18.5 90.5v557h62v-559q0 -81 -31 -125.5t-99 -44.5q-20 0 -34 4t-23 9q-11 5 -18 13zM136 636q0 -19 -12.5 -31t-30.5 -12t-30.5 12t-12.5 31q0 20 12.5 32t30.5 12t30.5 -12t12.5 -32z" />
    <glyph glyph-name="k" unicode="k" horiz-adv-x="449" 
d="M433 2l-8 -2q-10 -2 -19 -2q-33 0 -52 18t-31 45t-21 59t-21.5 59t-32.5 45t-54 18h-71v-242h-61v726h61v-438h70q57 0 93.5 51t36.5 143h58q0 -33 -5.5 -66.5t-18 -62.5t-33 -51.5t-51.5 -34.5q23 -10 37 -30t23.5 -44.5t16.5 -50t16.5 -46.5t23 -34.5t35.5 -13.5h8v-46
z" />
    <glyph glyph-name="l" unicode="l" horiz-adv-x="195" 
d="M158 1l-8 -2q-5 -1 -21 -1q-32 0 -50.5 21.5t-18.5 72.5v634h63v-628q0 -25 7.5 -37.5t27.5 -12.5v-47z" />
    <glyph glyph-name="m" unicode="m" horiz-adv-x="720" 
d="M692 1l-8 -2q-5 -1 -21 -1q-32 0 -50.5 21.5t-18.5 72.5v208q0 57 -23 96t-72 39q-23 0 -41 -13t-31 -34t-20.5 -47t-9.5 -52v-191q0 -25 7.5 -37.5t27.5 -12.5v-47q-3 -1 -7 -2q-5 -1 -21 -1q-32 0 -50.5 21.5t-18.5 72.5v208q0 57 -23 96t-72 39q-27 0 -47.5 -15.5
t-33.5 -39t-19.5 -52t-6.5 -53.5v-275h-62v385q0 23 -7 36t-27 13v47q3 0 7 1t9 1.5t13 0.5q24 0 42.5 -18t18.5 -54v-39q4 23 14.5 44t26 36.5t37.5 25t51 9.5q55 0 86 -32.5t44 -82.5q5 22 15.5 42.5t26 36.5t37.5 26t50 10q38 0 65 -15t44 -40.5t25 -59.5t8 -73v-202
q0 -25 7.5 -37.5t27.5 -12.5v-47z" />
    <glyph glyph-name="n" unicode="n" horiz-adv-x="462" 
d="M433 1q-3 -1 -7 -2q-5 -1 -21 -1q-32 0 -51 21.5t-19 72.5v208q0 57 -23 96t-72 39q-27 0 -47.5 -15.5t-33.5 -39t-19.5 -52t-6.5 -53.5v-275h-62v385q0 23 -7 36t-27 13v47q3 0 7 1t9 1.5t13 0.5q24 0 42.5 -18t18.5 -54v-39q4 23 14.5 44t26 36.5t37.5 25t51 9.5
q38 0 65 -15t44 -40.5t25 -59.5t8 -73v-202q0 -25 7.5 -37.5t27.5 -12.5v-47z" />
    <glyph glyph-name="o" unicode="o" horiz-adv-x="437" 
d="M218 -6q-80 0 -128 63.5t-48 183.5t48 183.5t128 63.5q81 0 129.5 -63.5t48.5 -183.5t-48.5 -183.5t-129.5 -63.5zM218 47q51 0 83.5 47.5t32.5 146.5t-32.5 146.5t-83.5 47.5q-50 0 -82.5 -47.5t-32.5 -146.5t32.5 -146.5t82.5 -47.5z" />
    <glyph glyph-name="p" unicode="p" horiz-adv-x="463" 
d="M71 -244v629q0 23 -7 36t-27 13v47q3 0 7 1t9 1.5t13 0.5q25 0 43 -17.5t18 -53.5v-20q2 3 9.5 18.5t22.5 32.5t39.5 30.5t60.5 13.5q31 0 60.5 -13.5t52.5 -43t36.5 -75.5t13.5 -111q0 -68 -13.5 -115.5t-36.5 -77.5t-53 -44t-63 -14t-56 11.5t-37.5 26t-21.5 27
t-8 15.5v-318h-62zM133 155q0 -3 5.5 -20.5t18 -37t34 -35t54.5 -15.5q50 0 82.5 48t32.5 149q0 51 -9.5 87.5t-26 59.5t-37.5 33.5t-43 10.5q-33 0 -54.5 -18t-34.5 -40q-15 -26 -22 -58v-164z" />
    <glyph glyph-name="q" unicode="q" 
d="M329 -244v331q-1 -2 -7 -16.5t-20.5 -31.5t-38 -31t-59.5 -14q-30 0 -59.5 14t-52 43.5t-36.5 76t-14 111.5q0 67 13.5 114t36 77t52.5 44t63 14t56.5 -12t38.5 -27t23.5 -28t11.5 -15v76h54v-726h-62zM329 332q0 3 -5.5 19.5t-18 35t-34 33.5t-53.5 15q-49 0 -82 -48.5
t-33 -147.5q0 -49 9.5 -85t25.5 -60t37 -35.5t44 -11.5t40 9t29.5 22.5t20 29t12 29t6.5 23t2 10.5v162z" />
    <glyph glyph-name="r" unicode="r" horiz-adv-x="319" 
d="M71 0v384q0 23 -7 36.5t-27 13.5v47q2 0 6 1q8 2 21 2q24 0 43 -16.5t19 -57.5v-38q5 22 15 43t25.5 37.5t37 26t50.5 9.5q13 0 22.5 -2t16.5 -4q8 -3 13 -5l-25 -57q-5 2 -11 5q-5 2 -13 3.5t-19 1.5q-27 0 -46.5 -15t-32.5 -38t-19.5 -50t-6.5 -52v-275h-62z" />
    <glyph glyph-name="s" unicode="s" horiz-adv-x="394" 
d="M289 310q1 5 2 11q1 5 2 12.5t1 16.5q0 33 -21.5 59t-73.5 26q-46 0 -68.5 -24.5t-22.5 -64.5q0 -35 18 -52t45.5 -25.5t59.5 -14t59.5 -17.5t45.5 -36.5t18 -71.5q0 -63 -38 -99t-116 -36q-49 0 -81.5 15t-52.5 33q-23 21 -36 48l36 40q13 -24 32 -42q17 -16 41 -28.5
t58 -12.5q48 0 72 21.5t24 58.5q0 32 -18.5 46.5t-45.5 23t-59.5 14.5t-59.5 19.5t-45.5 40t-18.5 74.5q0 28 8.5 53.5t26.5 45.5t47 32t71 12q43 0 72.5 -12t47 -30.5t25 -42.5t7.5 -48q0 -11 -1 -19t-2 -14l-3 -12h-56z" />
    <glyph glyph-name="t" unicode="t" horiz-adv-x="343" 
d="M330 47q-12 -16 -27 -27q-14 -10 -32.5 -18t-42.5 -8q-73 0 -105 42.5t-32 127.5v267h-64v51h64v150h63v-150h158v-51h-158v-265q0 -59 19 -88.5t61 -29.5q18 0 32 6.5t24 14.5q11 10 20 22z" />
    <glyph glyph-name="u" unicode="u" 
d="M417 1q-3 -1 -7 -2t-9.5 -1h-12.5q-28 0 -45 18t-17 60v19q-14 -41 -48.5 -71t-91.5 -30q-63 0 -95 41t-32 128v319h62v-312q0 -68 23.5 -95.5t61.5 -27.5q30 0 51.5 16t35.5 39.5t20.5 48.5t6.5 43v288h62v-383q0 -25 7 -38t28 -13v-47z" />
    <glyph glyph-name="v" unicode="v" horiz-adv-x="425" 
d="M178 0l-153 482h69l120 -411l121 411h65l-152 -482h-70z" />
    <glyph glyph-name="w" unicode="w" horiz-adv-x="635" 
d="M409 0l-89 369l-94 -369h-69l-130 482h68l97 -412l101 405h57l94 -405l97 412h65l-128 -482h-69z" />
    <glyph glyph-name="x" unicode="x" horiz-adv-x="410" 
d="M318 0l-113 202l-113 -202h-70l144 243l-144 239h74l109 -198l114 198h69l-144 -239l144 -243h-70z" />
    <glyph glyph-name="y" unicode="y" horiz-adv-x="424" 
d="M204 -135q-8 -23 -18.5 -43.5t-25 -35.5t-34 -24t-45.5 -9q-14 0 -24 2t-18 4q-9 3 -15 6l9 52q6 -3 13 -5q6 -2 14 -3t17 -1q31 0 46 20t26 53l33 114l-158 487h67l123 -409l119 409h66z" />
    <glyph glyph-name="z" unicode="z" horiz-adv-x="385" 
d="M37 0v51l240 380h-240v51h311v-51l-237 -380h237v-51h-311z" />
    <glyph glyph-name="braceleft" unicode="{" horiz-adv-x="269" 
d="M236 -244q-27 0 -53 7.5t-46 25.5t-32.5 48.5t-12.5 77.5v233q0 36 -17 51.5t-37 15.5h-8v52h8q20 0 37 15.5t17 51.5v233q0 47 12.5 77.5t32.5 48.5t46 25.5t53 7.5v-56q-39 0 -62 -27t-23 -85v-236q0 -23 -5 -38t-12 -24t-13.5 -13.5t-10.5 -5.5q3 -1 10 -5.5t13.5 -14
t12 -24.5t5.5 -37v-236q0 -58 23 -85t62 -27v-56z" />
    <glyph glyph-name="bar" unicode="|" horiz-adv-x="193" 
d="M69 -254v990h54v-990h-54z" />
    <glyph glyph-name="braceright" unicode="}" horiz-adv-x="269" 
d="M32 -188q40 0 63 27t23 85v236q0 23 5 38t11.5 24t13.5 13t10 6q-3 1 -10 5t-13.5 13t-11.5 24t-5 39v236q0 58 -23 85t-63 27v56q27 0 53 -7.5t46 -25.5t32.5 -48.5t12.5 -77.5v-233q0 -36 17.5 -51.5t36.5 -15.5h8v-52h-8q-19 0 -36.5 -15.5t-17.5 -51.5v-233
q0 -47 -12.5 -77.5t-32.5 -48.5t-46 -25.5t-53 -7.5v56z" />
    <glyph glyph-name="asciitilde" unicode="~" horiz-adv-x="379" 
d="M70 211q-3 5 -5 12q-5 12 -5 31q0 29 17 49.5t49 20.5q18 0 34 -5.5t30.5 -12t28.5 -12t28 -5.5q20 0 20 22q0 7 -1.5 13t-3.5 11l-4 10h51l4 -12t3 -13.5t1 -16.5q0 -27 -15.5 -46.5t-47.5 -19.5q-21 0 -37.5 5.5t-31 12.5t-26.5 12.5t-24 5.5q-11 0 -17.5 -7.5
t-6.5 -21.5t5 -24q2 -5 5 -9h-51z" />
    <glyph glyph-name="exclamdown" unicode="&#xa1;" horiz-adv-x="192" 
d="M60 -254l9 563h54l7 -563h-70zM97 418q-17 0 -29.5 13t-12.5 32t12.5 32t29.5 13t29.5 -13t12.5 -32t-12.5 -32t-29.5 -13z" />
    <glyph glyph-name="cent" unicode="&#xa2;" horiz-adv-x="415" 
d="M198 -4q-30 4 -57 21t-47.5 47.5t-33 75t-12.5 105.5q0 121 39.5 181.5t110.5 69.5v86h50v-86q30 -2 52 -15t37 -29t23 -30.5t10 -20.5l-52 -31q0 1 -3.5 11t-11.5 22.5t-21.5 23.5t-33.5 14v-393q29 2 48 16.5t30 30.5q12 18 19 42l35 -32q-8 -29 -26 -52
q-15 -20 -40.5 -37.5t-65.5 -20.5v-96h-50v97zM109 245q0 -48 8 -82t20.5 -56.5t28.5 -35t32 -17.5v386q-40 -8 -64.5 -53t-24.5 -142z" />
    <glyph glyph-name="sterling" unicode="&#xa3;" horiz-adv-x="517" 
d="M43 296h88q-9 18 -19.5 37.5t-19.5 42.5t-15 50.5t-6 60.5q0 46 13 86t38.5 69.5t64 46.5t88.5 17q62 0 101.5 -19t63.5 -42q27 -27 43 -61l-57 -26q-11 25 -31 45q-17 17 -46 31.5t-74 14.5q-36 0 -61.5 -14.5t-42.5 -38t-25.5 -53.5t-8.5 -62q0 -30 6 -55.5t16 -48
t20.5 -42.5t19.5 -39h194v-57h-176q5 -13 5 -36q0 -35 -8 -61.5t-18 -45t-19 -29t-10 -11.5h286v-56h-376v43q21 17 39 41q15 20 27.5 50t12.5 69q0 23 -5 36h-108v57z" />
    <glyph glyph-name="currency" unicode="&#xa4;" horiz-adv-x="500" 
d="M104 378q0 50 21 88l-67 81l32 34l66 -80q18 22 42.5 35t51.5 13q28 0 51.5 -13t41.5 -35l66 80l33 -34l-67 -81q10 -20 16 -42t6 -46q0 -50 -22 -89l66 -79l-33 -33l-65 77q-17 -22 -41 -34.5t-51 -12.5q-28 0 -52.5 12.5t-42.5 34.5l-67 -80l-33 34l69 82
q-11 19 -16 41.5t-5 46.5zM153 378q0 -25 7.5 -46.5t21 -38t31 -26t38.5 -9.5q20 0 37.5 9t31 25.5t21 38.5t7.5 47t-7.5 47t-21 38t-31.5 25.5t-38 9.5t-37.5 -9.5t-31 -25.5t-21 -38t-7.5 -47z" />
    <glyph glyph-name="yen" unicode="&#xa5;" horiz-adv-x="534" 
d="M108 273h127v31l-29 59h-136v50h105l-151 274h77l166 -326l165 326h78l-151 -274h104v-50h-135l-29 -59v-31h126v-49h-126v-224h-64v224h-127v49z" />
    <glyph glyph-name="brokenbar" unicode="&#xa6;" horiz-adv-x="194" 
d="M70 354v382h54v-382h-54zM70 -254v450h54v-450h-54z" />
    <glyph glyph-name="section" unicode="&#xa7;" horiz-adv-x="525" 
d="M477 186q0 -42 -12 -73t-27 -47q14 -14 26.5 -43t12.5 -79q0 -40 -13.5 -75t-39.5 -60.5t-65.5 -40.5t-91.5 -15q-65 0 -108.5 20.5t-69.5 46.5q-31 29 -49 67l41 38q17 -32 43 -58q23 -22 58 -39.5t85 -17.5q63 0 103.5 33t40.5 99q0 42 -15.5 67t-40 40t-56.5 23.5
t-65.5 16.5t-65.5 18.5t-56.5 31t-40 53t-15.5 84.5q0 42 11.5 71.5t27.5 46.5q-14 14 -26.5 42t-12.5 81q0 40 13.5 74.5t39 60t63.5 40t86 14.5q64 0 104.5 -20t63.5 -44q27 -28 40 -63l-47 -34q-12 29 -33 52q-18 20 -48 36t-76 16q-67 0 -103.5 -37t-36.5 -95
q0 -40 15.5 -64t40 -38.5t56.5 -23t65.5 -17t65.5 -19.5t56.5 -31.5t40 -53.5t15.5 -84zM411 185q0 37 -12 60.5t-32.5 38.5t-47 23.5t-55.5 15.5t-58.5 15t-55.5 22q-10 -10 -19 -30.5t-9 -52.5q0 -37 12.5 -60.5t33 -38t47 -23t56 -16t59 -16t55.5 -23.5q9 9 17.5 31
t8.5 54z" />
    <glyph glyph-name="dieresis" unicode="&#xa8;" horiz-adv-x="293" 
d="M73 592q-16 0 -27.5 12.5t-11.5 30.5q0 17 11.5 30t27.5 13t27.5 -13t11.5 -30q0 -18 -11.5 -30.5t-27.5 -12.5zM220 592q-16 0 -27.5 12.5t-11.5 30.5q0 17 11.5 30t27.5 13q17 0 28 -13t11 -30q0 -18 -11 -30.5t-28 -12.5z" />
    <glyph glyph-name="copyright" unicode="&#xa9;" horiz-adv-x="732" 
d="M365 -17q-70 0 -128.5 28t-101 78.5t-66.5 120t-24 153.5t24 153.5t66.5 120t101.5 78.5t128 28t128 -28t102 -78.5t67.5 -120t24.5 -153.5t-24 -153.5t-67 -120t-102 -78.5t-129 -28zM365 38q58 0 107 24.5t84.5 67.5t55 102.5t19.5 130.5t-20 131.5t-55.5 104.5
t-84 68.5t-106.5 24.5t-106.5 -24.5t-84 -68.5t-55.5 -104t-20 -132q0 -71 20 -130.5t55 -103t84 -67.5t107 -24zM511 181q-12 -19 -32 -34q-17 -13 -45 -23t-69 -10q-31 0 -61 13t-54 41.5t-39 74t-15 111.5q0 70 13.5 119.5t37 81t54 45.5t64.5 14q52 0 82 -21t45.5 -46.5
t19.5 -48.5t4 -26l-51 -9q-3 27 -14 48q-10 18 -30 33.5t-56 15.5q-20 0 -39.5 -9.5t-35 -33t-25.5 -63t-10 -98.5q0 -54 11 -90t27.5 -57.5t37 -31t40.5 -9.5q32 0 53.5 8t35.5 19q16 11 26 27z" />
    <glyph glyph-name="ordfeminine" unicode="&#xaa;" horiz-adv-x="303" 
d="M255 429q-2 -1 -5 -2q-6 -2 -15 -2q-12 0 -24.5 9t-12.5 32v6q-8 -20 -26 -34t-51 -14q-32 0 -53 17.5t-21 52.5q0 34 20.5 54t67.5 20h60v36q0 32 -12 45.5t-37 13.5q-47 0 -47 -40q0 -10 2 -16q1 -3 2 -4h-40q-1 1 -2 5t-1 21q0 29 21 51t65 22q45 0 67 -23t22 -73
v-121q0 -14 4 -18.5t16 -4.5v-33zM195 537h-58q-26 0 -37.5 -10t-11.5 -28q0 -20 12 -29.5t30 -9.5t30 6.5t20 16.5t11.5 21.5t3.5 21.5v11z" />
    <glyph glyph-name="guillemotleft" unicode="&#xab;" horiz-adv-x="398" 
d="M47 238v52l120 134l32 -37l-103 -123l103 -122l-32 -38zM196 238v52l120 134l32 -37l-103 -123l103 -122l-32 -38z" />
    <glyph glyph-name="logicalnot" unicode="&#xac;" horiz-adv-x="392" 
d="M279 135v120h-215v48h265v-168h-50z" />
    <glyph glyph-name="registered" unicode="&#xae;" horiz-adv-x="732" 
d="M548 128q-4 -1 -8 -1h-17q-25 0 -41.5 14.5t-29 37t-22.5 48t-21 48t-26 37t-36 14.5h-67v-198h-56v474h138q61 0 95 -33.5t34 -104.5q0 -38 -10.5 -61.5t-23 -36t-24 -17t-13.5 -5.5q19 -12 32 -39.5t24.5 -55.5t24.5 -49.5t33 -21.5h14v-50zM350 375q82 0 82 86
q0 90 -80 90h-72v-176h70zM365 -17q-70 0 -128.5 28t-101 78.5t-66.5 120t-24 153.5t24 153.5t66.5 120t101.5 78.5t128 28t128 -28t102 -78.5t67.5 -120t24.5 -153.5t-24 -153.5t-67 -120t-102 -78.5t-129 -28zM365 38q58 0 107 24.5t84.5 67.5t55 102.5t19.5 130.5
t-20 131.5t-55.5 104.5t-84 68.5t-106.5 24.5t-106.5 -24.5t-84 -68.5t-55.5 -104t-20 -132q0 -71 20 -130.5t55 -103t84 -67.5t107 -24z" />
    <glyph glyph-name="macron" unicode="&#xaf;" horiz-adv-x="316" 
d="M45 601v48h227v-48h-227z" />
    <glyph glyph-name="degree" unicode="&#xb0;" horiz-adv-x="294" 
d="M251 587q0 -25 -8.5 -47t-22.5 -38.5t-33 -26t-40 -9.5t-40 9.5t-32.5 26t-21.5 38.5t-8 47t8 47.5t21.5 39t32.5 26t40 9.5t40 -9.5t33 -26t22.5 -39t8.5 -47.5zM215 587q0 35 -19.5 60t-48.5 25t-48 -25t-19 -60t19 -59.5t48 -24.5t48.5 24.5t19.5 59.5z" />
    <glyph glyph-name="plusminus" unicode="&#xb1;" horiz-adv-x="414" 
d="M181 291h-123v48h123v157h48v-157h127v-48h-127v-163h-48v163zM55 8v48h301v-48h-301z" />
    <glyph glyph-name="uni00B2" unicode="&#xb2;" horiz-adv-x="213" 
d="M30 493v22q0 24 8.5 40.5t20.5 28.5t27 21.5t27 20t20.5 23.5t8.5 33q0 23 -10 35.5t-27 12.5q-13 0 -21 -6t-12 -13.5t-5 -14.5t-1 -8l-39 9q0 5 3.5 17t12 24t24 21.5t39.5 9.5q37 0 57 -23.5t20 -61.5q0 -35 -15.5 -56t-34 -36t-34 -28.5t-15.5 -33.5v-2h99v-35h-153z
" />
    <glyph glyph-name="uni00B3" unicode="&#xb3;" horiz-adv-x="216" 
d="M87 614v34h20q10 0 20.5 11t10.5 34q0 14 -9 25.5t-27 11.5q-11 0 -17 -4t-11 -9t-8 -12l-36 14q4 14 14 25q8 9 22.5 17t37.5 8q21 0 35.5 -6.5t23.5 -16.5t13.5 -23t4.5 -26q0 -17 -4 -28.5t-9.5 -19t-11.5 -11t-10 -4.5l11 -5.5t14 -11t12.5 -20t5.5 -31.5
q0 -35 -24 -55t-62 -20q-25 0 -40.5 7.5t-24.5 17.5q-11 11 -15 26l25 23q5 -11 12 -20q6 -8 16 -13.5t25 -5.5q21 0 34 11.5t13 31.5q0 25 -13.5 35t-27.5 10h-20z" />
    <glyph glyph-name="acute" unicode="&#xb4;" horiz-adv-x="221" 
d="M37 564l71 162h77l-90 -162h-58z" />
    <glyph glyph-name="paragraph" unicode="&#xb6;" horiz-adv-x="498" 
d="M381 0v665h-75v-665h-40v276h-59q-44 0 -76.5 15.5t-54.5 43.5t-33 66.5t-11 85.5t11 86t33 67.5t54.5 44t76.5 15.5h215v-700h-41z" />
    <glyph glyph-name="periodcentered" unicode="&#xb7;" horiz-adv-x="199" 
d="M56 355q0 19 12.5 33t31.5 14q18 0 30.5 -14t12.5 -33t-12.5 -32.5t-30.5 -13.5q-19 0 -31.5 13.5t-12.5 32.5z" />
    <glyph glyph-name="cedilla" unicode="&#xb8;" horiz-adv-x="225" 
d="M124 -37q20 -2 39 -18.5t19 -49.5q0 -34 -21 -52t-53 -18q-16 0 -27.5 4.5t-19.5 9.5q-10 6 -16 15l15 32q6 -7 13 -12q6 -5 15 -8.5t20 -3.5q36 0 36 34q0 14 -15.5 27t-53.5 13l26 67h38z" />
    <glyph glyph-name="uni00B9" unicode="&#xb9;" horiz-adv-x="179" 
d="M98 492v207q-5 -15 -24.5 -31t-49.5 -16l-6 38q16 0 30.5 7t25 18t17 24.5t7.5 25.5h41v-273h-41z" />
    <glyph glyph-name="ordmasculine" unicode="&#xba;" horiz-adv-x="295" 
d="M147 427q-45 0 -73 35t-28 103q0 67 28 102t73 35t73 -35t28 -102q0 -68 -28 -103t-73 -35zM147 465q26 0 43.5 24.5t17.5 74.5t-17.5 74.5t-43.5 24.5q-25 0 -42.5 -24t-17.5 -75t17 -75t43 -24z" />
    <glyph glyph-name="guillemotright" unicode="&#xbb;" horiz-adv-x="398" 
d="M231 104l-32 38l103 122l-103 123l32 37l120 -134v-52zM82 104l-32 38l104 122l-104 123l32 37l120 -134v-52z" />
    <glyph glyph-name="onequarter" unicode="&#xbc;" horiz-adv-x="443" 
d="M107 427v207q-6 -15 -25 -31t-48 -16l-7 38q17 0 31.5 7t25 18t16.5 24.5t7 25.5h41v-273h-41zM100 0l178 700h47l-176 -700h-49zM346 0v62h-114v30l77 181h44l-73 -175h66v64h41v-64h29v-36h-29v-62h-41z" />
    <glyph glyph-name="onehalf" unicode="&#xbd;" horiz-adv-x="440" 
d="M107 427v207q-6 -15 -25 -31t-48 -16l-7 38q17 0 31.5 7t25 18t16.5 24.5t7 25.5h41v-273h-41zM100 0l178 700h47l-176 -700h-49zM249 0v22q0 24 8.5 40.5t21 28.5t27 21.5t27 20t21 23.5t8.5 33q0 23 -10 35.5t-27 12.5q-13 0 -21 -6t-12 -13.5t-5.5 -14.5t-1.5 -8
l-38 9q0 5 3.5 17t12 24t23.5 21.5t39 9.5q38 0 57.5 -23.5t19.5 -61.5q0 -35 -15.5 -56t-33.5 -36t-33.5 -28.5t-15.5 -33.5v-2h99v-35h-154z" />
    <glyph glyph-name="threequarters" unicode="&#xbe;" horiz-adv-x="469" 
d="M130 0l178 700h47l-177 -700h-48zM96 547v34h21q9 0 19.5 11t10.5 34q0 14 -9 25.5t-27 11.5q-11 0 -17 -4t-11 -9t-8 -12l-35 14q4 14 14 25q8 9 22 17t37 8q21 0 35.5 -6.5t24 -16.5t14 -23t4.5 -26q0 -17 -4.5 -28.5t-10.5 -19t-12 -11t-9 -4.5l11 -5.5t14 -11t12 -20
t5 -31.5q0 -35 -23.5 -55t-61.5 -20q-26 0 -41 7.5t-24 17.5q-11 11 -15 26l25 23q5 -11 12 -20q6 -8 16 -13.5t25 -5.5q21 0 34.5 11.5t13.5 31.5q0 25 -13.5 35t-27.5 10h-21zM373 0v62h-114v30l77 181h44l-74 -175h67v64h41v-64h29v-36h-29v-62h-41z" />
    <glyph glyph-name="questiondown" unicode="&#xbf;" horiz-adv-x="378" 
d="M352 -69q0 -41 -12 -74t-34 -56.5t-51.5 -36.5t-63.5 -13q-43 0 -73.5 15t-50 39.5t-29 57t-9.5 67.5q0 47 11.5 78.5t28.5 56t36.5 46t36.5 48t28.5 62t11.5 88.5h59q0 -59 -11 -99t-27 -68t-35.5 -49t-35.5 -43t-27 -49t-11 -67q0 -54 25 -90.5t74 -36.5q46 0 74 39.5
t28 99.5zM214 419q-17 0 -29.5 13t-12.5 31q0 19 12.5 32t29.5 13t29 -13t12 -32q0 -18 -12 -31t-29 -13z" />
    <glyph glyph-name="Agrave" unicode="&#xc0;" horiz-adv-x="542" 
d="M393 207h-244l-62 -207h-66l218 700h64l219 -700h-67zM168 261h206l-103 350zM235 782l-91 162h77l70 -162h-56z" />
    <glyph glyph-name="Aacute" unicode="&#xc1;" horiz-adv-x="542" 
d="M393 207h-244l-62 -207h-66l218 700h64l219 -700h-67zM168 261h206l-103 350zM248 782l71 162h77l-90 -162h-58z" />
    <glyph glyph-name="Acircumflex" unicode="&#xc2;" horiz-adv-x="542" 
d="M393 207h-244l-62 -207h-66l218 700h64l219 -700h-67zM168 261h206l-103 350zM163 774l74 162h71l73 -162h-56l-53 112l-52 -112h-57z" />
    <glyph glyph-name="Atilde" unicode="&#xc3;" horiz-adv-x="542" 
d="M393 207h-244l-62 -207h-66l218 700h64l219 -700h-67zM168 261h206l-103 350zM156 788q-3 5 -5 12q-5 12 -5 31q0 29 17 49.5t49 20.5q18 0 34 -5.5t30.5 -12t28.5 -12t28 -5.5q20 0 20 22q0 7 -1.5 13t-3.5 11l-4 10h51l4 -12t3 -13.5t1 -16.5q0 -27 -15.5 -46.5
t-47.5 -19.5q-21 0 -37.5 5.5t-31 12.5t-26.5 12.5t-24 5.5q-11 0 -17.5 -7.5t-6.5 -21.5t5 -24q2 -5 5 -9h-51z" />
    <glyph glyph-name="Adieresis" unicode="&#xc4;" horiz-adv-x="542" 
d="M393 207h-244l-62 -207h-66l218 700h64l219 -700h-67zM168 261h206l-103 350zM201 810q-16 0 -27.5 12.5t-11.5 30.5q0 17 11.5 30t27.5 13t27.5 -13t11.5 -30q0 -18 -11.5 -30.5t-27.5 -12.5zM348 810q-16 0 -27.5 12.5t-11.5 30.5q0 17 11.5 30t27.5 13q17 0 28 -13
t11 -30q0 -18 -11 -30.5t-28 -12.5z" />
    <glyph glyph-name="Aring" unicode="&#xc5;" horiz-adv-x="542" 
d="M393 207h-244l-62 -207h-66l218 700h64l219 -700h-67zM168 261h206l-103 350zM273 779q-29 0 -47 21t-18 53t18 53t47 21q28 0 47 -21t19 -53t-19 -53t-47 -21zM306 853q0 17 -9 28t-24 11t-24 -11t-9 -28q0 -18 9 -29t24 -11t24 11t9 29z" />
    <glyph glyph-name="AE" unicode="&#xc6;" horiz-adv-x="698" 
d="M393 207h-244l-62 -207h-66l218 700h420v-56h-335l78 -263h206v-56h-185l78 -269h158v-56h-204zM168 261h206l-103 351z" />
    <glyph glyph-name="Ccedilla" unicode="&#xc7;" horiz-adv-x="534" 
d="M502 113q-19 -32 -47 -58q-24 -22 -60 -40.5t-86 -20.5l-10 -31q20 -2 38.5 -18.5t18.5 -49.5q0 -34 -20.5 -52t-52.5 -18q-17 0 -28.5 4.5t-19.5 9.5q-10 6 -16 15l15 32q6 -7 13 -12q6 -5 15 -8.5t20 -3.5q36 0 36 34q0 14 -15 27t-53 13l22 60q-49 4 -90.5 26.5
t-71.5 65.5t-47 107t-17 153q0 94 18.5 161.5t51 111t77.5 64.5t99 21q47 0 80.5 -14.5t56 -36.5t36.5 -48.5t21 -49.5t9 -40t2 -21l-59 -11q-4 46 -21 82q-7 15 -18 30t-26 26.5t-35 18.5t-46 7q-36 0 -69 -16t-57.5 -52t-39 -93.5t-14.5 -139.5q0 -84 16.5 -141
t43.5 -91.5t62 -49.5t72 -15q38 0 67.5 16t49.5 36q23 23 40 53z" />
    <glyph glyph-name="Egrave" unicode="&#xc8;" horiz-adv-x="463" 
d="M75 0v700h346v-56h-282v-268h238v-55h-238v-265h282v-56h-346zM236 782l-91 162h77l70 -162h-56z" />
    <glyph glyph-name="Eacute" unicode="&#xc9;" horiz-adv-x="463" 
d="M227 782l71 162h77l-90 -162h-58zM75 0v700h346v-56h-282v-268h238v-55h-238v-265h282v-56h-346z" />
    <glyph glyph-name="Ecircumflex" unicode="&#xca;" horiz-adv-x="463" 
d="M157 774l74 162h71l73 -162h-56l-53 112l-52 -112h-57zM75 0v700h346v-56h-282v-268h238v-55h-238v-265h282v-56h-346z" />
    <glyph glyph-name="Edieresis" unicode="&#xcb;" horiz-adv-x="463" 
d="M194 810q-16 0 -27.5 12.5t-11.5 30.5q0 17 11.5 30t27.5 13t27.5 -13t11.5 -30q0 -18 -11.5 -30.5t-27.5 -12.5zM341 810q-16 0 -27.5 12.5t-11.5 30.5q0 17 11.5 30t27.5 13q17 0 28 -13t11 -30q0 -18 -11 -30.5t-28 -12.5zM75 0v700h346v-56h-282v-268h238v-55h-238
v-265h282v-56h-346z" />
    <glyph glyph-name="Igrave" unicode="&#xcc;" horiz-adv-x="213" 
d="M75 0v700h64v-700h-64zM83 782l-91 162h77l70 -162h-56z" />
    <glyph glyph-name="Iacute" unicode="&#xcd;" horiz-adv-x="213" 
d="M75 0v700h64v-700h-64zM75 782l71 162h77l-90 -162h-58z" />
    <glyph glyph-name="Icircumflex" unicode="&#xce;" horiz-adv-x="213" 
d="M75 0v700h64v-700h-64zM-6 774l74 162h71l73 -162h-56l-53 112l-52 -112h-57z" />
    <glyph glyph-name="Idieresis" unicode="&#xcf;" horiz-adv-x="213" 
d="M75 0v700h64v-700h-64zM31 796q-16 0 -27.5 12.5t-11.5 30.5q0 17 11.5 30t27.5 13t27.5 -13t11.5 -30q0 -18 -11.5 -30.5t-27.5 -12.5zM178 796q-16 0 -27.5 12.5t-11.5 30.5q0 17 11.5 30t27.5 13q17 0 28 -13t11 -30q0 -18 -11 -30.5t-28 -12.5z" />
    <glyph glyph-name="Eth" unicode="&#xd0;" horiz-adv-x="555" 
d="M75 0v700h150q58 0 110 -20.5t90 -63.5t60.5 -111t22.5 -162q0 -89 -19 -153.5t-52.5 -106.5t-80 -62.5t-101.5 -20.5h-180zM254 56q43 0 77.5 17.5t59.5 53t38.5 89.5t13.5 127q0 79 -16 135.5t-44.5 93.5t-68.5 54.5t-89 17.5h-86v-270h178v-50h-178v-268h115z" />
    <glyph glyph-name="Ntilde" unicode="&#xd1;" horiz-adv-x="569" 
d="M421 0l-282 584v-584h-64v700h73l282 -593v593h65v-700h-74zM172 788q-3 5 -5 12q-5 12 -5 31q0 29 17 49.5t49 20.5q18 0 34 -5.5t30.5 -12t28.5 -12t28 -5.5q20 0 20 22q0 7 -1.5 13t-3.5 11l-4 10h51l4 -12t3 -13.5t1 -16.5q0 -27 -15.5 -46.5t-47.5 -19.5
q-21 0 -37.5 5.5t-31 12.5t-26.5 12.5t-24 5.5q-11 0 -17.5 -7.5t-6.5 -21.5t5 -24q2 -5 5 -9h-51z" />
    <glyph glyph-name="Ograve" unicode="&#xd2;" horiz-adv-x="589" 
d="M295 -6q-49 0 -94 19.5t-79.5 62t-55 110t-20.5 163.5t20.5 164t55 110.5t79.5 62.5t94 20t93.5 -20t79 -62.5t55 -110.5t20.5 -164t-20.5 -163.5t-55 -110t-79 -62t-93.5 -19.5zM295 51q35 0 68 16t58.5 51t40.5 92t15 139q0 83 -15 140.5t-40.5 93t-58.5 51t-68 15.5
q-36 0 -68.5 -15.5t-58 -51t-40.5 -93t-15 -140.5q0 -82 15 -139t40.5 -92t58 -51t68.5 -16zM274 782l-91 162h77l70 -162h-56z" />
    <glyph glyph-name="Oacute" unicode="&#xd3;" horiz-adv-x="589" 
d="M252 782l71 162h77l-90 -162h-58zM295 -6q-49 0 -94 19.5t-79.5 62t-55 110t-20.5 163.5t20.5 164t55 110.5t79.5 62.5t94 20t93.5 -20t79 -62.5t55 -110.5t20.5 -164t-20.5 -163.5t-55 -110t-79 -62t-93.5 -19.5zM295 51q35 0 68 16t58.5 51t40.5 92t15 139
q0 83 -15 140.5t-40.5 93t-58.5 51t-68 15.5q-36 0 -68.5 -15.5t-58 -51t-40.5 -93t-15 -140.5q0 -82 15 -139t40.5 -92t58 -51t68.5 -16z" />
    <glyph glyph-name="Ocircumflex" unicode="&#xd4;" horiz-adv-x="589" 
d="M189 774l74 162h71l73 -162h-56l-53 112l-52 -112h-57zM295 -6q-49 0 -94 19.5t-79.5 62t-55 110t-20.5 163.5t20.5 164t55 110.5t79.5 62.5t94 20t93.5 -20t79 -62.5t55 -110.5t20.5 -164t-20.5 -163.5t-55 -110t-79 -62t-93.5 -19.5zM295 51q35 0 68 16t58.5 51
t40.5 92t15 139q0 83 -15 140.5t-40.5 93t-58.5 51t-68 15.5q-36 0 -68.5 -15.5t-58 -51t-40.5 -93t-15 -140.5q0 -82 15 -139t40.5 -92t58 -51t68.5 -16z" />
    <glyph glyph-name="Otilde" unicode="&#xd5;" horiz-adv-x="589" 
d="M295 -6q-49 0 -94 19.5t-79.5 62t-55 110t-20.5 163.5t20.5 164t55 110.5t79.5 62.5t94 20t93.5 -20t79 -62.5t55 -110.5t20.5 -164t-20.5 -163.5t-55 -110t-79 -62t-93.5 -19.5zM295 51q35 0 68 16t58.5 51t40.5 92t15 139q0 83 -15 140.5t-40.5 93t-58.5 51t-68 15.5
q-36 0 -68.5 -15.5t-58 -51t-40.5 -93t-15 -140.5q0 -82 15 -139t40.5 -92t58 -51t68.5 -16zM180 788q-3 5 -5 12q-5 12 -5 31q0 29 17 49.5t49 20.5q18 0 34 -5.5t30.5 -12t28.5 -12t28 -5.5q20 0 20 22q0 7 -1.5 13t-3.5 11l-4 10h51l4 -12t3 -13.5t1 -16.5
q0 -27 -15.5 -46.5t-47.5 -19.5q-21 0 -37.5 5.5t-31 12.5t-26.5 12.5t-24 5.5q-11 0 -17.5 -7.5t-6.5 -21.5t5 -24q2 -5 5 -9h-51z" />
    <glyph glyph-name="Odieresis" unicode="&#xd6;" horiz-adv-x="589" 
d="M222 810q-16 0 -27.5 12.5t-11.5 30.5q0 17 11.5 30t27.5 13t27.5 -13t11.5 -30q0 -18 -11.5 -30.5t-27.5 -12.5zM369 810q-16 0 -27.5 12.5t-11.5 30.5q0 17 11.5 30t27.5 13q17 0 28 -13t11 -30q0 -18 -11 -30.5t-28 -12.5zM295 -6q-49 0 -94 19.5t-79.5 62t-55 110
t-20.5 163.5t20.5 164t55 110.5t79.5 62.5t94 20t93.5 -20t79 -62.5t55 -110.5t20.5 -164t-20.5 -163.5t-55 -110t-79 -62t-93.5 -19.5zM295 51q35 0 68 16t58.5 51t40.5 92t15 139q0 83 -15 140.5t-40.5 93t-58.5 51t-68 15.5q-36 0 -68.5 -15.5t-58 -51t-40.5 -93
t-15 -140.5q0 -82 15 -139t40.5 -92t58 -51t68.5 -16z" />
    <glyph glyph-name="multiply" unicode="&#xd7;" horiz-adv-x="388" 
d="M227 274l107 -126l-34 -34l-107 126l-105 -126l-34 34l106 126l-106 125l34 35l105 -126l107 126l34 -35z" />
    <glyph glyph-name="Oslash" unicode="&#xd8;" horiz-adv-x="588" 
d="M530 716l-56 -101q32 -43 50.5 -108.5t18.5 -157.5q0 -96 -20.5 -163.5t-55 -110t-79 -62t-93.5 -19.5q-38 0 -74 11.5t-67 36.5l-32 -58h-66l57 102q-31 43 -49 107.5t-18 155.5q0 96 20.5 164t55 110.5t79.5 62.5t94 20q38 0 72.5 -11.5t65.5 -36.5l32 58h65zM295 51
q35 0 68 16t58.5 51t40.5 92t15 139q0 68 -10.5 118t-27.5 85l-254 -455q23 -24 51.5 -35t58.5 -11zM113 349q0 -66 9.5 -115t26.5 -84l253 454q-23 23 -50.5 34t-56.5 11q-36 0 -68.5 -15.5t-58 -51t-40.5 -93t-15 -140.5z" />
    <glyph glyph-name="Ugrave" unicode="&#xd9;" horiz-adv-x="566" 
d="M432 700h64v-414q0 -84 -16 -140t-44.5 -89.5t-67.5 -48t-85 -14.5q-45 0 -84.5 14.5t-68.5 48t-45.5 89.5t-16.5 140v414h65v-418q0 -125 39.5 -178t110.5 -53q35 0 63 12.5t47 40.5t29 71.5t10 106.5v418zM253 782l-91 162h77l70 -162h-56z" />
    <glyph glyph-name="Uacute" unicode="&#xda;" horiz-adv-x="566" 
d="M240 782l71 162h77l-90 -162h-58zM432 700h64v-414q0 -84 -16 -140t-44.5 -89.5t-67.5 -48t-85 -14.5q-45 0 -84.5 14.5t-68.5 48t-45.5 89.5t-16.5 140v414h65v-418q0 -125 39.5 -178t110.5 -53q35 0 63 12.5t47 40.5t29 71.5t10 106.5v418z" />
    <glyph glyph-name="Ucircumflex" unicode="&#xdb;" horiz-adv-x="566" 
d="M170 774l74 162h71l73 -162h-56l-53 112l-52 -112h-57zM432 700h64v-414q0 -84 -16 -140t-44.5 -89.5t-67.5 -48t-85 -14.5q-45 0 -84.5 14.5t-68.5 48t-45.5 89.5t-16.5 140v414h65v-418q0 -125 39.5 -178t110.5 -53q35 0 63 12.5t47 40.5t29 71.5t10 106.5v418z" />
    <glyph glyph-name="Udieresis" unicode="&#xdc;" horiz-adv-x="566" 
d="M208 810q-16 0 -27.5 12.5t-11.5 30.5q0 17 11.5 30t27.5 13t27.5 -13t11.5 -30q0 -18 -11.5 -30.5t-27.5 -12.5zM355 810q-16 0 -27.5 12.5t-11.5 30.5q0 17 11.5 30t27.5 13q17 0 28 -13t11 -30q0 -18 -11 -30.5t-28 -12.5zM432 700h64v-414q0 -84 -16 -140
t-44.5 -89.5t-67.5 -48t-85 -14.5q-45 0 -84.5 14.5t-68.5 48t-45.5 89.5t-16.5 140v414h65v-418q0 -125 39.5 -178t110.5 -53q35 0 63 12.5t47 40.5t29 71.5t10 106.5v418z" />
    <glyph glyph-name="Yacute" unicode="&#xdd;" horiz-adv-x="527" 
d="M231 0v307l-211 393h77l167 -335l166 335h77l-212 -393v-307h-64zM227 782l71 162h77l-90 -162h-58z" />
    <glyph glyph-name="Thorn" unicode="&#xde;" horiz-adv-x="499" 
d="M75 0v700h64v-119h118q98 0 153 -54.5t55 -165.5q0 -54 -14.5 -94t-41 -66.5t-63 -39t-81.5 -12.5h-126v-149h-64zM255 204q73 0 108.5 40.5t35.5 116.5q0 75 -35.5 119.5t-110.5 44.5h-114v-321h116z" />
    <glyph glyph-name="germandbls" unicode="&#xdf;" horiz-adv-x="446" 
d="M176 54q8 -4 19 -8q9 -3 22 -5t29 -2q51 0 79.5 28t28.5 85q0 32 -10.5 55.5t-26 41.5t-34 31.5t-34 26t-26 26t-10.5 30.5q0 22 14.5 39t32 38t32 49t14.5 72q0 24 -5.5 46.5t-16.5 40t-28 28t-41 10.5q-43 0 -67 -36t-24 -103v-547h-62v557q0 82 37.5 132t114.5 50
q37 0 65.5 -13.5t48 -36.5t30 -53t10.5 -62q0 -49 -14.5 -82t-32.5 -56t-32.5 -39t-14.5 -31q0 -11 10.5 -20.5t26 -20.5t34 -26t34 -36.5t26 -52t10.5 -72.5q0 -39 -12 -68t-33.5 -47.5t-50.5 -27.5t-62 -9q-23 0 -40.5 2.5t-28.5 5.5q-14 4 -23 9z" />
    <glyph glyph-name="agrave" unicode="&#xe0;" horiz-adv-x="426" 
d="M396 2q-3 -1 -7 -2q-10 -2 -21 -2q-27 0 -45 18t-18 56v26q-5 -15 -15.5 -33.5t-28 -34t-41.5 -26t-57 -10.5q-61 0 -94.5 32.5t-33.5 90.5q0 60 37.5 93.5t119.5 33.5h108v78q0 59 -24 85.5t-69 26.5q-46 0 -69 -25.5t-23 -66.5q0 -11 1 -19t3 -13q2 -6 4 -11h-57
q-3 5 -5 13q-2 7 -3 17t-1 24q0 57 39 96t112 39q154 0 154 -168v-219q0 -26 7 -40t27 -14v-45zM300 198h-108q-45 0 -69 -19.5t-24 -56.5t21.5 -57.5t58.5 -20.5q35 0 58.5 20t37.5 45q16 28 25 65v24zM182 564l-91 162h77l70 -162h-56z" />
    <glyph glyph-name="aacute" unicode="&#xe1;" horiz-adv-x="426" 
d="M396 2q-3 -1 -7 -2q-10 -2 -21 -2q-27 0 -45 18t-18 56v26q-5 -15 -15.5 -33.5t-28 -34t-41.5 -26t-57 -10.5q-61 0 -94.5 32.5t-33.5 90.5q0 60 37.5 93.5t119.5 33.5h108v78q0 59 -24 85.5t-69 26.5q-46 0 -69 -25.5t-23 -66.5q0 -11 1 -19t3 -13q2 -6 4 -11h-57
q-3 5 -5 13q-2 7 -3 17t-1 24q0 57 39 96t112 39q154 0 154 -168v-219q0 -26 7 -40t27 -14v-45zM300 198h-108q-45 0 -69 -19.5t-24 -56.5t21.5 -57.5t58.5 -20.5q35 0 58.5 20t37.5 45q16 28 25 65v24zM167 564l71 162h77l-90 -162h-58z" />
    <glyph glyph-name="acircumflex" unicode="&#xe2;" horiz-adv-x="426" 
d="M396 2q-3 -1 -7 -2q-10 -2 -21 -2q-27 0 -45 18t-18 56v26q-5 -15 -15.5 -33.5t-28 -34t-41.5 -26t-57 -10.5q-61 0 -94.5 32.5t-33.5 90.5q0 60 37.5 93.5t119.5 33.5h108v78q0 59 -24 85.5t-69 26.5q-46 0 -69 -25.5t-23 -66.5q0 -11 1 -19t3 -13q2 -6 4 -11h-57
q-3 5 -5 13q-2 7 -3 17t-1 24q0 57 39 96t112 39q154 0 154 -168v-219q0 -26 7 -40t27 -14v-45zM300 198h-108q-45 0 -69 -19.5t-24 -56.5t21.5 -57.5t58.5 -20.5q35 0 58.5 20t37.5 45q16 28 25 65v24zM102 556l74 162h71l73 -162h-56l-53 112l-52 -112h-57z" />
    <glyph glyph-name="atilde" unicode="&#xe3;" horiz-adv-x="426" 
d="M396 2q-3 -1 -7 -2q-10 -2 -21 -2q-27 0 -45 18t-18 56v26q-5 -15 -15.5 -33.5t-28 -34t-41.5 -26t-57 -10.5q-61 0 -94.5 32.5t-33.5 90.5q0 60 37.5 93.5t119.5 33.5h108v78q0 59 -24 85.5t-69 26.5q-46 0 -69 -25.5t-23 -66.5q0 -11 1 -19t3 -13q2 -6 4 -11h-57
q-3 5 -5 13q-2 7 -3 17t-1 24q0 57 39 96t112 39q154 0 154 -168v-219q0 -26 7 -40t27 -14v-45zM300 198h-108q-45 0 -69 -19.5t-24 -56.5t21.5 -57.5t58.5 -20.5q35 0 58.5 20t37.5 45q16 28 25 65v24zM83 570q-3 5 -5 12q-5 12 -5 31q0 29 17 49.5t49 20.5q18 0 34 -5.5
t30.5 -12t28.5 -12t28 -5.5q20 0 20 22q0 7 -1.5 13t-3.5 11l-4 10h51l4 -12t3 -13.5t1 -16.5q0 -27 -15.5 -46.5t-47.5 -19.5q-21 0 -37.5 5.5t-31 12.5t-26.5 12.5t-24 5.5q-11 0 -17.5 -7.5t-6.5 -21.5t5 -24q2 -5 5 -9h-51z" />
    <glyph glyph-name="adieresis" unicode="&#xe4;" horiz-adv-x="426" 
d="M396 2q-3 -1 -7 -2q-10 -2 -21 -2q-27 0 -45 18t-18 56v26q-5 -15 -15.5 -33.5t-28 -34t-41.5 -26t-57 -10.5q-61 0 -94.5 32.5t-33.5 90.5q0 60 37.5 93.5t119.5 33.5h108v78q0 59 -24 85.5t-69 26.5q-46 0 -69 -25.5t-23 -66.5q0 -11 1 -19t3 -13q2 -6 4 -11h-57
q-3 5 -5 13q-2 7 -3 17t-1 24q0 57 39 96t112 39q154 0 154 -168v-219q0 -26 7 -40t27 -14v-45zM300 198h-108q-45 0 -69 -19.5t-24 -56.5t21.5 -57.5t58.5 -20.5q35 0 58.5 20t37.5 45q16 28 25 65v24zM138 592q-16 0 -27.5 12.5t-11.5 30.5q0 17 11.5 30t27.5 13t27.5 -13
t11.5 -30q0 -18 -11.5 -30.5t-27.5 -12.5zM285 592q-16 0 -27.5 12.5t-11.5 30.5q0 17 11.5 30t27.5 13q17 0 28 -13t11 -30q0 -18 -11 -30.5t-28 -12.5z" />
    <glyph glyph-name="aring" unicode="&#xe5;" horiz-adv-x="426" 
d="M396 2q-3 -1 -7 -2q-10 -2 -21 -2q-27 0 -45 18t-18 56v26q-5 -15 -15.5 -33.5t-28 -34t-41.5 -26t-57 -10.5q-61 0 -94.5 32.5t-33.5 90.5q0 60 37.5 93.5t119.5 33.5h108v78q0 59 -24 85.5t-69 26.5q-46 0 -69 -25.5t-23 -66.5q0 -11 1 -19t3 -13q2 -6 4 -11h-57
q-3 5 -5 13q-2 7 -3 17t-1 24q0 57 39 96t112 39q154 0 154 -168v-219q0 -26 7 -40t27 -14v-45zM300 198h-108q-45 0 -69 -19.5t-24 -56.5t21.5 -57.5t58.5 -20.5q35 0 58.5 20t37.5 45q16 28 25 65v24zM212 561q-29 0 -47 21t-18 53t18 53t47 21q28 0 47 -21t19 -53
t-19 -53t-47 -21zM245 635q0 17 -9 28t-24 11t-24 -11t-9 -28q0 -18 9 -29t24 -11t24 11t9 29z" />
    <glyph glyph-name="ae" unicode="&#xe6;" horiz-adv-x="671" 
d="M362 245v-12q1 -56 13.5 -92t31 -57t40 -29t40.5 -8q28 0 48 10.5t34 24.5q16 15 26 35l35 -36q-13 -25 -34 -44q-18 -17 -46.5 -30t-70.5 -13q-24 0 -48 6t-45 20t-38 36t-29 54q-3 -9 -12.5 -28t-28 -38.5t-47 -34.5t-68.5 -15q-61 0 -94.5 32.5t-33.5 90.5
q0 60 37.5 93.5t119.5 33.5h108v78q0 59 -24 85.5t-69 26.5q-46 0 -69 -25.5t-23 -66.5q0 -11 1 -19t3 -13q2 -6 4 -11h-57q-3 5 -5 13q-2 7 -3 17t-1 24q0 57 39 96t112 39q49 0 82 -20.5t51 -54.5q23 35 56.5 55t78.5 20q42 0 71 -16.5t47 -46t26 -69t8 -84.5v-27h-266z
M300 198h-108q-45 0 -69 -19.5t-24 -56.5t21.5 -57.5t58.5 -20.5q35 0 58.5 20t37.5 45q16 28 25 65v24zM569 290q0 30 -5 56.5t-16.5 46t-30 31t-44.5 11.5q-44 0 -73.5 -34t-35.5 -111h205z" />
    <glyph glyph-name="ccedilla" unicode="&#xe7;" horiz-adv-x="409" 
d="M372 81q-13 -23 -31 -41q-16 -16 -41.5 -29.5t-61.5 -15.5l-12 -32q20 -2 39 -18.5t19 -49.5q0 -34 -21 -52t-53 -18q-16 0 -28 4.5t-20 9.5q-10 6 -16 15l15 32q5 -7 13 -12q6 -5 15.5 -8.5t20.5 -3.5q17 0 26.5 9t9.5 25q0 14 -15 27t-53 13l21 60q-31 3 -59.5 18
t-50 44t-34.5 74t-13 109q0 128 48 187.5t131 59.5q39 0 66 -12.5t44.5 -32.5t25.5 -46t8 -54q0 -11 -1 -20t-2 -15q-1 -7 -2 -13h-57l2 12q1 5 1.5 11.5t0.5 14.5q0 17 -4 35t-13.5 33t-26.5 24.5t-42 9.5q-53 0 -85.5 -45t-32.5 -148q0 -59 12.5 -97t31 -59.5t40.5 -30
t42 -8.5q28 0 48 10.5t34 24.5q16 15 26 35z" />
    <glyph glyph-name="egrave" unicode="&#xe8;" horiz-adv-x="413" 
d="M104 245v-12q1 -56 13.5 -92t31 -57t40 -29t40.5 -8q28 0 48 10.5t34 24.5q16 15 26 35l35 -36q-13 -25 -34 -44q-18 -17 -46.5 -30t-70.5 -13q-34 0 -66.5 12.5t-57.5 41.5t-40 76.5t-15 116.5q0 129 46.5 188t129.5 59q42 0 71 -16.5t47 -46t26 -69t8 -84.5v-27h-266z
M311 290q0 30 -5 56.5t-16.5 46t-30 31t-44.5 11.5q-44 0 -73.5 -34t-35.5 -111h205zM183 564l-91 162h77l70 -162h-56z" />
    <glyph glyph-name="eacute" unicode="&#xe9;" horiz-adv-x="413" 
d="M177 564l71 162h77l-90 -162h-58zM104 245v-12q1 -56 13.5 -92t31 -57t40 -29t40.5 -8q28 0 48 10.5t34 24.5q16 15 26 35l35 -36q-13 -25 -34 -44q-18 -17 -46.5 -30t-70.5 -13q-34 0 -66.5 12.5t-57.5 41.5t-40 76.5t-15 116.5q0 129 46.5 188t129.5 59q42 0 71 -16.5
t47 -46t26 -69t8 -84.5v-27h-266zM311 290q0 30 -5 56.5t-16.5 46t-30 31t-44.5 11.5q-44 0 -73.5 -34t-35.5 -111h205z" />
    <glyph glyph-name="ecircumflex" unicode="&#xea;" horiz-adv-x="413" 
d="M107 556l74 162h71l73 -162h-56l-53 112l-52 -112h-57zM104 245v-12q1 -56 13.5 -92t31 -57t40 -29t40.5 -8q28 0 48 10.5t34 24.5q16 15 26 35l35 -36q-13 -25 -34 -44q-18 -17 -46.5 -30t-70.5 -13q-34 0 -66.5 12.5t-57.5 41.5t-40 76.5t-15 116.5q0 129 46.5 188
t129.5 59q42 0 71 -16.5t47 -46t26 -69t8 -84.5v-27h-266zM311 290q0 30 -5 56.5t-16.5 46t-30 31t-44.5 11.5q-44 0 -73.5 -34t-35.5 -111h205z" />
    <glyph glyph-name="edieresis" unicode="&#xeb;" horiz-adv-x="413" 
d="M146 592q-16 0 -27.5 12.5t-11.5 30.5q0 17 11.5 30t27.5 13t27.5 -13t11.5 -30q0 -18 -11.5 -30.5t-27.5 -12.5zM293 592q-16 0 -27.5 12.5t-11.5 30.5q0 17 11.5 30t27.5 13q17 0 28 -13t11 -30q0 -18 -11 -30.5t-28 -12.5zM104 245v-12q1 -56 13.5 -92t31 -57t40 -29
t40.5 -8q28 0 48 10.5t34 24.5q16 15 26 35l35 -36q-13 -25 -34 -44q-18 -17 -46.5 -30t-70.5 -13q-34 0 -66.5 12.5t-57.5 41.5t-40 76.5t-15 116.5q0 129 46.5 188t129.5 59q42 0 71 -16.5t47 -46t26 -69t8 -84.5v-27h-266zM311 290q0 30 -5 56.5t-16.5 46t-30 31
t-44.5 11.5q-44 0 -73.5 -34t-35.5 -111h205z" />
    <glyph glyph-name="igrave" unicode="&#xec;" horiz-adv-x="193" 
d="M157 1q-3 -1 -7 -2q-5 -1 -21 -1q-32 0 -51 21.5t-19 72.5v390h63v-384q0 -25 7.5 -37.5t27.5 -12.5v-47zM62 564l-91 162h77l70 -162h-56z" />
    <glyph glyph-name="iacute" unicode="&#xed;" horiz-adv-x="193" 
d="M157 1q-3 -1 -7 -2q-5 -1 -21 -1q-32 0 -51 21.5t-19 72.5v390h63v-384q0 -25 7.5 -37.5t27.5 -12.5v-47zM58 564l71 162h77l-90 -162h-58z" />
    <glyph glyph-name="icircumflex" unicode="&#xee;" horiz-adv-x="193" 
d="M157 1q-3 -1 -7 -2q-5 -1 -21 -1q-32 0 -51 21.5t-19 72.5v390h63v-384q0 -25 7.5 -37.5t27.5 -12.5v-47zM-18 556l74 162h71l73 -162h-56l-53 112l-52 -112h-57z" />
    <glyph glyph-name="idieresis" unicode="&#xef;" horiz-adv-x="193" 
d="M157 1q-3 -1 -7 -2q-5 -1 -21 -1q-32 0 -51 21.5t-19 72.5v390h63v-384q0 -25 7.5 -37.5t27.5 -12.5v-47zM21 592q-16 0 -27.5 12.5t-11.5 30.5q0 17 11.5 30t27.5 13t27.5 -13t11.5 -30q0 -18 -11.5 -30.5t-27.5 -12.5zM168 592q-16 0 -27.5 12.5t-11.5 30.5
q0 17 11.5 30t27.5 13q17 0 28 -13t11 -30q0 -18 -11 -30.5t-28 -12.5z" />
    <glyph glyph-name="eth" unicode="&#xf0;" horiz-adv-x="488" 
d="M426 675l-74 -55q42 -45 67 -117.5t25 -178.5q0 -77 -14 -138.5t-40 -104t-65 -65t-88 -22.5q-93 0 -144 59.5t-51 166.5q0 54 15 94.5t41.5 67.5t61 40.5t73.5 13.5q35 0 63 -12.5t47 -26.5q22 -17 39 -38q-2 84 -22.5 139.5t-52.5 88.5l-106 -77l-26 42l92 66
q-25 15 -52 22t-56 7v54q42 0 81.5 -11.5t74.5 -36.5l87 62zM380 283q-16 28 -37 50q-18 19 -44.5 35t-58.5 16q-63 0 -99.5 -42.5t-36.5 -121.5q0 -80 36.5 -126.5t96.5 -46.5t99 59t44 177z" />
    <glyph glyph-name="ntilde" unicode="&#xf1;" horiz-adv-x="462" 
d="M106 570q-3 5 -5 12q-5 12 -5 31q0 29 17 49.5t49 20.5q18 0 34 -5.5t30.5 -12t28.5 -12t28 -5.5q20 0 20 22q0 7 -1.5 13t-3.5 11l-4 10h51l4 -12t3 -13.5t1 -16.5q0 -27 -15.5 -46.5t-47.5 -19.5q-21 0 -37.5 5.5t-31 12.5t-26.5 12.5t-24 5.5q-11 0 -17.5 -7.5
t-6.5 -21.5t5 -24q2 -5 5 -9h-51zM433 1q-3 -1 -7 -2q-5 -1 -21 -1q-32 0 -51 21.5t-19 72.5v208q0 57 -23 96t-72 39q-27 0 -47.5 -15.5t-33.5 -39t-19.5 -52t-6.5 -53.5v-275h-62v385q0 23 -7 36t-27 13v47q3 0 7 1t9 1.5t13 0.5q24 0 42.5 -18t18.5 -54v-39q4 23 14.5 44
t26 36.5t37.5 25t51 9.5q38 0 65 -15t44 -40.5t25 -59.5t8 -73v-202q0 -25 7.5 -37.5t27.5 -12.5v-47z" />
    <glyph glyph-name="ograve" unicode="&#xf2;" horiz-adv-x="437" 
d="M218 -6q-80 0 -128 63.5t-48 183.5t48 183.5t128 63.5q81 0 129.5 -63.5t48.5 -183.5t-48.5 -183.5t-129.5 -63.5zM218 47q51 0 83.5 47.5t32.5 146.5t-32.5 146.5t-83.5 47.5q-50 0 -82.5 -47.5t-32.5 -146.5t32.5 -146.5t82.5 -47.5zM191 564l-91 162h77l70 -162h-56z
" />
    <glyph glyph-name="oacute" unicode="&#xf3;" horiz-adv-x="437" 
d="M182 564l71 162h77l-90 -162h-58zM218 -6q-80 0 -128 63.5t-48 183.5t48 183.5t128 63.5q81 0 129.5 -63.5t48.5 -183.5t-48.5 -183.5t-129.5 -63.5zM218 47q51 0 83.5 47.5t32.5 146.5t-32.5 146.5t-83.5 47.5q-50 0 -82.5 -47.5t-32.5 -146.5t32.5 -146.5t82.5 -47.5z
" />
    <glyph glyph-name="ocircumflex" unicode="&#xf4;" horiz-adv-x="437" 
d="M109 556l74 162h71l73 -162h-56l-53 112l-52 -112h-57zM218 -6q-80 0 -128 63.5t-48 183.5t48 183.5t128 63.5q81 0 129.5 -63.5t48.5 -183.5t-48.5 -183.5t-129.5 -63.5zM218 47q51 0 83.5 47.5t32.5 146.5t-32.5 146.5t-83.5 47.5q-50 0 -82.5 -47.5t-32.5 -146.5
t32.5 -146.5t82.5 -47.5z" />
    <glyph glyph-name="otilde" unicode="&#xf5;" horiz-adv-x="437" 
d="M218 -6q-80 0 -128 63.5t-48 183.5t48 183.5t128 63.5q81 0 129.5 -63.5t48.5 -183.5t-48.5 -183.5t-129.5 -63.5zM218 47q51 0 83.5 47.5t32.5 146.5t-32.5 146.5t-83.5 47.5q-50 0 -82.5 -47.5t-32.5 -146.5t32.5 -146.5t82.5 -47.5zM94 570q-3 5 -5 12q-5 12 -5 31
q0 29 17 49.5t49 20.5q18 0 34 -5.5t30.5 -12t28.5 -12t28 -5.5q20 0 20 22q0 7 -1.5 13t-3.5 11l-4 10h51l4 -12t3 -13.5t1 -16.5q0 -27 -15.5 -46.5t-47.5 -19.5q-21 0 -37.5 5.5t-31 12.5t-26.5 12.5t-24 5.5q-11 0 -17.5 -7.5t-6.5 -21.5t5 -24q2 -5 5 -9h-51z" />
    <glyph glyph-name="odieresis" unicode="&#xf6;" horiz-adv-x="437" 
d="M148 592q-16 0 -27.5 12.5t-11.5 30.5q0 17 11.5 30t27.5 13t27.5 -13t11.5 -30q0 -18 -11.5 -30.5t-27.5 -12.5zM295 592q-16 0 -27.5 12.5t-11.5 30.5q0 17 11.5 30t27.5 13q17 0 28 -13t11 -30q0 -18 -11 -30.5t-28 -12.5zM218 -6q-80 0 -128 63.5t-48 183.5t48 183.5
t128 63.5q81 0 129.5 -63.5t48.5 -183.5t-48.5 -183.5t-129.5 -63.5zM218 47q51 0 83.5 47.5t32.5 146.5t-32.5 146.5t-83.5 47.5q-50 0 -82.5 -47.5t-32.5 -146.5t32.5 -146.5t82.5 -47.5z" />
    <glyph glyph-name="divide" unicode="&#xf7;" horiz-adv-x="396" 
d="M153 138q0 20 14 35.5t34 15.5t34 -15.5t14 -35.5q0 -21 -14 -36.5t-34 -15.5t-34 15.5t-14 36.5zM52 257v48h292v-48h-292zM153 419q0 20 13.5 34.5t32.5 14.5q20 0 33 -14.5t13 -34.5q0 -21 -13 -36t-33 -15q-19 0 -32.5 15t-13.5 36z" />
    <glyph glyph-name="oslash" unicode="&#xf8;" horiz-adv-x="437" 
d="M387 503l-42 -77q24 -32 37.5 -78t13.5 -107q0 -120 -48.5 -183.5t-129.5 -63.5q-54 0 -92 28l-22 -42h-51l40 74q-51 65 -51 187q0 120 48 183.5t128 63.5q55 0 94 -30l25 45h50zM103 241q0 -41 5.5 -72.5t16.5 -54.5l160 293q-28 28 -67 28q-50 0 -82.5 -47.5
t-32.5 -146.5zM218 47q51 0 83.5 47.5t32.5 146.5q0 39 -5.5 70t-16.5 54l-158 -293q26 -25 64 -25z" />
    <glyph glyph-name="ugrave" unicode="&#xf9;" 
d="M417 1q-3 -1 -7 -2t-9.5 -1h-12.5q-28 0 -45 18t-17 60v19q-14 -41 -48.5 -71t-91.5 -30q-63 0 -95 41t-32 128v319h62v-312q0 -68 23.5 -95.5t61.5 -27.5q30 0 51.5 16t35.5 39.5t20.5 48.5t6.5 43v288h62v-383q0 -25 7 -38t28 -13v-47zM203 564l-91 162h77l70 -162h-56
z" />
    <glyph glyph-name="uacute" unicode="&#xfa;" 
d="M171 564l71 162h77l-90 -162h-58zM417 1q-3 -1 -7 -2t-9.5 -1h-12.5q-28 0 -45 18t-17 60v19q-14 -41 -48.5 -71t-91.5 -30q-63 0 -95 41t-32 128v319h62v-312q0 -68 23.5 -95.5t61.5 -27.5q30 0 51.5 16t35.5 39.5t20.5 48.5t6.5 43v288h62v-383q0 -25 7 -38t28 -13v-47
z" />
    <glyph glyph-name="ucircumflex" unicode="&#xfb;" 
d="M111 556l74 162h71l73 -162h-56l-53 112l-52 -112h-57zM417 1q-3 -1 -7 -2t-9.5 -1h-12.5q-28 0 -45 18t-17 60v19q-14 -41 -48.5 -71t-91.5 -30q-63 0 -95 41t-32 128v319h62v-312q0 -68 23.5 -95.5t61.5 -27.5q30 0 51.5 16t35.5 39.5t20.5 48.5t6.5 43v288h62v-383
q0 -25 7 -38t28 -13v-47z" />
    <glyph glyph-name="udieresis" unicode="&#xfc;" 
d="M151 592q-16 0 -27.5 12.5t-11.5 30.5q0 17 11.5 30t27.5 13t27.5 -13t11.5 -30q0 -18 -11.5 -30.5t-27.5 -12.5zM298 592q-16 0 -27.5 12.5t-11.5 30.5q0 17 11.5 30t27.5 13q17 0 28 -13t11 -30q0 -18 -11 -30.5t-28 -12.5zM417 1q-3 -1 -7 -2t-9.5 -1h-12.5
q-28 0 -45 18t-17 60v19q-14 -41 -48.5 -71t-91.5 -30q-63 0 -95 41t-32 128v319h62v-312q0 -68 23.5 -95.5t61.5 -27.5q30 0 51.5 16t35.5 39.5t20.5 48.5t6.5 43v288h62v-383q0 -25 7 -38t28 -13v-47z" />
    <glyph glyph-name="yacute" unicode="&#xfd;" horiz-adv-x="424" 
d="M204 -135q-8 -23 -18.5 -43.5t-25 -35.5t-34 -24t-45.5 -9q-14 0 -24 2t-18 4q-9 3 -15 6l9 52q6 -3 13 -5q6 -2 14 -3t17 -1q31 0 46 20t26 53l33 114l-158 487h67l123 -409l119 409h66zM162 564l71 162h77l-90 -162h-58z" />
    <glyph glyph-name="thorn" unicode="&#xfe;" 
d="M62 -244v970h62v-323q4 6 13 20t24 28.5t36.5 25.5t51.5 11q32 0 61.5 -13.5t52 -43t36 -75.5t13.5 -111q0 -68 -13.5 -115.5t-36.5 -77.5t-53 -44t-63 -14t-56 11.5t-37 26t-21 27t-8 15.5v-318h-62zM124 155q0 -3 5 -20.5t17.5 -37t33.5 -35t54 -15.5q51 0 84 48
t33 149q0 51 -10 87.5t-26 59.5t-37.5 33.5t-43.5 10.5q-33 0 -54.5 -18t-33.5 -40q-15 -26 -22 -58v-164z" />
    <glyph glyph-name="ydieresis" unicode="&#xff;" horiz-adv-x="424" 
d="M204 -135q-8 -23 -18.5 -43.5t-25 -35.5t-34 -24t-45.5 -9q-14 0 -24 2t-18 4q-9 3 -15 6l9 52q6 -3 13 -5q6 -2 14 -3t17 -1q31 0 46 20t26 53l33 114l-158 487h67l123 -409l119 409h66zM141 592q-16 0 -27.5 12.5t-11.5 30.5q0 17 11.5 30t27.5 13t27.5 -13t11.5 -30
q0 -18 -11.5 -30.5t-27.5 -12.5zM288 592q-16 0 -27.5 12.5t-11.5 30.5q0 17 11.5 30t27.5 13q17 0 28 -13t11 -30q0 -18 -11 -30.5t-28 -12.5z" />
    <glyph glyph-name="Amacron" unicode="&#x100;" horiz-adv-x="542" 
d="M393 207h-244l-62 -207h-66l218 700h64l219 -700h-67zM168 261h206l-103 350zM156 819v48h227v-48h-227z" />
    <glyph glyph-name="amacron" unicode="&#x101;" horiz-adv-x="426" 
d="M396 2q-3 -1 -7 -2q-10 -2 -21 -2q-27 0 -45 18t-18 56v26q-5 -15 -15.5 -33.5t-28 -34t-41.5 -26t-57 -10.5q-61 0 -94.5 32.5t-33.5 90.5q0 60 37.5 93.5t119.5 33.5h108v78q0 59 -24 85.5t-69 26.5q-46 0 -69 -25.5t-23 -66.5q0 -11 1 -19t3 -13q2 -6 4 -11h-57
q-3 5 -5 13q-2 7 -3 17t-1 24q0 57 39 96t112 39q154 0 154 -168v-219q0 -26 7 -40t27 -14v-45zM300 198h-108q-45 0 -69 -19.5t-24 -56.5t21.5 -57.5t58.5 -20.5q35 0 58.5 20t37.5 45q16 28 25 65v24zM97 601v48h227v-48h-227z" />
    <glyph glyph-name="Abreve" unicode="&#x102;" horiz-adv-x="542" 
d="M393 207h-244l-62 -207h-66l218 700h64l219 -700h-67zM168 261h206l-103 350zM376 902q0 -54 -23 -86t-75 -32q-53 0 -76 32t-23 86h49q0 -38 13 -54t36 -17q25 0 37 16.5t12 54.5h50z" />
    <glyph glyph-name="abreve" unicode="&#x103;" horiz-adv-x="426" 
d="M396 2q-3 -1 -7 -2q-10 -2 -21 -2q-27 0 -45 18t-18 56v26q-5 -15 -15.5 -33.5t-28 -34t-41.5 -26t-57 -10.5q-61 0 -94.5 32.5t-33.5 90.5q0 60 37.5 93.5t119.5 33.5h108v78q0 59 -24 85.5t-69 26.5q-46 0 -69 -25.5t-23 -66.5q0 -11 1 -19t3 -13q2 -6 4 -11h-57
q-3 5 -5 13q-2 7 -3 17t-1 24q0 57 39 96t112 39q154 0 154 -168v-219q0 -26 7 -40t27 -14v-45zM300 198h-108q-45 0 -69 -19.5t-24 -56.5t21.5 -57.5t58.5 -20.5q35 0 58.5 20t37.5 45q16 28 25 65v24zM304 684q0 -54 -23 -86t-75 -32q-53 0 -76 32t-23 86h49q0 -38 13 -54
t36 -17q25 0 37 16.5t12 54.5h50z" />
    <glyph glyph-name="Aogonek" unicode="&#x104;" horiz-adv-x="542" 
d="M524 -138q-6 -8 -15 -14q-8 -5 -19 -9t-25 -4q-29 0 -49 17.5t-20 55.5q0 43 18 68t37 36l-58 195h-244l-62 -207h-66l218 700h64l219 -700h-28q-4 -2 -13.5 -7t-19.5 -14.5t-17.5 -24t-7.5 -35.5q0 -43 35 -43q8 0 15 3t12 7t10 10zM168 261h206l-103 352z" />
    <glyph glyph-name="aogonek" unicode="&#x105;" horiz-adv-x="426" 
d="M415 -138q-6 -8 -15 -14q-8 -5 -18.5 -9t-24.5 -4q-29 0 -49 17.5t-20 55.5q0 36 15 59.5t33 37.5q-14 8 -22.5 24.5t-8.5 42.5v26q-5 -15 -15.5 -33.5t-28 -34t-41.5 -26t-57 -10.5q-61 0 -94.5 32.5t-33.5 90.5q0 60 37.5 93.5t119.5 33.5h108v78q0 59 -24 85.5
t-69 26.5q-46 0 -69 -25.5t-23 -66.5q0 -11 1 -19t3 -13q2 -6 4 -11h-57q-3 5 -5 13q-2 7 -3 17t-1 24q0 57 39 96t112 39q154 0 154 -168v-219q0 -26 7 -40t27 -14v-45q-2 0 -4 -1q-4 -2 -9 -2q-5 -2 -14 -7.5t-18 -15t-16 -24t-7 -33.5q0 -43 34 -43q9 0 16 3t12 7t10 10z
M300 198h-108q-45 0 -69 -19.5t-24 -56.5t21.5 -57.5t58.5 -20.5q35 0 58.5 20t37.5 45q16 28 25 65v24z" />
    <glyph glyph-name="Cacute" unicode="&#x106;" horiz-adv-x="534" 
d="M240 782l71 162h77l-90 -162h-58zM502 113q-19 -34 -48 -60q-25 -23 -62.5 -41t-88.5 -18q-55 0 -102 19.5t-81.5 62.5t-54 110t-19.5 162q0 94 18.5 161.5t51 111t77.5 64.5t99 21q47 0 80.5 -14.5t56 -36.5t36.5 -48.5t21 -49.5t9 -40t2 -21l-59 -11q-4 46 -21 82
q-7 15 -18 30t-26 26.5t-35 18.5t-46 7q-36 0 -69 -16t-57.5 -52t-39 -93.5t-14.5 -139.5q0 -84 16.5 -141t43.5 -91.5t62 -49.5t72 -15q38 0 67.5 16t49.5 36q23 23 40 53z" />
    <glyph glyph-name="cacute" unicode="&#x107;" horiz-adv-x="409" 
d="M180 564l71 162h77l-90 -162h-58zM372 81q-13 -25 -34 -44q-18 -17 -46.5 -30t-70.5 -13q-34 0 -66.5 12.5t-57.5 41.5t-40 76.5t-15 116.5q0 128 48 187.5t131 59.5q39 0 66 -12.5t44.5 -32.5t25.5 -46t8 -54q0 -11 -1 -20t-2 -15q-1 -7 -2 -13h-57l2 12q1 5 1.5 11.5
t0.5 14.5q0 17 -4 35t-13.5 33t-26.5 24.5t-42 9.5q-53 0 -85.5 -45t-32.5 -148q0 -59 12.5 -97t31 -59.5t40.5 -30t42 -8.5q28 0 48 10.5t34 24.5q16 15 26 35z" />
    <glyph glyph-name="Ccircumflex" unicode="&#x108;" horiz-adv-x="534" 
d="M189 774l74 162h71l73 -162h-56l-53 112l-52 -112h-57zM502 113q-19 -34 -48 -60q-25 -23 -62.5 -41t-88.5 -18q-55 0 -102 19.5t-81.5 62.5t-54 110t-19.5 162q0 94 18.5 161.5t51 111t77.5 64.5t99 21q47 0 80.5 -14.5t56 -36.5t36.5 -48.5t21 -49.5t9 -40t2 -21
l-59 -11q-4 46 -21 82q-7 15 -18 30t-26 26.5t-35 18.5t-46 7q-36 0 -69 -16t-57.5 -52t-39 -93.5t-14.5 -139.5q0 -84 16.5 -141t43.5 -91.5t62 -49.5t72 -15q38 0 67.5 16t49.5 36q23 23 40 53z" />
    <glyph glyph-name="ccircumflex" unicode="&#x109;" horiz-adv-x="409" 
d="M108 556l74 162h71l73 -162h-56l-53 112l-52 -112h-57zM372 81q-13 -25 -34 -44q-18 -17 -46.5 -30t-70.5 -13q-34 0 -66.5 12.5t-57.5 41.5t-40 76.5t-15 116.5q0 128 48 187.5t131 59.5q39 0 66 -12.5t44.5 -32.5t25.5 -46t8 -54q0 -11 -1 -20t-2 -15q-1 -7 -2 -13h-57
l2 12q1 5 1.5 11.5t0.5 14.5q0 17 -4 35t-13.5 33t-26.5 24.5t-42 9.5q-53 0 -85.5 -45t-32.5 -148q0 -59 12.5 -97t31 -59.5t40.5 -30t42 -8.5q28 0 48 10.5t34 24.5q16 15 26 35z" />
    <glyph glyph-name="Cdotaccent" unicode="&#x10a;" horiz-adv-x="534" 
d="M502 113q-19 -34 -48 -60q-25 -23 -62.5 -41t-88.5 -18q-55 0 -102 19.5t-81.5 62.5t-54 110t-19.5 162q0 94 18.5 161.5t51 111t77.5 64.5t99 21q47 0 80.5 -14.5t56 -36.5t36.5 -48.5t21 -49.5t9 -40t2 -21l-59 -11q-4 46 -21 82q-7 15 -18 30t-26 26.5t-35 18.5t-46 7
q-36 0 -69 -16t-57.5 -52t-39 -93.5t-14.5 -139.5q0 -84 16.5 -141t43.5 -91.5t62 -49.5t72 -15q38 0 67.5 16t49.5 36q23 23 40 53zM300 816q-16 0 -28 12.5t-12 30.5q0 17 12 29.5t28 12.5t27.5 -12.5t11.5 -29.5q0 -18 -11.5 -30.5t-27.5 -12.5z" />
    <glyph glyph-name="cdotaccent" unicode="&#x10b;" horiz-adv-x="409" 
d="M372 81q-13 -25 -34 -44q-18 -17 -46.5 -30t-70.5 -13q-34 0 -66.5 12.5t-57.5 41.5t-40 76.5t-15 116.5q0 128 48 187.5t131 59.5q39 0 66 -12.5t44.5 -32.5t25.5 -46t8 -54q0 -11 -1 -20t-2 -15q-1 -7 -2 -13h-57l2 12q1 5 1.5 11.5t0.5 14.5q0 17 -4 35t-13.5 33
t-26.5 24.5t-42 9.5q-53 0 -85.5 -45t-32.5 -148q0 -59 12.5 -97t31 -59.5t40.5 -30t42 -8.5q28 0 48 10.5t34 24.5q16 15 26 35zM223 598q-16 0 -28 12.5t-12 30.5q0 17 12 29.5t28 12.5t27.5 -12.5t11.5 -29.5q0 -18 -11.5 -30.5t-27.5 -12.5z" />
    <glyph glyph-name="Ccaron" unicode="&#x10c;" horiz-adv-x="534" 
d="M246 939l52 -112l52 112h57l-73 -163h-71l-74 163h57zM502 113q-19 -34 -48 -60q-25 -23 -62.5 -41t-88.5 -18q-55 0 -102 19.5t-81.5 62.5t-54 110t-19.5 162q0 94 18.5 161.5t51 111t77.5 64.5t99 21q47 0 80.5 -14.5t56 -36.5t36.5 -48.5t21 -49.5t9 -40t2 -21
l-59 -11q-4 46 -21 82q-7 15 -18 30t-26 26.5t-35 18.5t-46 7q-36 0 -69 -16t-57.5 -52t-39 -93.5t-14.5 -139.5q0 -84 16.5 -141t43.5 -91.5t62 -49.5t72 -15q38 0 67.5 16t49.5 36q23 23 40 53z" />
    <glyph glyph-name="ccaron" unicode="&#x10d;" horiz-adv-x="409" 
d="M172 721l52 -112l52 112h57l-73 -163h-71l-74 163h57zM372 81q-13 -25 -34 -44q-18 -17 -46.5 -30t-70.5 -13q-34 0 -66.5 12.5t-57.5 41.5t-40 76.5t-15 116.5q0 128 48 187.5t131 59.5q39 0 66 -12.5t44.5 -32.5t25.5 -46t8 -54q0 -11 -1 -20t-2 -15q-1 -7 -2 -13h-57
l2 12q1 5 1.5 11.5t0.5 14.5q0 17 -4 35t-13.5 33t-26.5 24.5t-42 9.5q-53 0 -85.5 -45t-32.5 -148q0 -59 12.5 -97t31 -59.5t40.5 -30t42 -8.5q28 0 48 10.5t34 24.5q16 15 26 35z" />
    <glyph glyph-name="Dcaron" unicode="&#x10e;" horiz-adv-x="555" 
d="M209 939l52 -112l52 112h57l-73 -163h-71l-74 163h57zM75 0v700h150q58 0 110 -20.5t90 -63.5t60.5 -111t22.5 -162q0 -89 -19 -153.5t-52.5 -106.5t-80 -62.5t-101.5 -20.5h-180zM254 56q43 0 77.5 17.5t59.5 53t38.5 89.5t13.5 127q0 79 -16 135.5t-44.5 93.5
t-68.5 54.5t-89 17.5h-86v-588h115z" />
    <glyph glyph-name="dcaron" unicode="&#x10f;" horiz-adv-x="462" 
d="M434 681q0 20 12.5 33.5t30.5 13.5q19 0 32.5 -14t13.5 -40q0 -35 -10.5 -56t-23.5 -33q-15 -14 -33 -20l-19 33q11 4 20 9q8 5 13.5 11.5t6.5 16.5q-17 0 -30 13t-13 33zM427 1l-8 -2t-9 -1h-11q-26 0 -44.5 17.5t-18.5 54.5v22q-2 -3 -9 -18.5t-22 -33.5t-40 -32
t-62 -14q-30 0 -59 14t-51.5 43.5t-36.5 76t-14 111.5q0 67 13.5 114t37 77t54 44t63.5 14t55 -11.5t36 -26t20.5 -27t7.5 -13.5v316h62v-625q0 -27 8 -40t28 -13v-47zM329 332q0 3 -5.5 19.5t-18 35t-34 33.5t-53.5 15q-24 0 -44.5 -12t-36.5 -36.5t-25 -61.5t-9 -86
t9.5 -85t25 -60t36.5 -35.5t44 -11.5q35 0 57 18.5t34 41t16 42t4 20.5v163z" />
    <glyph glyph-name="Dcroat" unicode="&#x110;" horiz-adv-x="558" 
d="M34 374h44v326h151q58 0 110 -20.5t90 -63.5t60.5 -111t22.5 -162q0 -89 -19 -153.5t-52.5 -106.5t-80.5 -62.5t-102 -20.5h-180v324h-44v50zM258 56q85 0 136.5 70.5t51.5 216.5q0 79 -16 135.5t-44.5 93.5t-68.5 54.5t-89 17.5h-85v-270h166v-50h-166v-268h115z" />
    <glyph glyph-name="dcroat" unicode="&#x111;" horiz-adv-x="462" 
d="M427 1l-8 -2t-9 -1h-11q-26 0 -44.5 17.5t-18.5 54.5v22q-2 -3 -9 -18.5t-22 -33.5t-40 -32t-62 -14q-30 0 -59 14t-51.5 43.5t-36.5 76t-14 111.5q0 67 13.5 114t37 77t54 44t63.5 14t55 -11.5t36 -26t20.5 -27t7.5 -13.5v176h-123v50h123v90h62v-90h48v-50h-48v-485
q0 -27 8 -40t28 -13v-47zM329 332q0 3 -5.5 19.5t-18 35t-34 33.5t-53.5 15q-24 0 -44.5 -12t-36.5 -36.5t-25 -61.5t-9 -86t9.5 -85t25 -60t36.5 -35.5t44 -11.5q35 0 57 18.5t34 41t16 42t4 20.5v163z" />
    <glyph glyph-name="Emacron" unicode="&#x112;" horiz-adv-x="463" 
d="M75 0v700h346v-56h-282v-268h238v-55h-238v-265h282v-56h-346zM150 819v48h227v-48h-227z" />
    <glyph glyph-name="emacron" unicode="&#x113;" horiz-adv-x="413" 
d="M104 245v-12q1 -56 13.5 -92t31 -57t40 -29t40.5 -8q28 0 48 10.5t34 24.5q16 15 26 35l35 -36q-13 -25 -34 -44q-18 -17 -46.5 -30t-70.5 -13q-34 0 -66.5 12.5t-57.5 41.5t-40 76.5t-15 116.5q0 129 46.5 188t129.5 59q42 0 71 -16.5t47 -46t26 -69t8 -84.5v-27h-266z
M311 290q0 30 -5 56.5t-16.5 46t-30 31t-44.5 11.5q-44 0 -73.5 -34t-35.5 -111h205zM105 601v48h227v-48h-227z" />
    <glyph glyph-name="Ebreve" unicode="&#x114;" horiz-adv-x="463" 
d="M75 0v700h346v-56h-282v-268h238v-55h-238v-265h282v-56h-346zM354 902q0 -54 -23 -86t-75 -32q-53 0 -76 32t-23 86h49q0 -38 13 -54t36 -17q25 0 37 16.5t12 54.5h50z" />
    <glyph glyph-name="ebreve" unicode="&#x115;" horiz-adv-x="413" 
d="M104 245v-12q1 -56 13.5 -92t31 -57t40 -29t40.5 -8q28 0 48 10.5t34 24.5q16 15 26 35l35 -36q-13 -25 -34 -44q-18 -17 -46.5 -30t-70.5 -13q-34 0 -66.5 12.5t-57.5 41.5t-40 76.5t-15 116.5q0 129 46.5 188t129.5 59q42 0 71 -16.5t47 -46t26 -69t8 -84.5v-27h-266z
M311 290q0 30 -5 56.5t-16.5 46t-30 31t-44.5 11.5q-44 0 -73.5 -34t-35.5 -111h205zM317 684q0 -54 -23 -86t-75 -32q-53 0 -76 32t-23 86h49q0 -38 13 -54t36 -17q25 0 37 16.5t12 54.5h50z" />
    <glyph glyph-name="Edotaccent" unicode="&#x116;" horiz-adv-x="463" 
d="M75 0v700h346v-56h-282v-268h238v-55h-238v-265h282v-56h-346zM264 816q-16 0 -28 12.5t-12 30.5q0 17 12 29.5t28 12.5t27.5 -12.5t11.5 -29.5q0 -18 -11.5 -30.5t-27.5 -12.5z" />
    <glyph glyph-name="edotaccent" unicode="&#x117;" horiz-adv-x="413" 
d="M104 245v-12q1 -56 13.5 -92t31 -57t40 -29t40.5 -8q28 0 48 10.5t34 24.5q16 15 26 35l35 -36q-13 -25 -34 -44q-18 -17 -46.5 -30t-70.5 -13q-34 0 -66.5 12.5t-57.5 41.5t-40 76.5t-15 116.5q0 129 46.5 188t129.5 59q42 0 71 -16.5t47 -46t26 -69t8 -84.5v-27h-266z
M311 290q0 30 -5 56.5t-16.5 46t-30 31t-44.5 11.5q-44 0 -73.5 -34t-35.5 -111h205zM217 598q-16 0 -28 12.5t-12 30.5q0 17 12 29.5t28 12.5t27.5 -12.5t11.5 -29.5q0 -18 -11.5 -30.5t-27.5 -12.5z" />
    <glyph glyph-name="Eogonek" unicode="&#x118;" horiz-adv-x="463" 
d="M413 0q-4 -2 -13.5 -7t-19 -14.5t-17 -24t-7.5 -35.5q0 -43 34 -43q8 0 15.5 3t12.5 7q6 4 10 10l15 -34q-6 -8 -15 -14q-8 -5 -18.5 -9t-24.5 -4q-29 0 -49.5 17.5t-20.5 55.5q0 33 12 55.5t28 36.5h-280v700h346v-56h-282v-268h238v-55h-238v-265h282v-56h-8z" />
    <glyph glyph-name="eogonek" unicode="&#x119;" horiz-adv-x="413" 
d="M290 -139q-6 -8 -15 -13q-8 -5 -18.5 -9t-24.5 -4q-29 0 -49.5 17t-20.5 55q0 32 11 53t27 35q-31 3 -59.5 17.5t-50.5 43.5t-35 74.5t-13 110.5q0 129 46.5 188t129.5 59q42 0 71 -16.5t47 -46t26 -69t8 -84.5v-27h-266v-12q1 -56 13.5 -92t31 -57t40 -29t40.5 -8
q28 0 48 10.5t34 24.5q16 15 26 35l35 -36q-10 -20 -27 -37q-14 -14 -36.5 -28t-54.5 -19q-6 -3 -15.5 -9t-18.5 -15.5t-15 -23t-6 -31.5q0 -46 38 -46q8 0 15.5 3t12.5 7q6 4 10 10zM311 290q0 30 -5 56.5t-16.5 46t-30 31t-44.5 11.5q-44 0 -73.5 -34t-35.5 -111h205z" />
    <glyph glyph-name="Ecaron" unicode="&#x11a;" horiz-adv-x="463" 
d="M220 939l52 -112l52 112h57l-73 -163h-71l-74 163h57zM75 0v700h346v-56h-282v-268h238v-55h-238v-265h282v-56h-346z" />
    <glyph glyph-name="ecaron" unicode="&#x11b;" horiz-adv-x="413" 
d="M165 721l52 -112l52 112h57l-73 -163h-71l-74 163h57zM104 245v-12q1 -56 13.5 -92t31 -57t40 -29t40.5 -8q28 0 48 10.5t34 24.5q16 15 26 35l35 -36q-13 -25 -34 -44q-18 -17 -46.5 -30t-70.5 -13q-34 0 -66.5 12.5t-57.5 41.5t-40 76.5t-15 116.5q0 129 46.5 188
t129.5 59q42 0 71 -16.5t47 -46t26 -69t8 -84.5v-27h-266zM311 290q0 30 -5 56.5t-16.5 46t-30 31t-44.5 11.5q-44 0 -73.5 -34t-35.5 -111h205z" />
    <glyph glyph-name="Gcircumflex" unicode="&#x11c;" horiz-adv-x="548" 
d="M186 774l74 162h71l73 -162h-56l-53 112l-52 -112h-57zM502 255q0 -57 -12.5 -105t-38 -82.5t-65.5 -54t-94 -19.5q-50 0 -95 19.5t-78.5 62.5t-53 110t-19.5 162q0 94 18.5 161.5t51 111t77.5 64.5t99 21q46 0 79.5 -14.5t56 -36.5t36.5 -48t21 -49t9.5 -39.5t2.5 -19.5
l-60 -11q-3 45 -20 80q-7 15 -18 29.5t-26 26t-35 18.5t-46 7q-36 0 -69 -16t-57.5 -52t-39 -93.5t-14.5 -139.5q0 -84 16 -141t42 -91.5t58.5 -49.5t65.5 -15q76 0 111 54.5t35 149.5v40h-151v51h213v-91z" />
    <glyph glyph-name="gcircumflex" unicode="&#x11d;" horiz-adv-x="432" 
d="M107 578l74 162h71l73 -162h-56l-53 112l-52 -112h-57zM182 1q-42 -1 -68 -25.5t-26 -72.5t33.5 -72.5t92.5 -24.5q71 0 103 26t32 77q0 45 -25 68.5t-70 23.5h-72zM324 309q0 28 -8.5 51.5t-22.5 40t-34 25.5t-42 9q-46 0 -76 -34.5t-30 -91.5q0 -58 30 -92t75 -34
q46 0 77 34t31 92zM255 48q33 0 61.5 -8.5t49.5 -26t33 -44t12 -61.5q0 -69 -48 -112t-145 -43q-94 0 -142.5 39t-48.5 108q0 33 9.5 54.5t21.5 35.5t24 21t18 10l-13 6.5t-18.5 13t-16.5 22.5t-7 35q0 34 17.5 52.5t41.5 25.5q-4 3 -13 13t-18 26.5t-16 40t-7 53.5
q0 41 13.5 74t36 56.5t52.5 36t64 12.5q28 0 45.5 -8.5t20.5 -9.5q18 0 34 3.5t28.5 12.5t19.5 25t7 41l52 -8q0 -30 -9.5 -50t-23 -31.5t-29 -16.5t-27.5 -6q6 -5 14.5 -15.5t17 -26.5t14 -38.5t5.5 -50.5q0 -42 -13.5 -75.5t-36.5 -57t-53.5 -35.5t-64.5 -12
q-28 0 -47 9.5t-24 11.5q-17 0 -30.5 -12t-13.5 -38q0 -32 21 -42t53 -10h79z" />
    <glyph glyph-name="Gbreve" unicode="&#x11e;" horiz-adv-x="548" 
d="M502 255q0 -57 -12.5 -105t-38 -82.5t-65.5 -54t-94 -19.5q-50 0 -95 19.5t-78.5 62.5t-53 110t-19.5 162q0 94 18.5 161.5t51 111t77.5 64.5t99 21q46 0 79.5 -14.5t56 -36.5t36.5 -48t21 -49t9.5 -39.5t2.5 -19.5l-60 -11q-3 45 -20 80q-7 15 -18 29.5t-26 26t-35 18.5
t-46 7q-36 0 -69 -16t-57.5 -52t-39 -93.5t-14.5 -139.5q0 -84 16 -141t42 -91.5t58.5 -49.5t65.5 -15q76 0 111 54.5t35 149.5v40h-151v51h213v-91zM393 902q0 -54 -23 -86t-75 -32q-53 0 -76 32t-23 86h49q0 -38 13 -54t36 -17q25 0 37 16.5t12 54.5h50z" />
    <glyph glyph-name="gbreve" unicode="&#x11f;" horiz-adv-x="432" 
d="M182 1q-42 -1 -68 -25.5t-26 -72.5t33.5 -72.5t92.5 -24.5q71 0 103 26t32 77q0 45 -25 68.5t-70 23.5h-72zM324 309q0 28 -8.5 51.5t-22.5 40t-34 25.5t-42 9q-46 0 -76 -34.5t-30 -91.5q0 -58 30 -92t75 -34q46 0 77 34t31 92zM255 48q33 0 61.5 -8.5t49.5 -26t33 -44
t12 -61.5q0 -69 -48 -112t-145 -43q-94 0 -142.5 39t-48.5 108q0 33 9.5 54.5t21.5 35.5t24 21t18 10l-13 6.5t-18.5 13t-16.5 22.5t-7 35q0 34 17.5 52.5t41.5 25.5q-4 3 -13 13t-18 26.5t-16 40t-7 53.5q0 41 13.5 74t36 56.5t52.5 36t64 12.5q28 0 45.5 -8.5t20.5 -9.5
q18 0 34 3.5t28.5 12.5t19.5 25t7 41l52 -8q0 -30 -9.5 -50t-23 -31.5t-29 -16.5t-27.5 -6q6 -5 14.5 -15.5t17 -26.5t14 -38.5t5.5 -50.5q0 -42 -13.5 -75.5t-36.5 -57t-53.5 -35.5t-64.5 -12q-28 0 -47 9.5t-24 11.5q-17 0 -30.5 -12t-13.5 -38q0 -32 21 -42t53 -10h79z
M325 684q0 -54 -23 -86t-75 -32q-53 0 -76 32t-23 86h49q0 -38 13 -54t36 -17q25 0 37 16.5t12 54.5h50z" />
    <glyph glyph-name="Gdotaccent" unicode="&#x120;" horiz-adv-x="548" 
d="M502 255q0 -57 -12.5 -105t-38 -82.5t-65.5 -54t-94 -19.5q-50 0 -95 19.5t-78.5 62.5t-53 110t-19.5 162q0 94 18.5 161.5t51 111t77.5 64.5t99 21q46 0 79.5 -14.5t56 -36.5t36.5 -48t21 -49t9.5 -39.5t2.5 -19.5l-60 -11q-3 45 -20 80q-7 15 -18 29.5t-26 26t-35 18.5
t-46 7q-36 0 -69 -16t-57.5 -52t-39 -93.5t-14.5 -139.5q0 -84 16 -141t42 -91.5t58.5 -49.5t65.5 -15q76 0 111 54.5t35 149.5v40h-151v51h213v-91zM298 816q-16 0 -28 12.5t-12 30.5q0 17 12 29.5t28 12.5t27.5 -12.5t11.5 -29.5q0 -18 -11.5 -30.5t-27.5 -12.5z" />
    <glyph glyph-name="gdotaccent" unicode="&#x121;" horiz-adv-x="432" 
d="M182 1q-42 -1 -68 -25.5t-26 -72.5t33.5 -72.5t92.5 -24.5q71 0 103 26t32 77q0 45 -25 68.5t-70 23.5h-72zM324 309q0 28 -8.5 51.5t-22.5 40t-34 25.5t-42 9q-46 0 -76 -34.5t-30 -91.5q0 -58 30 -92t75 -34q46 0 77 34t31 92zM255 48q33 0 61.5 -8.5t49.5 -26t33 -44
t12 -61.5q0 -69 -48 -112t-145 -43q-94 0 -142.5 39t-48.5 108q0 33 9.5 54.5t21.5 35.5t24 21t18 10l-13 6.5t-18.5 13t-16.5 22.5t-7 35q0 34 17.5 52.5t41.5 25.5q-4 3 -13 13t-18 26.5t-16 40t-7 53.5q0 41 13.5 74t36 56.5t52.5 36t64 12.5q28 0 45.5 -8.5t20.5 -9.5
q18 0 34 3.5t28.5 12.5t19.5 25t7 41l52 -8q0 -30 -9.5 -50t-23 -31.5t-29 -16.5t-27.5 -6q6 -5 14.5 -15.5t17 -26.5t14 -38.5t5.5 -50.5q0 -42 -13.5 -75.5t-36.5 -57t-53.5 -35.5t-64.5 -12q-28 0 -47 9.5t-24 11.5q-17 0 -30.5 -12t-13.5 -38q0 -32 21 -42t53 -10h79z
M224 598q-16 0 -28 12.5t-12 30.5q0 17 12 29.5t28 12.5t27.5 -12.5t11.5 -29.5q0 -18 -11.5 -30.5t-27.5 -12.5z" />
    <glyph glyph-name="uni0122" unicode="&#x122;" horiz-adv-x="548" 
d="M252 -86q0 20 12.5 33.5t30.5 13.5q19 0 32.5 -14t13.5 -40q0 -35 -10.5 -56t-23.5 -33q-15 -14 -33 -20l-19 33q11 4 20 9q8 5 13.5 11.5t6.5 16.5q-17 0 -30 13t-13 33zM502 255q0 -57 -12.5 -105t-38 -82.5t-65.5 -54t-94 -19.5q-50 0 -95 19.5t-78.5 62.5t-53 110
t-19.5 162q0 94 18.5 161.5t51 111t77.5 64.5t99 21q46 0 79.5 -14.5t56 -36.5t36.5 -48t21 -49t9.5 -39.5t2.5 -19.5l-60 -11q-3 45 -20 80q-7 15 -18 29.5t-26 26t-35 18.5t-46 7q-36 0 -69 -16t-57.5 -52t-39 -93.5t-14.5 -139.5q0 -84 16 -141t42 -91.5t58.5 -49.5
t65.5 -15q76 0 111 54.5t35 149.5v40h-151v51h213v-91z" />
    <glyph glyph-name="uni0123" unicode="&#x123;" horiz-adv-x="432" 
d="M182 649q0 20 12.5 33.5t30.5 13.5q19 0 32.5 -14t13.5 -40q0 -35 -10.5 -56t-23.5 -33q-15 -14 -33 -20l-19 33q11 4 20 9q8 5 13.5 11.5t6.5 16.5q-17 0 -30 13t-13 33zM182 1q-42 -1 -68 -25.5t-26 -72.5t33.5 -72.5t92.5 -24.5q71 0 103 26t32 77q0 45 -25 68.5
t-70 23.5h-72zM324 309q0 28 -8.5 51.5t-22.5 40t-34 25.5t-42 9q-46 0 -76 -34.5t-30 -91.5q0 -58 30 -92t75 -34q46 0 77 34t31 92zM255 48q33 0 61.5 -8.5t49.5 -26t33 -44t12 -61.5q0 -69 -48 -112t-145 -43q-94 0 -142.5 39t-48.5 108q0 33 9.5 54.5t21.5 35.5t24 21
t18 10l-13 6.5t-18.5 13t-16.5 22.5t-7 35q0 34 17.5 52.5t41.5 25.5q-4 3 -13 13t-18 26.5t-16 40t-7 53.5q0 41 13.5 74t36 56.5t52.5 36t64 12.5q28 0 45.5 -8.5t20.5 -9.5q18 0 34 3.5t28.5 12.5t19.5 25t7 41l52 -8q0 -30 -9.5 -50t-23 -31.5t-29 -16.5t-27.5 -6
q6 -5 14.5 -15.5t17 -26.5t14 -38.5t5.5 -50.5q0 -42 -13.5 -75.5t-36.5 -57t-53.5 -35.5t-64.5 -12q-28 0 -47 9.5t-24 11.5q-17 0 -30.5 -12t-13.5 -38q0 -32 21 -42t53 -10h79z" />
    <glyph glyph-name="Hcircumflex" unicode="&#x124;" horiz-adv-x="571" 
d="M168 774l74 162h71l73 -162h-56l-53 112l-52 -112h-57zM432 0v316h-293v-316h-64v700h64v-328h293v328h65v-700h-65z" />
    <glyph glyph-name="hcircumflex" unicode="&#x125;" horiz-adv-x="452" 
d="M102 763l74 162h71l73 -162h-56l-53 112l-52 -112h-57zM423 1q-3 -1 -7 -2q-5 -1 -21 -1q-32 0 -50.5 21.5t-18.5 72.5v213q0 54 -24 92t-71 38q-28 0 -48 -15.5t-33 -39t-19.5 -51.5t-6.5 -53v-276h-62v726h62v-346q12 44 42.5 76t79.5 32q38 0 65 -15t44 -40.5
t25 -59.5t8 -73v-202q0 -25 7.5 -37.5t27.5 -12.5v-47z" />
    <glyph glyph-name="Hbar" unicode="&#x126;" horiz-adv-x="586" 
d="M31 575h48v125h67v-125h294v125h67v-125h48v-50h-48v-525h-67v316h-294v-316h-67v525h-48v50zM440 372v153h-294v-153h294z" />
    <glyph glyph-name="hbar" unicode="&#x127;" 
d="M24 644h38v82h62v-82h138v-51h-138v-213q12 44 42.5 76t80.5 32q38 0 64.5 -15t43.5 -40.5t25 -59.5t8 -73v-199q0 -24 7.5 -37t27.5 -13v-50q-3 -1 -7 -2q-5 -1 -21 -1q-32 0 -50.5 21.5t-18.5 72.5v202q0 57 -24 96.5t-71 39.5q-27 0 -47 -15t-33.5 -38t-20 -50
t-6.5 -52v-275h-62v593h-38v51z" />
    <glyph glyph-name="Itilde" unicode="&#x128;" horiz-adv-x="213" 
d="M75 0v700h64v-700h-64zM-14 776q-3 5 -5 12q-5 12 -5 31q0 29 17 49.5t49 20.5q18 0 34 -5.5t30.5 -12t28.5 -12t28 -5.5q20 0 20 22q0 7 -1.5 13t-3.5 11l-4 10h51l4 -12t3 -13.5t1 -16.5q0 -27 -15.5 -46.5t-47.5 -19.5q-21 0 -37.5 5.5t-31 12.5t-26.5 12.5t-24 5.5
q-11 0 -17.5 -7.5t-6.5 -21.5t5 -24q2 -5 5 -9h-51z" />
    <glyph glyph-name="itilde" unicode="&#x129;" horiz-adv-x="193" 
d="M157 1q-3 -1 -7 -2q-5 -1 -21 -1q-32 0 -51 21.5t-19 72.5v390h63v-384q0 -25 7.5 -37.5t27.5 -12.5v-47zM-31 570q-3 5 -5 12q-5 12 -5 31q0 29 17 49.5t49 20.5q18 0 34 -5.5t30.5 -12t28.5 -12t28 -5.5q20 0 20 22q0 7 -1.5 13t-3.5 11l-4 10h51l4 -12t3 -13.5
t1 -16.5q0 -27 -15.5 -46.5t-47.5 -19.5q-21 0 -37.5 5.5t-31 12.5t-26.5 12.5t-24 5.5q-11 0 -17.5 -7.5t-6.5 -21.5t5 -24q2 -5 5 -9h-51z" />
    <glyph glyph-name="Imacron" unicode="&#x12a;" horiz-adv-x="213" 
d="M75 0v700h64v-700h-64zM-5 752v48h227v-48h-227z" />
    <glyph glyph-name="imacron" unicode="&#x12b;" horiz-adv-x="193" 
d="M157 1q-3 -1 -7 -2q-5 -1 -21 -1q-32 0 -51 21.5t-19 72.5v390h63v-384q0 -25 7.5 -37.5t27.5 -12.5v-47zM-20 601v48h227v-48h-227z" />
    <glyph glyph-name="Ibreve" unicode="&#x12c;" horiz-adv-x="213" 
d="M75 0v700h64v-700h-64zM203 902q0 -54 -23 -86t-75 -32q-53 0 -76 32t-23 86h49q0 -38 13 -54t36 -17q25 0 37 16.5t12 54.5h50z" />
    <glyph glyph-name="ibreve" unicode="&#x12d;" horiz-adv-x="193" 
d="M157 1q-3 -1 -7 -2q-5 -1 -21 -1q-32 0 -51 21.5t-19 72.5v390h63v-384q0 -25 7.5 -37.5t27.5 -12.5v-47zM199 684q0 -54 -23 -86t-75 -32q-53 0 -76 32t-23 86h49q0 -38 13 -54t36 -17q25 0 37 16.5t12 54.5h50z" />
    <glyph glyph-name="Iogonek" unicode="&#x12e;" horiz-adv-x="214" 
d="M109 0q-4 -2 -13.5 -7t-19.5 -14.5t-17.5 -24t-7.5 -35.5q0 -43 35 -43q8 0 15.5 3t12.5 7q6 4 10 10l15 -34q-6 -8 -15 -14q-8 -5 -18.5 -9t-24.5 -4q-29 0 -49.5 17.5t-20.5 55.5q0 45 21.5 71t42.5 38v683h64v-700h-30z" />
    <glyph glyph-name="iogonek" unicode="&#x12f;" horiz-adv-x="192" 
d="M157 1q-2 0 -4 -1q-6 -2 -10 -2q-6 -2 -16 -7.5t-19 -15.5t-15.5 -23.5t-6.5 -32.5q0 -47 38 -47q8 0 15 3t12 7t10 10l16 -30q-6 -8 -15 -14q-8 -5 -18.5 -9t-24.5 -4q-29 0 -49.5 17.5t-20.5 55.5q0 37 15.5 60t32.5 36q-17 9 -27.5 30.5t-10.5 57.5v390h63v-384
q0 -25 7.5 -37.5t27.5 -12.5v-47zM138 634q0 -20 -13.5 -32.5t-31.5 -12.5q-19 0 -32 12.5t-13 32.5t13 33t32 13q18 0 31.5 -13t13.5 -33z" />
    <glyph glyph-name="Idotaccent" unicode="&#x130;" horiz-adv-x="213" 
d="M75 0v700h64v-700h-64zM103 811q-16 0 -28 12.5t-12 30.5q0 17 12 29.5t28 12.5t27.5 -12.5t11.5 -29.5q0 -18 -11.5 -30.5t-27.5 -12.5z" />
    <glyph glyph-name="dotlessi" unicode="&#x131;" horiz-adv-x="193" 
d="M157 1q-3 -1 -7 -2q-5 -1 -21 -1q-32 0 -51 21.5t-19 72.5v390h63v-384q0 -25 7.5 -37.5t27.5 -12.5v-47z" />
    <glyph glyph-name="Jcircumflex" unicode="&#x134;" horiz-adv-x="384" 
d="M171 774l74 162h71l73 -162h-56l-53 112l-52 -112h-57zM250 700h64v-502q0 -53 -13 -91.5t-35.5 -63.5t-53 -37t-65.5 -12q-36 0 -62.5 11.5t-44.5 25.5q-21 17 -36 38l41 45q11 -18 27 -32q13 -12 32 -22t43 -10q49 0 76 34.5t27 108.5v507z" />
    <glyph glyph-name="jcircumflex" unicode="&#x135;" horiz-adv-x="186" 
d="M-68 -162q5 -9 14 -15q7 -5 18 -9.5t25 -4.5q38 0 55.5 31.5t17.5 80.5v562h62v-564q0 -74 -30.5 -120.5t-98.5 -46.5q-24 0 -40 6t-27 14q-12 9 -19 21zM-14 556l74 162h71l73 -162h-56l-53 112l-52 -112h-57z" />
    <glyph glyph-name="uni0136" unicode="&#x136;" horiz-adv-x="558" 
d="M220 -86q0 20 12.5 33.5t30.5 13.5q19 0 32.5 -14t13.5 -40q0 -35 -10.5 -56t-23.5 -33q-15 -14 -33 -20l-19 33q11 4 20 9q8 5 13.5 11.5t6.5 16.5q-17 0 -30 13t-13 33zM550 1q-6 -1 -13 -2q-6 -1 -13.5 -1h-14.5q-37 0 -62 23t-43 58t-32.5 75.5t-30.5 75.5t-37.5 58
t-53.5 23h-111v-311h-64v700h64v-334h106q30 0 60 18t54 58t39 103.5t15 154.5h64q0 -84 -12.5 -146t-32.5 -105.5t-45.5 -69.5t-50.5 -39q23 -11 40 -37t31 -58.5t26.5 -67t26 -63t29.5 -47t38 -18.5h23v-48z" />
    <glyph glyph-name="uni0137" unicode="&#x137;" horiz-adv-x="449" 
d="M184 -86q0 20 12.5 33.5t30.5 13.5q19 0 32.5 -14t13.5 -40q0 -35 -10.5 -56t-23.5 -33q-15 -14 -33 -20l-19 33q11 4 20 9q8 5 13.5 11.5t6.5 16.5q-17 0 -30 13t-13 33zM433 2l-8 -2q-10 -2 -19 -2q-33 0 -52 18t-31 45t-21 59t-21.5 59t-32.5 45t-54 18h-71v-242h-61
v726h61v-438h70q57 0 93.5 51t36.5 143h58q0 -33 -5.5 -66.5t-18 -62.5t-33 -51.5t-51.5 -34.5q23 -10 37 -30t23.5 -44.5t16.5 -50t16.5 -46.5t23 -34.5t35.5 -13.5h8v-46z" />
    <glyph glyph-name="kgreenlandic" unicode="&#x138;" horiz-adv-x="449" 
d="M432 2l-8 -2t-8.5 -1.5t-10.5 -0.5q-33 0 -52 18t-31 45t-21 59t-21.5 59t-32.5 45t-54 18h-71v-242h-61v482h61v-194h71q57 0 93 51t36 143h59q0 -33 -5.5 -66.5t-18 -62.5t-33 -51.5t-51.5 -34.5q22 -10 36 -30t23.5 -44.5t16.5 -50t16.5 -46.5t23 -34.5t35.5 -13.5h8
v-46z" />
    <glyph glyph-name="Lacute" unicode="&#x139;" horiz-adv-x="442" 
d="M77 782l71 162h77l-90 -162h-58zM75 0v700h64v-644h292v-56h-356z" />
    <glyph glyph-name="lacute" unicode="&#x13a;" horiz-adv-x="195" 
d="M60 775l71 162h77l-90 -162h-58zM158 1l-8 -2q-5 -1 -21 -1q-32 0 -50.5 21.5t-18.5 72.5v634h63v-628q0 -25 7.5 -37.5t27.5 -12.5v-47z" />
    <glyph glyph-name="uni013B" unicode="&#x13b;" horiz-adv-x="442" 
d="M193 -123q0 20 12.5 33.5t30.5 13.5q19 0 32.5 -14t13.5 -40q0 -35 -10.5 -56t-23.5 -33q-15 -14 -33 -20l-19 33q11 4 20 9q8 5 13.5 11.5t6.5 16.5q-17 0 -30 13t-13 33zM75 0v700h64v-644h292v-56h-356z" />
    <glyph glyph-name="uni013C" unicode="&#x13c;" horiz-adv-x="195" 
d="M63 -86q0 20 12.5 33.5t30.5 13.5q19 0 32.5 -14t13.5 -40q0 -35 -10.5 -56t-23.5 -33q-15 -14 -33 -20l-19 33q11 4 20 9q8 5 13.5 11.5t6.5 16.5q-17 0 -30 13t-13 33zM158 1l-8 -2q-5 -1 -21 -1q-32 0 -50.5 21.5t-18.5 72.5v634h63v-628q0 -25 7.5 -37.5t27.5 -12.5
v-47z" />
    <glyph glyph-name="Lcaron" unicode="&#x13d;" horiz-adv-x="442" 
d="M172 645q0 20 12.5 33.5t30.5 13.5q19 0 32.5 -14t13.5 -40q0 -35 -10.5 -56t-23.5 -33q-15 -14 -33 -20l-19 33q11 4 20 9q8 5 13.5 11.5t6.5 16.5q-17 0 -30 13t-13 33zM75 0v700h64v-644h292v-56h-356z" />
    <glyph glyph-name="lcaron" unicode="&#x13e;" horiz-adv-x="195" 
d="M166 692q0 20 12.5 33.5t30.5 13.5q19 0 32.5 -14t13.5 -40q0 -35 -10.5 -56t-23.5 -33q-15 -14 -33 -20l-19 33q11 4 20 9q8 5 13.5 11.5t6.5 16.5q-17 0 -30 13t-13 33zM158 1l-8 -2q-5 -1 -21 -1q-32 0 -50.5 21.5t-18.5 72.5v634h63v-628q0 -25 7.5 -37.5t27.5 -12.5
v-47z" />
    <glyph glyph-name="Ldot" unicode="&#x13f;" horiz-adv-x="442" 
d="M75 0v700h64v-644h292v-56h-356zM310 183q-16 0 -28 12.5t-12 30.5q0 17 12 29.5t28 12.5t27.5 -12.5t11.5 -29.5q0 -18 -11.5 -30.5t-27.5 -12.5z" />
    <glyph glyph-name="ldot" unicode="&#x140;" horiz-adv-x="232" 
d="M158 1l-8 -2q-5 -1 -21 -1q-32 0 -50.5 21.5t-18.5 72.5v634h63v-628q0 -25 7.5 -37.5t27.5 -12.5v-47zM207 142q-16 0 -28 12.5t-12 30.5q0 17 12 29.5t28 12.5t27.5 -12.5t11.5 -29.5q0 -18 -11.5 -30.5t-27.5 -12.5z" />
    <glyph glyph-name="Lslash" unicode="&#x141;" horiz-adv-x="459" 
d="M-5 297l97 64v339h65v-301l87 63l24 -43l-111 -76v-287h292v-56h-357v305l-74 -51z" />
    <glyph glyph-name="lslash" unicode="&#x142;" horiz-adv-x="247" 
d="M14 340l78 51v335h62v-298l61 42l25 -42l-86 -57v-273q0 -25 7.5 -37.5t27.5 -12.5v-47l-8 -2q-5 -1 -21 -1q-31 0 -49.5 21.5t-18.5 72.5v242l-55 -37z" />
    <glyph glyph-name="Nacute" unicode="&#x143;" horiz-adv-x="569" 
d="M240 782l71 162h77l-90 -162h-58zM421 0l-282 584v-584h-64v700h73l282 -593v593h65v-700h-74z" />
    <glyph glyph-name="nacute" unicode="&#x144;" horiz-adv-x="462" 
d="M196 564l71 162h77l-90 -162h-58zM433 1q-3 -1 -7 -2q-5 -1 -21 -1q-32 0 -51 21.5t-19 72.5v208q0 57 -23 96t-72 39q-27 0 -47.5 -15.5t-33.5 -39t-19.5 -52t-6.5 -53.5v-275h-62v385q0 23 -7 36t-27 13v47q3 0 7 1t9 1.5t13 0.5q24 0 42.5 -18t18.5 -54v-39
q4 23 14.5 44t26 36.5t37.5 25t51 9.5q38 0 65 -15t44 -40.5t25 -59.5t8 -73v-202q0 -25 7.5 -37.5t27.5 -12.5v-47z" />
    <glyph glyph-name="uni0145" unicode="&#x145;" horiz-adv-x="569" 
d="M234 -86q0 20 12.5 33.5t30.5 13.5q19 0 32.5 -14t13.5 -40q0 -35 -10.5 -56t-23.5 -33q-15 -14 -33 -20l-19 33q11 4 20 9q8 5 13.5 11.5t6.5 16.5q-17 0 -30 13t-13 33zM421 0l-282 584v-584h-64v700h73l282 -593v593h65v-700h-74z" />
    <glyph glyph-name="uni0146" unicode="&#x146;" horiz-adv-x="462" 
d="M204 -86q0 20 12.5 33.5t30.5 13.5q19 0 32.5 -14t13.5 -40q0 -35 -10.5 -56t-23.5 -33q-15 -14 -33 -20l-19 33q11 4 20 9q8 5 13.5 11.5t6.5 16.5q-17 0 -30 13t-13 33zM433 1q-3 -1 -7 -2q-5 -1 -21 -1q-32 0 -51 21.5t-19 72.5v208q0 57 -23 96t-72 39
q-27 0 -47.5 -15.5t-33.5 -39t-19.5 -52t-6.5 -53.5v-275h-62v385q0 23 -7 36t-27 13v47q3 0 7 1t9 1.5t13 0.5q24 0 42.5 -18t18.5 -54v-39q4 23 14.5 44t26 36.5t37.5 25t51 9.5q38 0 65 -15t44 -40.5t25 -59.5t8 -73v-202q0 -25 7.5 -37.5t27.5 -12.5v-47z" />
    <glyph glyph-name="Ncaron" unicode="&#x147;" horiz-adv-x="569" 
d="M240 939l52 -112l52 112h57l-73 -163h-71l-74 163h57zM421 0l-282 584v-584h-64v700h73l282 -593v593h65v-700h-74z" />
    <glyph glyph-name="ncaron" unicode="&#x148;" horiz-adv-x="462" 
d="M195 721l52 -112l52 112h57l-73 -163h-71l-74 163h57zM433 1q-3 -1 -7 -2q-5 -1 -21 -1q-32 0 -51 21.5t-19 72.5v208q0 57 -23 96t-72 39q-27 0 -47.5 -15.5t-33.5 -39t-19.5 -52t-6.5 -53.5v-275h-62v385q0 23 -7 36t-27 13v47q3 0 7 1t9 1.5t13 0.5q24 0 42.5 -18
t18.5 -54v-39q4 23 14.5 44t26 36.5t37.5 25t51 9.5q38 0 65 -15t44 -40.5t25 -59.5t8 -73v-202q0 -25 7.5 -37.5t27.5 -12.5v-47z" />
    <glyph glyph-name="napostrophe" unicode="&#x149;" horiz-adv-x="462" 
d="M-53 682q0 17 10.5 29t26.5 12q17 0 29 -12.5t12 -35.5q0 -31 -9.5 -49t-20.5 -29q-13 -12 -29 -18l-17 29q9 4 17 8q7 4 12.5 10t5.5 15q-15 0 -26 12t-11 29zM433 1q-3 -1 -7 -2q-5 -1 -21 -1q-32 0 -51 21.5t-19 72.5v208q0 57 -23 96t-72 39q-27 0 -47.5 -15.5
t-33.5 -39t-19.5 -52t-6.5 -53.5v-275h-62v385q0 23 -7 36t-27 13v47q3 0 7 1t9 1.5t13 0.5q24 0 42.5 -18t18.5 -54v-39q4 23 14.5 44t26 36.5t37.5 25t51 9.5q38 0 65 -15t44 -40.5t25 -59.5t8 -73v-202q0 -25 7.5 -37.5t27.5 -12.5v-47z" />
    <glyph glyph-name="Eng" unicode="&#x14a;" horiz-adv-x="569" 
d="M430 0h-9l-282 592v-592h-64v700h73l282 -600v600h65v-751q0 -45 -12 -80t-33.5 -58.5t-50.5 -35.5t-63 -12q-33 0 -57 9.5t-41 20.5q-19 13 -33 31l41 45q10 -14 24 -25q11 -10 28 -17.5t38 -7.5q45 0 69.5 31.5t24.5 94.5v55z" />
    <glyph glyph-name="eng" unicode="&#x14b;" horiz-adv-x="443" 
d="M398 -9q0 -74 -30.5 -118.5t-97.5 -44.5q-20 0 -34 5t-24 11q-11 7 -19 17l20 44q6 -7 14 -12q7 -5 16 -8t20 -3q72 0 72 112v306q0 57 -23 96t-72 39q-27 0 -47.5 -15.5t-33.5 -39t-19.5 -52t-6.5 -53.5v-275h-62v385q0 23 -7 36t-27 13v47q3 0 7 1t9 1.5t13 0.5
q24 0 42.5 -18t18.5 -54v-39q4 23 14.5 44t26 36.5t37.5 25t51 9.5q38 0 65 -15t44 -40.5t25 -59.5t8 -73v-309z" />
    <glyph glyph-name="Omacron" unicode="&#x14c;" horiz-adv-x="589" 
d="M185 819v48h227v-48h-227zM295 -6q-49 0 -94 19.5t-79.5 62t-55 110t-20.5 163.5t20.5 164t55 110.5t79.5 62.5t94 20t93.5 -20t79 -62.5t55 -110.5t20.5 -164t-20.5 -163.5t-55 -110t-79 -62t-93.5 -19.5zM295 51q35 0 68 16t58.5 51t40.5 92t15 139q0 83 -15 140.5
t-40.5 93t-58.5 51t-68 15.5q-36 0 -68.5 -15.5t-58 -51t-40.5 -93t-15 -140.5q0 -82 15 -139t40.5 -92t58 -51t68.5 -16z" />
    <glyph glyph-name="omacron" unicode="&#x14d;" horiz-adv-x="437" 
d="M111 601v48h227v-48h-227zM218 -6q-80 0 -128 63.5t-48 183.5t48 183.5t128 63.5q81 0 129.5 -63.5t48.5 -183.5t-48.5 -183.5t-129.5 -63.5zM218 47q51 0 83.5 47.5t32.5 146.5t-32.5 146.5t-83.5 47.5q-50 0 -82.5 -47.5t-32.5 -146.5t32.5 -146.5t82.5 -47.5z" />
    <glyph glyph-name="Obreve" unicode="&#x14e;" horiz-adv-x="589" 
d="M295 -6q-49 0 -94 19.5t-79.5 62t-55 110t-20.5 163.5t20.5 164t55 110.5t79.5 62.5t94 20t93.5 -20t79 -62.5t55 -110.5t20.5 -164t-20.5 -163.5t-55 -110t-79 -62t-93.5 -19.5zM295 51q35 0 68 16t58.5 51t40.5 92t15 139q0 83 -15 140.5t-40.5 93t-58.5 51t-68 15.5
q-36 0 -68.5 -15.5t-58 -51t-40.5 -93t-15 -140.5q0 -82 15 -139t40.5 -92t58 -51t68.5 -16zM398 902q0 -54 -23 -86t-75 -32q-53 0 -76 32t-23 86h49q0 -38 13 -54t36 -17q25 0 37 16.5t12 54.5h50z" />
    <glyph glyph-name="obreve" unicode="&#x14f;" horiz-adv-x="437" 
d="M218 -6q-80 0 -128 63.5t-48 183.5t48 183.5t128 63.5q81 0 129.5 -63.5t48.5 -183.5t-48.5 -183.5t-129.5 -63.5zM218 47q51 0 83.5 47.5t32.5 146.5t-32.5 146.5t-83.5 47.5q-50 0 -82.5 -47.5t-32.5 -146.5t32.5 -146.5t82.5 -47.5zM318 684q0 -54 -23 -86t-75 -32
q-53 0 -76 32t-23 86h49q0 -38 13 -54t36 -17q25 0 37 16.5t12 54.5h50z" />
    <glyph glyph-name="Ohungarumlaut" unicode="&#x150;" horiz-adv-x="589" 
d="M188 782l71 162h77l-91 -162h-57zM322 782l70 162h77l-90 -162h-57zM295 -6q-49 0 -94 19.5t-79.5 62t-55 110t-20.5 163.5t20.5 164t55 110.5t79.5 62.5t94 20t93.5 -20t79 -62.5t55 -110.5t20.5 -164t-20.5 -163.5t-55 -110t-79 -62t-93.5 -19.5zM295 51q35 0 68 16
t58.5 51t40.5 92t15 139q0 83 -15 140.5t-40.5 93t-58.5 51t-68 15.5q-36 0 -68.5 -15.5t-58 -51t-40.5 -93t-15 -140.5q0 -82 15 -139t40.5 -92t58 -51t68.5 -16z" />
    <glyph glyph-name="ohungarumlaut" unicode="&#x151;" horiz-adv-x="437" 
d="M111 564l71 162h77l-91 -162h-57zM245 564l70 162h77l-90 -162h-57zM218 -6q-80 0 -128 63.5t-48 183.5t48 183.5t128 63.5q81 0 129.5 -63.5t48.5 -183.5t-48.5 -183.5t-129.5 -63.5zM218 47q51 0 83.5 47.5t32.5 146.5t-32.5 146.5t-83.5 47.5q-50 0 -82.5 -47.5
t-32.5 -146.5t32.5 -146.5t82.5 -47.5z" />
    <glyph glyph-name="OE" unicode="&#x152;" horiz-adv-x="868" 
d="M295 -6q-49 0 -94 19.5t-79.5 62t-55 110t-20.5 163.5t20.5 164t55 110.5t79.5 62.5t94 20q53 0 101 -23.5t83 -74.5v92h347v-56h-282v-268h238v-55h-238v-265h282v-56h-347v90q-35 -51 -83 -73.5t-101 -22.5zM295 51q35 0 68 16t58.5 51t40.5 92t15 139q0 83 -15 140.5
t-40.5 93t-58.5 51t-68 15.5q-36 0 -68.5 -15.5t-58 -51t-40.5 -93t-15 -140.5q0 -82 15 -139t40.5 -92t58 -51t68.5 -16z" />
    <glyph glyph-name="oe" unicode="&#x153;" horiz-adv-x="706" 
d="M218 -6q-80 0 -128 63.5t-48 183.5t48 183.5t128 63.5q48 0 85 -22.5t60 -67.5q44 90 148 90q42 0 71 -16.5t47 -46t26 -69t8 -84.5v-27h-266v-12q1 -56 13.5 -92t31 -57t40 -29t40.5 -8q28 0 48 10.5t34 24.5q16 15 26 35l35 -36q-13 -25 -34 -44q-18 -17 -46.5 -30
t-70.5 -13q-45 0 -84.5 20.5t-64.5 71.5q-48 -92 -147 -92zM218 47q51 0 83.5 47.5t32.5 146.5t-32.5 146.5t-83.5 47.5q-50 0 -82.5 -47.5t-32.5 -146.5t32.5 -146.5t82.5 -47.5zM604 290q0 30 -5 56.5t-16.5 46t-30 31t-44.5 11.5q-44 0 -73.5 -34t-35.5 -111h205z" />
    <glyph glyph-name="Racute" unicode="&#x154;" horiz-adv-x="559" 
d="M213 782l71 162h77l-90 -162h-58zM550 1q-6 -1 -13 -2q-6 -1 -13 -1h-14q-38 0 -63 22t-43 55t-32.5 72t-30.5 72t-37.5 55t-54.5 22h-110v-296h-64v700h189q93 0 145.5 -48.5t52.5 -155.5q0 -39 -9.5 -69.5t-25 -53t-36.5 -37t-45 -21.5q20 -11 35 -34.5t28 -53
t24.5 -61t25 -57.5t30 -43t38.5 -17h23v-48zM255 348q30 0 56 9.5t45 28t30 45.5t11 63q0 68 -35.5 109t-101.5 41h-121v-296h116z" />
    <glyph glyph-name="racute" unicode="&#x155;" horiz-adv-x="319" 
d="M101 564l71 162h77l-90 -162h-58zM71 0v384q0 23 -7 36.5t-27 13.5v47q2 0 6 1q8 2 21 2q24 0 43 -16.5t19 -57.5v-38q5 22 15 43t25.5 37.5t37 26t50.5 9.5q13 0 22.5 -2t16.5 -4q8 -3 13 -5l-25 -57q-5 2 -11 5q-5 2 -13 3.5t-19 1.5q-27 0 -46.5 -15t-32.5 -38
t-19.5 -50t-6.5 -52v-275h-62z" />
    <glyph glyph-name="uni0156" unicode="&#x156;" horiz-adv-x="559" 
d="M228 -86q0 20 12.5 33.5t30.5 13.5q19 0 32.5 -14t13.5 -40q0 -35 -10.5 -56t-23.5 -33q-15 -14 -33 -20l-19 33q11 4 20 9q8 5 13.5 11.5t6.5 16.5q-17 0 -30 13t-13 33zM550 1q-6 -1 -13 -2q-6 -1 -13 -1h-14q-38 0 -63 22t-43 55t-32.5 72t-30.5 72t-37.5 55t-54.5 22
h-110v-296h-64v700h189q93 0 145.5 -48.5t52.5 -155.5q0 -39 -9.5 -69.5t-25 -53t-36.5 -37t-45 -21.5q20 -11 35 -34.5t28 -53t24.5 -61t25 -57.5t30 -43t38.5 -17h23v-48zM255 348q30 0 56 9.5t45 28t30 45.5t11 63q0 68 -35.5 109t-101.5 41h-121v-296h116z" />
    <glyph glyph-name="uni0157" unicode="&#x157;" horiz-adv-x="319" 
d="M57 -86q0 20 12.5 33.5t30.5 13.5q19 0 32.5 -14t13.5 -40q0 -35 -10.5 -56t-23.5 -33q-15 -14 -33 -20l-19 33q11 4 20 9q8 5 13.5 11.5t6.5 16.5q-17 0 -30 13t-13 33zM71 0v384q0 23 -7 36.5t-27 13.5v47q2 0 6 1q8 2 21 2q24 0 43 -16.5t19 -57.5v-38q5 22 15 43
t25.5 37.5t37 26t50.5 9.5q13 0 22.5 -2t16.5 -4q8 -3 13 -5l-25 -57q-5 2 -11 5q-5 2 -13 3.5t-19 1.5q-27 0 -46.5 -15t-32.5 -38t-19.5 -50t-6.5 -52v-275h-62z" />
    <glyph glyph-name="Rcaron" unicode="&#x158;" horiz-adv-x="559" 
d="M190 939l52 -112l52 112h57l-73 -163h-71l-74 163h57zM550 1q-6 -1 -13 -2q-6 -1 -13 -1h-14q-38 0 -63 22t-43 55t-32.5 72t-30.5 72t-37.5 55t-54.5 22h-110v-296h-64v700h189q93 0 145.5 -48.5t52.5 -155.5q0 -39 -9.5 -69.5t-25 -53t-36.5 -37t-45 -21.5
q20 -11 35 -34.5t28 -53t24.5 -61t25 -57.5t30 -43t38.5 -17h23v-48zM255 348q30 0 56 9.5t45 28t30 45.5t11 63q0 68 -35.5 109t-101.5 41h-121v-296h116z" />
    <glyph glyph-name="rcaron" unicode="&#x159;" horiz-adv-x="319" 
d="M120 721l52 -112l52 112h57l-73 -163h-71l-74 163h57zM71 0v384q0 23 -7 36.5t-27 13.5v47q2 0 6 1q8 2 21 2q24 0 43 -16.5t19 -57.5v-38q5 22 15 43t25.5 37.5t37 26t50.5 9.5q13 0 22.5 -2t16.5 -4q8 -3 13 -5l-25 -57q-5 2 -11 5q-5 2 -13 3.5t-19 1.5
q-27 0 -46.5 -15t-32.5 -38t-19.5 -50t-6.5 -52v-275h-62z" />
    <glyph glyph-name="Sacute" unicode="&#x15a;" horiz-adv-x="508" 
d="M213 782l71 162h77l-90 -162h-58zM411 545q-11 29 -32 52q-18 20 -48 36t-76 16q-35 0 -61 -11t-43.5 -29t-26.5 -41.5t-9 -49.5q0 -40 15.5 -64t40 -39t56.5 -23t65.5 -16.5t65.5 -19.5t56.5 -32t40 -54t15.5 -85q0 -39 -13 -73.5t-39 -60.5t-65.5 -41.5t-92.5 -15.5
q-65 0 -108.5 20.5t-69.5 46.5q-31 29 -49 67l41 38q17 -32 43 -58q23 -22 58 -39.5t85 -17.5q67 0 105.5 35.5t38.5 96.5q0 41 -15.5 66.5t-40 40.5t-56.5 23t-65.5 16t-65.5 19t-56.5 31.5t-40 53t-15.5 84.5q0 39 13 73t38.5 60t63.5 41t87 15q64 0 104.5 -20t63.5 -44
q27 -28 40 -63z" />
    <glyph glyph-name="sacute" unicode="&#x15b;" horiz-adv-x="394" 
d="M166 564l71 162h77l-90 -162h-58zM289 310q1 5 2 11q1 5 2 12.5t1 16.5q0 33 -21.5 59t-73.5 26q-46 0 -68.5 -24.5t-22.5 -64.5q0 -35 18 -52t45.5 -25.5t59.5 -14t59.5 -17.5t45.5 -36.5t18 -71.5q0 -63 -38 -99t-116 -36q-49 0 -81.5 15t-52.5 33q-23 21 -36 48l36 40
q13 -24 32 -42q17 -16 41 -28.5t58 -12.5q48 0 72 21.5t24 58.5q0 32 -18.5 46.5t-45.5 23t-59.5 14.5t-59.5 19.5t-45.5 40t-18.5 74.5q0 28 8.5 53.5t26.5 45.5t47 32t71 12q43 0 72.5 -12t47 -30.5t25 -42.5t7.5 -48q0 -11 -1 -19t-2 -14l-3 -12h-56z" />
    <glyph glyph-name="Scircumflex" unicode="&#x15c;" horiz-adv-x="508" 
d="M139 774l74 162h71l73 -162h-56l-53 112l-52 -112h-57zM411 545q-11 29 -32 52q-18 20 -48 36t-76 16q-35 0 -61 -11t-43.5 -29t-26.5 -41.5t-9 -49.5q0 -40 15.5 -64t40 -39t56.5 -23t65.5 -16.5t65.5 -19.5t56.5 -32t40 -54t15.5 -85q0 -39 -13 -73.5t-39 -60.5
t-65.5 -41.5t-92.5 -15.5q-65 0 -108.5 20.5t-69.5 46.5q-31 29 -49 67l41 38q17 -32 43 -58q23 -22 58 -39.5t85 -17.5q67 0 105.5 35.5t38.5 96.5q0 41 -15.5 66.5t-40 40.5t-56.5 23t-65.5 16t-65.5 19t-56.5 31.5t-40 53t-15.5 84.5q0 39 13 73t38.5 60t63.5 41t87 15
q64 0 104.5 -20t63.5 -44q27 -28 40 -63z" />
    <glyph glyph-name="scircumflex" unicode="&#x15d;" horiz-adv-x="394" 
d="M93 556l74 162h71l73 -162h-56l-53 112l-52 -112h-57zM289 310q1 5 2 11q1 5 2 12.5t1 16.5q0 33 -21.5 59t-73.5 26q-46 0 -68.5 -24.5t-22.5 -64.5q0 -35 18 -52t45.5 -25.5t59.5 -14t59.5 -17.5t45.5 -36.5t18 -71.5q0 -63 -38 -99t-116 -36q-49 0 -81.5 15t-52.5 33
q-23 21 -36 48l36 40q13 -24 32 -42q17 -16 41 -28.5t58 -12.5q48 0 72 21.5t24 58.5q0 32 -18.5 46.5t-45.5 23t-59.5 14.5t-59.5 19.5t-45.5 40t-18.5 74.5q0 28 8.5 53.5t26.5 45.5t47 32t71 12q43 0 72.5 -12t47 -30.5t25 -42.5t7.5 -48q0 -11 -1 -19t-2 -14l-3 -12h-56
z" />
    <glyph glyph-name="Scedilla" unicode="&#x15e;" horiz-adv-x="508" 
d="M411 545q-11 29 -32 52q-18 20 -48 36t-76 16q-35 0 -61 -11t-43.5 -29t-26.5 -41.5t-9 -49.5q0 -40 15.5 -64t40 -39t56.5 -23t65.5 -16.5t65.5 -19.5t56.5 -32t40 -54t15.5 -85q0 -38 -12 -71.5t-36 -59t-60.5 -41.5t-85.5 -18l-10 -32q20 -2 38.5 -18.5t18.5 -49.5
q0 -34 -20.5 -52t-52.5 -18q-17 0 -29 4.5t-20 9.5q-10 6 -16 15l16 32q6 -7 13 -12q6 -5 15 -8.5t20 -3.5q36 0 36 34q0 14 -15 27t-53 13l21 59q-59 4 -98 25t-63 45q-28 28 -44 63l41 38q17 -32 43 -58q23 -22 58 -39.5t85 -17.5q67 0 105.5 35.5t38.5 96.5
q0 41 -15.5 66.5t-40 40.5t-56.5 23t-65.5 16t-65.5 19t-56.5 31.5t-40 53t-15.5 84.5q0 39 13 73t38.5 60t63.5 41t87 15q64 0 104.5 -20t63.5 -44q27 -28 40 -63z" />
    <glyph glyph-name="scedilla" unicode="&#x15f;" horiz-adv-x="394" 
d="M289 310q1 5 2 11q1 5 2 12.5t1 16.5q0 33 -21.5 59t-73.5 26q-46 0 -68.5 -24.5t-22.5 -64.5q0 -35 18 -52t45.5 -25.5t59.5 -14t59.5 -17.5t45.5 -36.5t18 -71.5q0 -60 -33.5 -95.5t-102.5 -38.5l-11 -32q20 -2 38.5 -18.5t18.5 -49.5q0 -34 -20.5 -52t-52.5 -18
q-16 0 -28 4.5t-20 9.5q-10 6 -17 15l16 28q6 -7 13 -12q6 -5 15 -8t20 -3q40 0 40 37q0 16 -13.5 29.5t-51.5 13.5l18 56q-45 2 -73.5 17.5t-46.5 32.5q-21 20 -33 45l36 40q13 -24 32 -42q17 -16 41 -28.5t58 -12.5q48 0 72 21.5t24 58.5q0 32 -18.5 46.5t-45.5 23
t-59.5 14.5t-59.5 19.5t-45.5 40t-18.5 74.5q0 28 8.5 53.5t26.5 45.5t47 32t71 12q43 0 72.5 -12t47 -30.5t25 -42.5t7.5 -48q0 -11 -1 -19t-2 -14l-3 -12h-56z" />
    <glyph glyph-name="Scaron" unicode="&#x160;" horiz-adv-x="508" 
d="M206 939l52 -112l52 112h57l-73 -163h-71l-74 163h57zM411 545q-11 29 -32 52q-18 20 -48 36t-76 16q-35 0 -61 -11t-43.5 -29t-26.5 -41.5t-9 -49.5q0 -40 15.5 -64t40 -39t56.5 -23t65.5 -16.5t65.5 -19.5t56.5 -32t40 -54t15.5 -85q0 -39 -13 -73.5t-39 -60.5
t-65.5 -41.5t-92.5 -15.5q-65 0 -108.5 20.5t-69.5 46.5q-31 29 -49 67l41 38q17 -32 43 -58q23 -22 58 -39.5t85 -17.5q67 0 105.5 35.5t38.5 96.5q0 41 -15.5 66.5t-40 40.5t-56.5 23t-65.5 16t-65.5 19t-56.5 31.5t-40 53t-15.5 84.5q0 39 13 73t38.5 60t63.5 41t87 15
q64 0 104.5 -20t63.5 -44q27 -28 40 -63z" />
    <glyph glyph-name="scaron" unicode="&#x161;" horiz-adv-x="394" 
d="M151 721l52 -112l52 112h57l-73 -163h-71l-74 163h57zM289 310q1 5 2 11q1 5 2 12.5t1 16.5q0 33 -21.5 59t-73.5 26q-46 0 -68.5 -24.5t-22.5 -64.5q0 -35 18 -52t45.5 -25.5t59.5 -14t59.5 -17.5t45.5 -36.5t18 -71.5q0 -63 -38 -99t-116 -36q-49 0 -81.5 15t-52.5 33
q-23 21 -36 48l36 40q13 -24 32 -42q17 -16 41 -28.5t58 -12.5q48 0 72 21.5t24 58.5q0 32 -18.5 46.5t-45.5 23t-59.5 14.5t-59.5 19.5t-45.5 40t-18.5 74.5q0 28 8.5 53.5t26.5 45.5t47 32t71 12q43 0 72.5 -12t47 -30.5t25 -42.5t7.5 -48q0 -11 -1 -19t-2 -14l-3 -12h-56
z" />
    <glyph glyph-name="uni0162" unicode="&#x162;" horiz-adv-x="504" 
d="M201 -86q0 20 12.5 33.5t30.5 13.5q19 0 32.5 -14t13.5 -40q0 -35 -10.5 -56t-23.5 -33q-15 -14 -33 -20l-19 33q11 4 20 9q8 5 13.5 11.5t6.5 16.5q-17 0 -30 13t-13 33zM221 0v644h-208v56h478v-56h-206v-644h-64z" />
    <glyph glyph-name="uni0163" unicode="&#x163;" horiz-adv-x="343" 
d="M149 -114q0 20 12.5 33.5t30.5 13.5q19 0 32.5 -14t13.5 -40q0 -35 -10.5 -56t-23.5 -33q-15 -14 -33 -20l-19 33q11 4 20 9q8 5 13.5 11.5t6.5 16.5q-17 0 -30 13t-13 33zM330 47q-12 -16 -27 -27q-14 -10 -32.5 -18t-42.5 -8q-73 0 -105 42.5t-32 127.5v267h-64v51h64
v150h63v-150h158v-51h-158v-265q0 -59 19 -88.5t61 -29.5q18 0 32 6.5t24 14.5q11 10 20 22z" />
    <glyph glyph-name="Tcaron" unicode="&#x164;" horiz-adv-x="504" 
d="M192 939l52 -112l52 112h57l-73 -163h-71l-74 163h57zM221 0v644h-208v56h478v-56h-206v-644h-64z" />
    <glyph glyph-name="tcaron" unicode="&#x165;" horiz-adv-x="343" 
d="M197 645q0 20 12.5 33.5t30.5 13.5q19 0 32.5 -14t13.5 -40q0 -35 -10.5 -56t-23.5 -33q-15 -14 -33 -20l-19 33q11 4 20 9q8 5 13.5 11.5t6.5 16.5q-17 0 -30 13t-13 33zM330 47q-12 -16 -27 -27q-14 -10 -32.5 -18t-42.5 -8q-73 0 -105 42.5t-32 127.5v267h-64v51h64
v150h63v-150h158v-51h-158v-265q0 -59 19 -88.5t61 -29.5q18 0 32 6.5t24 14.5q11 10 20 22z" />
    <glyph glyph-name="Tbar" unicode="&#x166;" horiz-adv-x="515" 
d="M105 449h120v195h-209v56h483v-56h-207v-195h118v-55h-118v-394h-67v394h-120v55z" />
    <glyph glyph-name="tbar" unicode="&#x167;" horiz-adv-x="343" 
d="M46 303h45v128h-64v51h64v150h63v-150h158v-51h-158v-128h130v-51h-130v-86q0 -59 19 -88.5t61 -29.5q18 0 32 6.5t24 14.5q11 10 20 22l20 -44q-12 -16 -27 -27q-14 -10 -32.5 -18t-42.5 -8q-73 0 -105 42.5t-32 127.5v88h-45v51z" />
    <glyph glyph-name="Utilde" unicode="&#x168;" horiz-adv-x="566" 
d="M432 700h64v-414q0 -84 -16 -140t-44.5 -89.5t-67.5 -48t-85 -14.5q-45 0 -84.5 14.5t-68.5 48t-45.5 89.5t-16.5 140v414h65v-418q0 -125 39.5 -178t110.5 -53q35 0 63 12.5t47 40.5t29 71.5t10 106.5v418zM161 779q-3 5 -5 12q-5 12 -5 31q0 29 17 49.5t49 20.5
q18 0 34 -5.5t30.5 -12t28.5 -12t28 -5.5q20 0 20 22q0 7 -1.5 13t-3.5 11l-4 10h51l4 -12t3 -13.5t1 -16.5q0 -27 -15.5 -46.5t-47.5 -19.5q-21 0 -37.5 5.5t-31 12.5t-26.5 12.5t-24 5.5q-11 0 -17.5 -7.5t-6.5 -21.5t5 -24q2 -5 5 -9h-51z" />
    <glyph glyph-name="utilde" unicode="&#x169;" 
d="M417 1q-3 -1 -7 -2t-9.5 -1h-12.5q-28 0 -45 18t-17 60v19q-14 -41 -48.5 -71t-91.5 -30q-63 0 -95 41t-32 128v319h62v-312q0 -68 23.5 -95.5t61.5 -27.5q30 0 51.5 16t35.5 39.5t20.5 48.5t6.5 43v288h62v-383q0 -25 7 -38t28 -13v-47zM105 570q-3 5 -5 12q-5 12 -5 31
q0 29 17 49.5t49 20.5q18 0 34 -5.5t30.5 -12t28.5 -12t28 -5.5q20 0 20 22q0 7 -1.5 13t-3.5 11l-4 10h51l4 -12t3 -13.5t1 -16.5q0 -27 -15.5 -46.5t-47.5 -19.5q-21 0 -37.5 5.5t-31 12.5t-26.5 12.5t-24 5.5q-11 0 -17.5 -7.5t-6.5 -21.5t5 -24q2 -5 5 -9h-51z" />
    <glyph glyph-name="Umacron" unicode="&#x16a;" horiz-adv-x="566" 
d="M432 700h64v-414q0 -84 -16 -140t-44.5 -89.5t-67.5 -48t-85 -14.5q-45 0 -84.5 14.5t-68.5 48t-45.5 89.5t-16.5 140v414h65v-418q0 -125 39.5 -178t110.5 -53q35 0 63 12.5t47 40.5t29 71.5t10 106.5v418zM168 819v48h227v-48h-227z" />
    <glyph glyph-name="umacron" unicode="&#x16b;" 
d="M417 1q-3 -1 -7 -2t-9.5 -1h-12.5q-28 0 -45 18t-17 60v19q-14 -41 -48.5 -71t-91.5 -30q-63 0 -95 41t-32 128v319h62v-312q0 -68 23.5 -95.5t61.5 -27.5q30 0 51.5 16t35.5 39.5t20.5 48.5t6.5 43v288h62v-383q0 -25 7 -38t28 -13v-47zM107 601v48h227v-48h-227z" />
    <glyph glyph-name="Ubreve" unicode="&#x16c;" horiz-adv-x="566" 
d="M432 700h64v-414q0 -84 -16 -140t-44.5 -89.5t-67.5 -48t-85 -14.5q-45 0 -84.5 14.5t-68.5 48t-45.5 89.5t-16.5 140v414h65v-418q0 -125 39.5 -178t110.5 -53q35 0 63 12.5t47 40.5t29 71.5t10 106.5v418zM379 902q0 -54 -23 -86t-75 -32q-53 0 -76 32t-23 86h49
q0 -38 13 -54t36 -17q25 0 37 16.5t12 54.5h50z" />
    <glyph glyph-name="ubreve" unicode="&#x16d;" 
d="M417 1q-3 -1 -7 -2t-9.5 -1h-12.5q-28 0 -45 18t-17 60v19q-14 -41 -48.5 -71t-91.5 -30q-63 0 -95 41t-32 128v319h62v-312q0 -68 23.5 -95.5t61.5 -27.5q30 0 51.5 16t35.5 39.5t20.5 48.5t6.5 43v288h62v-383q0 -25 7 -38t28 -13v-47zM318 684q0 -54 -23 -86t-75 -32
q-53 0 -76 32t-23 86h49q0 -38 13 -54t36 -17q25 0 37 16.5t12 54.5h50z" />
    <glyph glyph-name="Uring" unicode="&#x16e;" horiz-adv-x="566" 
d="M280 779q-29 0 -47 21t-18 53t18 53t47 21q28 0 47 -21t19 -53t-19 -53t-47 -21zM313 853q0 17 -9 28t-24 11t-24 -11t-9 -28q0 -18 9 -29t24 -11t24 11t9 29zM432 700h64v-414q0 -84 -16 -140t-44.5 -89.5t-67.5 -48t-85 -14.5q-45 0 -84.5 14.5t-68.5 48t-45.5 89.5
t-16.5 140v414h65v-418q0 -125 39.5 -178t110.5 -53q35 0 63 12.5t47 40.5t29 71.5t10 106.5v418z" />
    <glyph glyph-name="uring" unicode="&#x16f;" 
d="M217 561q-29 0 -47 21t-18 53t18 53t47 21q28 0 47 -21t19 -53t-19 -53t-47 -21zM250 635q0 17 -9 28t-24 11t-24 -11t-9 -28q0 -18 9 -29t24 -11t24 11t9 29zM417 1q-3 -1 -7 -2t-9.5 -1h-12.5q-28 0 -45 18t-17 60v19q-14 -41 -48.5 -71t-91.5 -30q-63 0 -95 41
t-32 128v319h62v-312q0 -68 23.5 -95.5t61.5 -27.5q30 0 51.5 16t35.5 39.5t20.5 48.5t6.5 43v288h62v-383q0 -25 7 -38t28 -13v-47z" />
    <glyph glyph-name="Uhungarumlaut" unicode="&#x170;" horiz-adv-x="566" 
d="M432 700h64v-414q0 -84 -16 -140t-44.5 -89.5t-67.5 -48t-85 -14.5q-45 0 -84.5 14.5t-68.5 48t-45.5 89.5t-16.5 140v414h65v-418q0 -125 39.5 -178t110.5 -53q35 0 63 12.5t47 40.5t29 71.5t10 106.5v418zM170 782l71 162h77l-91 -162h-57zM304 782l70 162h77l-90 -162
h-57z" />
    <glyph glyph-name="uhungarumlaut" unicode="&#x171;" 
d="M417 1q-3 -1 -7 -2t-9.5 -1h-12.5q-28 0 -45 18t-17 60v19q-14 -41 -48.5 -71t-91.5 -30q-63 0 -95 41t-32 128v319h62v-312q0 -68 23.5 -95.5t61.5 -27.5q30 0 51.5 16t35.5 39.5t20.5 48.5t6.5 43v288h62v-383q0 -25 7 -38t28 -13v-47zM111 564l71 162h77l-91 -162h-57
zM245 564l70 162h77l-90 -162h-57z" />
    <glyph glyph-name="Uogonek" unicode="&#x172;" horiz-adv-x="566" 
d="M432 700h64v-414q0 -77 -13.5 -131t-38 -88t-58 -51t-73.5 -20q-6 -4 -14.5 -10t-16 -15.5t-13 -22t-5.5 -29.5q0 -43 35 -43q8 0 15.5 3t12.5 7q6 4 10 10l15 -34q-6 -8 -15 -14q-8 -5 -18.5 -9t-24.5 -4q-29 0 -49.5 17.5t-20.5 55.5q0 31 10 52t24 35q-41 3 -75.5 19
t-60 50t-40 88.5t-14.5 133.5v414h65v-418q0 -125 39.5 -178t110.5 -53q35 0 63 12.5t47 40.5t29 71.5t10 106.5v418z" />
    <glyph glyph-name="uogonek" unicode="&#x173;" 
d="M417 1q-2 -1 -4 -1t-4.5 -0.5t-5.5 -0.5q-5 -3 -14 -8.5t-18 -15.5t-15.5 -23.5t-6.5 -32.5q0 -43 34 -43q9 0 16 3t12 7t10 10l15 -34q-6 -8 -15 -14q-8 -5 -18.5 -9t-24.5 -4q-29 0 -49 17.5t-20 55.5q0 36 14.5 59.5t32.5 37.5q-30 16 -30 71v19q-14 -41 -48.5 -71
t-91.5 -30q-63 0 -95 41t-32 128v319h62v-312q0 -68 23.5 -95.5t61.5 -27.5q30 0 51.5 16t35.5 39.5t20.5 48.5t6.5 43v288h62v-383q0 -25 7 -38t28 -13v-47z" />
    <glyph glyph-name="Wcircumflex" unicode="&#x174;" horiz-adv-x="821" 
d="M301 774l74 162h71l73 -162h-56l-53 112l-52 -112h-57zM587 81l129 619h77l-170 -700h-72l-141 597l-141 -597h-71l-170 700h77l128 -619l147 619h61z" />
    <glyph glyph-name="wcircumflex" unicode="&#x175;" horiz-adv-x="635" 
d="M209 556l74 162h71l73 -162h-56l-53 112l-52 -112h-57zM409 0l-89 369l-94 -369h-69l-130 482h68l97 -412l101 405h57l94 -405l97 412h65l-128 -482h-69z" />
    <glyph glyph-name="Ycircumflex" unicode="&#x176;" horiz-adv-x="527" 
d="M231 0v307l-211 393h77l167 -335l166 335h77l-212 -393v-307h-64zM154 774l74 162h71l73 -162h-56l-53 112l-52 -112h-57z" />
    <glyph glyph-name="ycircumflex" unicode="&#x177;" horiz-adv-x="424" 
d="M204 -135q-8 -23 -18.5 -43.5t-25 -35.5t-34 -24t-45.5 -9q-14 0 -24 2t-18 4q-9 3 -15 6l9 52q6 -3 13 -5q6 -2 14 -3t17 -1q31 0 46 20t26 53l33 114l-158 487h67l123 -409l119 409h66zM99 556l74 162h71l73 -162h-56l-53 112l-52 -112h-57z" />
    <glyph glyph-name="Ydieresis" unicode="&#x178;" horiz-adv-x="527" 
d="M231 0v307l-211 393h77l167 -335l166 335h77l-212 -393v-307h-64zM189 810q-16 0 -27.5 12.5t-11.5 30.5q0 17 11.5 30t27.5 13t27.5 -13t11.5 -30q0 -18 -11.5 -30.5t-27.5 -12.5zM336 810q-16 0 -27.5 12.5t-11.5 30.5q0 17 11.5 30t27.5 13q17 0 28 -13t11 -30
q0 -18 -11 -30.5t-28 -12.5z" />
    <glyph glyph-name="Zacute" unicode="&#x179;" horiz-adv-x="499" 
d="M179 782l71 162h77l-90 -162h-58zM37 0v56l347 588h-347v56h426v-56l-346 -588h346v-56h-426z" />
    <glyph glyph-name="zacute" unicode="&#x17a;" horiz-adv-x="385" 
d="M163 564l71 162h77l-90 -162h-58zM37 0v51l240 380h-240v51h311v-51l-237 -380h237v-51h-311z" />
    <glyph glyph-name="Zdotaccent" unicode="&#x17b;" horiz-adv-x="499" 
d="M37 0v56l347 588h-347v56h426v-56l-346 -588h346v-56h-426zM261 816q-16 0 -28 12.5t-12 30.5q0 17 12 29.5t28 12.5t27.5 -12.5t11.5 -29.5q0 -18 -11.5 -30.5t-27.5 -12.5z" />
    <glyph glyph-name="zdotaccent" unicode="&#x17c;" horiz-adv-x="385" 
d="M37 0v51l240 380h-240v51h311v-51l-237 -380h237v-51h-311zM223 598q-16 0 -28 12.5t-12 30.5q0 17 12 29.5t28 12.5t27.5 -12.5t11.5 -29.5q0 -18 -11.5 -30.5t-27.5 -12.5z" />
    <glyph glyph-name="Zcaron" unicode="&#x17d;" horiz-adv-x="499" 
d="M207 939l52 -112l52 112h57l-73 -163h-71l-74 163h57zM37 0v56l347 588h-347v56h426v-56l-346 -588h346v-56h-426z" />
    <glyph glyph-name="zcaron" unicode="&#x17e;" horiz-adv-x="385" 
d="M155 721l52 -112l52 112h57l-73 -163h-71l-74 163h57zM37 0v51l240 380h-240v51h311v-51l-237 -380h237v-51h-311z" />
    <glyph glyph-name="longs" unicode="&#x17f;" horiz-adv-x="226" 
d="M85 0v431h-58v51h58v85q0 72 32.5 116.5t99.5 44.5q26 0 45.5 -7.5t32.5 -16.5q15 -11 24 -24l-23 -46q-6 11 -17 20q-9 8 -22.5 14.5t-33.5 6.5q-35 0 -55.5 -29t-20.5 -81v-565h-62z" />
    <glyph glyph-name="florin" unicode="&#x192;" horiz-adv-x="343" 
d="M158 -86q0 -72 -33 -116.5t-100 -44.5q-26 0 -45 7.5t-32 16.5q-15 11 -25 24l24 46l4.5 -6.5t13 -14t22 -14t32.5 -6.5q36 0 56 29t20 82v514h-58v51h58v85q0 72 33 116.5t99 44.5q26 0 45.5 -7.5t32.5 -16.5q15 -11 24 -24l-23 -46l-4.5 6.5t-13.5 14t-22.5 14
t-32.5 6.5q-35 0 -55 -29t-20 -81v-83h148v-51h-148v-517z" />
    <glyph glyph-name="AEacute" unicode="&#x1fc;" horiz-adv-x="698" 
d="M339 782l71 162h77l-90 -162h-58zM393 207h-244l-62 -207h-66l218 700h420v-56h-335l78 -263h206v-56h-185l78 -269h158v-56h-204zM168 261h206l-103 351z" />
    <glyph glyph-name="aeacute" unicode="&#x1fd;" horiz-adv-x="671" 
d="M300 564l71 162h77l-90 -162h-58zM362 245v-12q1 -56 13.5 -92t31 -57t40 -29t40.5 -8q28 0 48 10.5t34 24.5q16 15 26 35l35 -36q-13 -25 -34 -44q-18 -17 -46.5 -30t-70.5 -13q-24 0 -48 6t-45 20t-38 36t-29 54q-3 -9 -12.5 -28t-28 -38.5t-47 -34.5t-68.5 -15
q-61 0 -94.5 32.5t-33.5 90.5q0 60 37.5 93.5t119.5 33.5h108v78q0 59 -24 85.5t-69 26.5q-46 0 -69 -25.5t-23 -66.5q0 -11 1 -19t3 -13q2 -6 4 -11h-57q-3 5 -5 13q-2 7 -3 17t-1 24q0 57 39 96t112 39q49 0 82 -20.5t51 -54.5q23 35 56.5 55t78.5 20q42 0 71 -16.5
t47 -46t26 -69t8 -84.5v-27h-266zM300 198h-108q-45 0 -69 -19.5t-24 -56.5t21.5 -57.5t58.5 -20.5q35 0 58.5 20t37.5 45q16 28 25 65v24zM569 290q0 30 -5 56.5t-16.5 46t-30 31t-44.5 11.5q-44 0 -73.5 -34t-35.5 -111h205z" />
    <glyph glyph-name="Oslashacute" unicode="&#x1fe;" horiz-adv-x="588" 
d="M530 716l-56 -101q32 -43 50.5 -108.5t18.5 -157.5q0 -96 -20.5 -163.5t-55 -110t-79 -62t-93.5 -19.5q-38 0 -74 11.5t-67 36.5l-32 -58h-66l57 102q-31 43 -49 107.5t-18 155.5q0 96 20.5 164t55 110.5t79.5 62.5t94 20q38 0 72.5 -11.5t65.5 -36.5l32 58h65zM295 51
q35 0 68 16t58.5 51t40.5 92t15 139q0 68 -10.5 118t-27.5 85l-254 -455q23 -24 51.5 -35t58.5 -11zM113 349q0 -66 9.5 -115t26.5 -84l253 454q-23 23 -50.5 34t-56.5 11q-36 0 -68.5 -15.5t-58 -51t-40.5 -93t-15 -140.5zM262 782l71 162h77l-90 -162h-58z" />
    <glyph glyph-name="oslashacute" unicode="&#x1ff;" horiz-adv-x="437" 
d="M387 503l-42 -77q24 -32 37.5 -78t13.5 -107q0 -120 -48.5 -183.5t-129.5 -63.5q-54 0 -92 28l-22 -42h-51l40 74q-51 65 -51 187q0 120 48 183.5t128 63.5q55 0 94 -30l25 45h50zM103 241q0 -41 5.5 -72.5t16.5 -54.5l160 293q-28 28 -67 28q-50 0 -82.5 -47.5
t-32.5 -146.5zM218 47q51 0 83.5 47.5t32.5 146.5q0 39 -5.5 70t-16.5 54l-158 -293q26 -25 64 -25zM183 564l71 162h77l-90 -162h-58z" />
    <glyph glyph-name="uni0218" unicode="&#x218;" horiz-adv-x="508" 
d="M213 -86q0 20 12.5 33.5t30.5 13.5q19 0 32.5 -14t13.5 -40q0 -35 -10.5 -56t-23.5 -33q-15 -14 -33 -20l-19 33q11 4 20 9q8 5 13.5 11.5t6.5 16.5q-17 0 -30 13t-13 33zM411 545q-11 29 -32 52q-18 20 -48 36t-76 16q-35 0 -61 -11t-43.5 -29t-26.5 -41.5t-9 -49.5
q0 -40 15.5 -64t40 -39t56.5 -23t65.5 -16.5t65.5 -19.5t56.5 -32t40 -54t15.5 -85q0 -39 -13 -73.5t-39 -60.5t-65.5 -41.5t-92.5 -15.5q-65 0 -108.5 20.5t-69.5 46.5q-31 29 -49 67l41 38q17 -32 43 -58q23 -22 58 -39.5t85 -17.5q67 0 105.5 35.5t38.5 96.5
q0 41 -15.5 66.5t-40 40.5t-56.5 23t-65.5 16t-65.5 19t-56.5 31.5t-40 53t-15.5 84.5q0 39 13 73t38.5 60t63.5 41t87 15q64 0 104.5 -20t63.5 -44q27 -28 40 -63z" />
    <glyph glyph-name="uni0219" unicode="&#x219;" horiz-adv-x="394" 
d="M163 -86q0 20 12.5 33.5t30.5 13.5q19 0 32.5 -14t13.5 -40q0 -35 -10.5 -56t-23.5 -33q-15 -14 -33 -20l-19 33q11 4 20 9q8 5 13.5 11.5t6.5 16.5q-17 0 -30 13t-13 33zM289 310q1 5 2 11q1 5 2 12.5t1 16.5q0 33 -21.5 59t-73.5 26q-46 0 -68.5 -24.5t-22.5 -64.5
q0 -35 18 -52t45.5 -25.5t59.5 -14t59.5 -17.5t45.5 -36.5t18 -71.5q0 -63 -38 -99t-116 -36q-49 0 -81.5 15t-52.5 33q-23 21 -36 48l36 40q13 -24 32 -42q17 -16 41 -28.5t58 -12.5q48 0 72 21.5t24 58.5q0 32 -18.5 46.5t-45.5 23t-59.5 14.5t-59.5 19.5t-45.5 40
t-18.5 74.5q0 28 8.5 53.5t26.5 45.5t47 32t71 12q43 0 72.5 -12t47 -30.5t25 -42.5t7.5 -48q0 -11 -1 -19t-2 -14l-3 -12h-56z" />
    <glyph glyph-name="uni021A" unicode="&#x21a;" horiz-adv-x="504" 
d="M203 -86q0 20 12.5 33.5t30.5 13.5q19 0 32.5 -14t13.5 -40q0 -35 -10.5 -56t-23.5 -33q-15 -14 -33 -20l-19 33q11 4 20 9q8 5 13.5 11.5t6.5 16.5q-17 0 -30 13t-13 33zM221 0v644h-208v56h478v-56h-206v-644h-64z" />
    <glyph glyph-name="uni021B" unicode="&#x21b;" horiz-adv-x="343" 
d="M138 -86q0 20 12.5 33.5t30.5 13.5q19 0 32.5 -14t13.5 -40q0 -35 -10.5 -56t-23.5 -33q-15 -14 -33 -20l-19 33q11 4 20 9q8 5 13.5 11.5t6.5 16.5q-17 0 -30 13t-13 33zM330 47q-12 -16 -27 -27q-14 -10 -32.5 -18t-42.5 -8q-73 0 -105 42.5t-32 127.5v267h-64v51h64
v150h63v-150h158v-51h-158v-265q0 -59 19 -88.5t61 -29.5q18 0 32 6.5t24 14.5q11 10 20 22z" />
    <glyph glyph-name="circumflex" unicode="&#x2c6;" horiz-adv-x="288" 
d="M34 556l74 162h71l73 -162h-56l-53 112l-52 -112h-57z" />
    <glyph glyph-name="caron" unicode="&#x2c7;" horiz-adv-x="279" 
d="M87 721l52 -112l52 112h57l-73 -163h-71l-74 163h57z" />
    <glyph glyph-name="breve" unicode="&#x2d8;" horiz-adv-x="267" 
d="M232 684q0 -54 -23 -86t-75 -32q-53 0 -76 32t-23 86h49q0 -38 13 -54t36 -17q25 0 37 16.5t12 54.5h50z" />
    <glyph glyph-name="dotaccent" unicode="&#x2d9;" horiz-adv-x="152" 
d="M76 598q-16 0 -28 12.5t-12 30.5q0 17 12 29.5t28 12.5t27.5 -12.5t11.5 -29.5q0 -18 -11.5 -30.5t-27.5 -12.5z" />
    <glyph glyph-name="ring" unicode="&#x2da;" horiz-adv-x="216" 
d="M108 561q-29 0 -47 21t-18 53t18 53t47 21q28 0 47 -21t19 -53t-19 -53t-47 -21zM141 635q0 17 -9 28t-24 11t-24 -11t-9 -28q0 -18 9 -29t24 -11t24 11t9 29z" />
    <glyph glyph-name="ogonek" unicode="&#x2db;" horiz-adv-x="216" 
d="M172 -138q-6 -8 -15 -14q-8 -5 -18.5 -9t-24.5 -4q-29 0 -49 17.5t-20 55.5q0 35 14.5 59t32.5 38q21 17 48 26l6 -30q-18 -7 -31 -18q-11 -10 -20.5 -25.5t-9.5 -38.5q0 -43 34 -43q9 0 16 3t12 7t10 10z" />
    <glyph glyph-name="tilde" unicode="&#x2dc;" horiz-adv-x="332" 
d="M47 570q-3 5 -5 12q-5 12 -5 31q0 29 17 49.5t49 20.5q18 0 34 -5.5t30.5 -12t28.5 -12t28 -5.5q20 0 20 22q0 7 -1.5 13t-3.5 11l-4 10h51l4 -12t3 -13.5t1 -16.5q0 -27 -15.5 -46.5t-47.5 -19.5q-21 0 -37.5 5.5t-31 12.5t-26.5 12.5t-24 5.5q-11 0 -17.5 -7.5
t-6.5 -21.5t5 -24q2 -5 5 -9h-51z" />
    <glyph glyph-name="hungarumlaut" unicode="&#x2dd;" horiz-adv-x="329" 
d="M30 564l71 162h77l-91 -162h-57zM164 564l70 162h77l-90 -162h-57z" />
    <glyph glyph-name="uni0394" unicode="&#x394;" horiz-adv-x="566" 
d="M25 0v55l228 645h62l226 -643v-57h-516zM284 632l-198 -576h394z" />
    <glyph glyph-name="uni03A9" unicode="&#x3a9;" horiz-adv-x="730" 
d="M88 48h162v25q-53 7 -91.5 37.5t-63.5 73t-37 91.5t-12 94q0 82 23 149t65 114.5t100.5 73.5t130.5 26q71 0 130 -26t101 -73.5t65.5 -114.5t23.5 -149q0 -45 -12 -94t-37.5 -91.5t-64 -73t-91.5 -37.5v-25h162v-49h-214v124q46 0 82 21t61 55.5t38.5 79t13.5 90.5
q0 67 -19 123.5t-53 97.5t-81.5 63.5t-104.5 22.5q-58 0 -105.5 -22.5t-82 -63.5t-53.5 -97.5t-19 -123.5q0 -46 13.5 -90.5t39 -79t61.5 -55.5t82 -21v-124h-213v49z" />
    <glyph glyph-name="uni03BC" unicode="&#x3bc;" horiz-adv-x="440" 
d="M334 0v106q-7 -22 -19 -42.5t-29 -36t-40 -24.5t-51 -9q-25 0 -44 11t-29 38v-287h-56v726h62v-309q0 -66 24 -93.5t62 -27.5q28 0 49.5 15.5t35.5 37.5t21 47t7 45v285h62v-482h-55z" />
    <glyph glyph-name="pi" unicode="&#x3c0;" horiz-adv-x="472" 
d="M57 51q20 0 27.5 13t7.5 37v329h-65v52h419v-52h-63v-430h-62v430h-166v-343q0 -48 -20.5 -68.5t-50.5 -20.5h-11t-9 1t-7 2v50z" />
    <glyph glyph-name="Wgrave" unicode="&#x1e80;" horiz-adv-x="821" 
d="M587 81l129 619h77l-170 -700h-72l-141 597l-141 -597h-71l-170 700h77l128 -619l147 619h61zM377 782l-91 162h77l70 -162h-56z" />
    <glyph glyph-name="wgrave" unicode="&#x1e81;" horiz-adv-x="635" 
d="M409 0l-89 369l-94 -369h-69l-130 482h68l97 -412l101 405h57l94 -405l97 412h65l-128 -482h-69zM298 564l-91 162h77l70 -162h-56z" />
    <glyph glyph-name="Wacute" unicode="&#x1e82;" horiz-adv-x="821" 
d="M383 782l71 162h77l-90 -162h-58zM587 81l129 619h77l-170 -700h-72l-141 597l-141 -597h-71l-170 700h77l128 -619l147 619h61z" />
    <glyph glyph-name="wacute" unicode="&#x1e83;" horiz-adv-x="635" 
d="M301 564l71 162h77l-90 -162h-58zM409 0l-89 369l-94 -369h-69l-130 482h68l97 -412l101 405h57l94 -405l97 412h65l-128 -482h-69z" />
    <glyph glyph-name="Wdieresis" unicode="&#x1e84;" horiz-adv-x="821" 
d="M341 810q-16 0 -27.5 12.5t-11.5 30.5q0 17 11.5 30t27.5 13t27.5 -13t11.5 -30q0 -18 -11.5 -30.5t-27.5 -12.5zM488 810q-16 0 -27.5 12.5t-11.5 30.5q0 17 11.5 30t27.5 13q17 0 28 -13t11 -30q0 -18 -11 -30.5t-28 -12.5zM587 81l129 619h77l-170 -700h-72l-141 597
l-141 -597h-71l-170 700h77l128 -619l147 619h61z" />
    <glyph glyph-name="wdieresis" unicode="&#x1e85;" horiz-adv-x="635" 
d="M255 592q-16 0 -27.5 12.5t-11.5 30.5q0 17 11.5 30t27.5 13t27.5 -13t11.5 -30q0 -18 -11.5 -30.5t-27.5 -12.5zM402 592q-16 0 -27.5 12.5t-11.5 30.5q0 17 11.5 30t27.5 13q17 0 28 -13t11 -30q0 -18 -11 -30.5t-28 -12.5zM409 0l-89 369l-94 -369h-69l-130 482h68
l97 -412l101 405h57l94 -405l97 412h65l-128 -482h-69z" />
    <glyph glyph-name="Ygrave" unicode="&#x1ef2;" horiz-adv-x="527" 
d="M231 0v307l-211 393h77l167 -335l166 335h77l-212 -393v-307h-64zM231 782l-91 162h77l70 -162h-56z" />
    <glyph glyph-name="ygrave" unicode="&#x1ef3;" horiz-adv-x="424" 
d="M204 -135q-8 -23 -18.5 -43.5t-25 -35.5t-34 -24t-45.5 -9q-14 0 -24 2t-18 4q-9 3 -15 6l9 52q6 -3 13 -5q6 -2 14 -3t17 -1q31 0 46 20t26 53l33 114l-158 487h67l123 -409l119 409h66zM185 564l-91 162h77l70 -162h-56z" />
    <glyph glyph-name="endash" unicode="&#x2013;" horiz-adv-x="462" 
d="M59 249v49h344v-49h-344z" />
    <glyph glyph-name="emdash" unicode="&#x2014;" horiz-adv-x="753" 
d="M59 249v49h635v-49h-635z" />
    <glyph glyph-name="quoteleft" unicode="&#x2018;" horiz-adv-x="155" 
d="M121 694q0 -20 -12.5 -33.5t-29.5 -13.5q-20 0 -34.5 15.5t-14.5 42.5q0 39 10.5 63.5t24.5 38.5q15 16 35 24l18 -32q-11 -5 -20 -14q-8 -8 -13.5 -19t-5.5 -26q17 0 29.5 -13t12.5 -33z" />
    <glyph glyph-name="quoteright" unicode="&#x2019;" horiz-adv-x="186" 
d="M50 668q0 19 12.5 33t30.5 14q20 0 33.5 -15.5t13.5 -42.5q0 -39 -10.5 -63.5t-23.5 -38.5q-15 -17 -34 -24l-19 32q11 5 20 14q8 8 14 18.5t6 25.5q-17 0 -30 13.5t-13 33.5z" />
    <glyph glyph-name="quotesinglbase" unicode="&#x201a;" horiz-adv-x="196" 
d="M52 40q0 20 13 33.5t31 13.5q20 0 33.5 -15t13.5 -42q0 -40 -10.5 -64.5t-23.5 -38.5q-15 -17 -34 -24l-19 33q11 5 20 14q8 7 14 18t6 26q-18 0 -31 13t-13 33z" />
    <glyph glyph-name="quotedblleft" unicode="&#x201c;" horiz-adv-x="274" 
d="M241 694q0 -20 -12.5 -33.5t-30.5 -13.5q-20 0 -34 15.5t-14 42.5q0 39 10.5 63.5t23.5 38.5q15 16 35 24l19 -32q-11 -5 -20 -14q-8 -8 -14 -19t-6 -26q17 0 30 -13t13 -33zM121 694q0 -20 -12.5 -33.5t-29.5 -13.5q-20 0 -34.5 15.5t-14.5 42.5q0 39 10.5 63.5
t24.5 38.5q15 16 35 24l18 -32q-11 -5 -20 -14q-8 -8 -13.5 -19t-5.5 -26q17 0 29.5 -13t12.5 -33z" />
    <glyph glyph-name="quotedblright" unicode="&#x201d;" horiz-adv-x="305" 
d="M50 667q0 20 12.5 33.5t30.5 13.5q20 0 33.5 -15.5t13.5 -42.5q0 -39 -10.5 -63.5t-23.5 -38.5q-15 -16 -34 -23l-19 32q11 5 20 14q8 7 14 18t6 26q-18 0 -30.5 13t-12.5 33zM169 667q0 20 12.5 33.5t30.5 13.5q20 0 34 -15.5t14 -42.5q0 -39 -10.5 -63.5t-23.5 -38.5
q-15 -16 -34 -23l-19 32q10 5 19 14q8 7 14 18t6 26q-17 0 -30 13t-13 33z" />
    <glyph glyph-name="quotedblbase" unicode="&#x201e;" horiz-adv-x="312" 
d="M52 40q0 20 13 33.5t31 13.5q20 0 33.5 -15t13.5 -42q0 -40 -10.5 -64.5t-23.5 -38.5q-15 -17 -34 -24l-19 33q11 5 20 14q8 7 14 18t6 26q-18 0 -31 13t-13 33zM168 40q0 20 12.5 33.5t30.5 13.5q20 0 34 -15t14 -42q0 -40 -11 -64.5t-24 -38.5q-15 -17 -34 -24l-19 33
q11 5 20 14q8 7 14 18t6 26q-18 0 -30.5 13t-12.5 33z" />
    <glyph glyph-name="dagger" unicode="&#x2020;" horiz-adv-x="311" 
d="M139 121l-8 389h-100v38h100v163h49v-163h100v-38h-100l-8 -389h-33z" />
    <glyph glyph-name="daggerdbl" unicode="&#x2021;" horiz-adv-x="341" 
d="M153 121l-4 189h-98v39h97l-3 161h-99v38h99v163h50v-163h100v-38h-100l-2 -161h98v-39h-100l-4 -189h-34z" />
    <glyph glyph-name="bullet" unicode="&#x2022;" horiz-adv-x="299" 
d="M228 289q0 -18 -6.5 -33.5t-17 -27t-24.5 -18t-30 -6.5q-33 0 -55.5 25t-22.5 60q0 36 22.5 61t55.5 25q32 0 55 -25t23 -61z" />
    <glyph glyph-name="ellipsis" unicode="&#x2026;" horiz-adv-x="457" 
d="M93 -6q-17 0 -28.5 12.5t-11.5 30.5q0 17 11.5 29.5t28.5 12.5q16 0 27.5 -12.5t11.5 -29.5q0 -18 -11.5 -30.5t-27.5 -12.5zM227 -6q-16 0 -27.5 12.5t-11.5 30.5q0 17 11.5 29.5t27.5 12.5t27.5 -12.5t11.5 -29.5q0 -18 -11.5 -30.5t-27.5 -12.5zM364 -6
q-16 0 -27.5 12.5t-11.5 30.5q0 17 11.5 29.5t27.5 12.5q17 0 28.5 -12.5t11.5 -29.5q0 -18 -11.5 -30.5t-28.5 -12.5z" />
    <glyph glyph-name="perthousand" unicode="&#x2030;" horiz-adv-x="708" 
d="M132 0l178 700h47l-177 -700h-48zM121 424q-42 0 -66 34.5t-24 104.5t24 104.5t66 34.5q45 0 69.5 -34.5t24.5 -104.5t-24.5 -104.5t-69.5 -34.5zM121 461q28 0 39.5 27t11.5 75q0 47 -11.5 73.5t-39.5 26.5q-26 0 -37.5 -26.5t-11.5 -73.5q0 -48 11.5 -75t37.5 -27z
M365 -2q-43 0 -67 34.5t-24 104.5t24 104.5t67 34.5q45 0 69 -34.5t24 -104.5t-24 -104.5t-69 -34.5zM365 35q26 0 38.5 27t12.5 75q0 47 -12.5 73.5t-38.5 26.5t-38 -26.5t-12 -73.5q0 -48 12 -75t38 -27zM586 -2q-43 0 -67 34.5t-24 104.5t24 104.5t67 34.5q45 0 69 -34.5
t24 -104.5t-24.5 -104.5t-68.5 -34.5zM586 35q27 0 38.5 27t11.5 75q0 47 -11.5 73.5t-38.5 26.5t-38 -26.5t-11 -73.5q0 -48 11 -75t38 -27z" />
    <glyph glyph-name="guilsinglleft" unicode="&#x2039;" horiz-adv-x="249" 
d="M47 238v52l120 134l32 -37l-103 -123l103 -122l-32 -38z" />
    <glyph glyph-name="guilsinglright" unicode="&#x203a;" horiz-adv-x="249" 
d="M82 104l-32 38l104 122l-104 123l32 37l120 -134v-52z" />
    <glyph glyph-name="fraction" unicode="&#x2044;" horiz-adv-x="77" 
d="M-84 0l185 726h62l-184 -726h-63z" />
    <glyph glyph-name="uni2070" unicode="&#x2070;" horiz-adv-x="241" 
d="M120 492q-43 0 -67.5 34.5t-24.5 104.5t24 104.5t68 34.5q45 0 69 -34.5t24 -104.5t-24.5 -104.5t-68.5 -34.5zM120 529q26 0 38 27t12 75q0 47 -12 73.5t-38 26.5q-27 0 -38.5 -26.5t-11.5 -73.5q0 -48 11.5 -75t38.5 -27z" />
    <glyph glyph-name="uni2074" unicode="&#x2074;" horiz-adv-x="226" 
d="M134 492v62h-114v30l78 181h44l-74 -175h66v64h42v-64h29v-36h-29v-62h-42z" />
    <glyph glyph-name="uni2075" unicode="&#x2075;" horiz-adv-x="221" 
d="M71 730v-77q4 3 10 7q5 2 13 4.5t19 2.5q40 0 61.5 -23t21.5 -65q0 -38 -21.5 -64t-66.5 -26q-22 0 -36.5 6t-24.5 14q-11 9 -18 21l24 26q6 -8 14 -14q7 -5 17 -9.5t24 -4.5q23 0 36 16t13 37q0 22 -12 36.5t-35 14.5q-11 0 -18.5 -3.5t-12.5 -7.5q-6 -4 -10 -10h-34
v154h147v-35h-111z" />
    <glyph glyph-name="uni2076" unicode="&#x2076;" horiz-adv-x="232" 
d="M170 709q-4 6 -9 10t-12.5 7.5t-18.5 3.5q-24 0 -42 -22.5t-19 -68.5q5 7 14 13q7 5 18 9t26 4q35 0 58.5 -22t23.5 -64q0 -40 -22.5 -64t-60.5 -24q-44 0 -71 31t-27 98q0 76 27.5 112.5t73.5 36.5q17 0 29 -5t20 -11q9 -7 15 -16zM70 601q2 -41 19 -56t37 -15
q18 0 30 12t12 37t-13 36.5t-30 11.5q-14 0 -24 -4t-16.5 -8.5t-10 -9t-4.5 -4.5z" />
    <glyph glyph-name="uni2077" unicode="&#x2077;" horiz-adv-x="193" 
d="M53 492q0 46 12.5 81t27.5 63t27.5 50.5t12.5 43.5h-113v35h155v-20q0 -30 -12.5 -55.5t-28 -53.5t-28 -62t-12.5 -82h-41z" />
    <glyph glyph-name="uni2078" unicode="&#x2078;" horiz-adv-x="235" 
d="M168 633q20 -9 30 -27t10 -39q0 -35 -23.5 -55.5t-64.5 -20.5q-38 0 -65.5 18.5t-27.5 60.5q0 18 6 30.5t13.5 21t14.5 13.5t9 7q-2 0 -7.5 3t-11 9.5t-9.5 17.5t-4 27q0 32 22.5 51t57.5 19q41 0 60.5 -23t19.5 -50q0 -18 -4 -29.5t-9.5 -19t-10.5 -11t-6 -3.5zM99 628
q-9 -4 -16 -11q-6 -6 -11 -16t-5 -24q0 -21 14.5 -34t38.5 -13q23 0 35.5 12.5t12.5 30.5q0 34 -31 43zM140 646q5 2 9 7q3 5 6 13t3 23q0 17 -11.5 29t-28.5 12t-28.5 -10t-11.5 -27q0 -18 9.5 -25.5t17.5 -10.5z" />
    <glyph glyph-name="uni2079" unicode="&#x2079;" horiz-adv-x="233" 
d="M62 549q0 -1 9 -11t31 -10q24 0 42 22.5t20 68.5q-5 -8 -14 -13q-8 -5 -19 -9t-26 -4q-34 0 -57.5 22t-23.5 64q0 40 22 64t61 24q43 0 70.5 -31t27.5 -98q0 -76 -27.5 -112.5t-74.5 -36.5q-17 0 -29 5t-20 11q-9 7 -15 16zM163 657q-2 41 -19.5 56t-36.5 15
q-18 0 -30.5 -12t-12.5 -37t13.5 -36.5t30.5 -11.5q13 0 23 4t16.5 8.5t10.5 9t5 4.5z" />
    <glyph glyph-name="uni2080" unicode="&#x2080;" horiz-adv-x="240" 
d="M120 -100q-44 0 -67.5 34.5t-23.5 104.5t23.5 104.5t67.5 34.5q45 0 69 -34.5t24 -104.5t-24.5 -104.5t-68.5 -34.5zM120 -63q26 0 38 27t12 75q0 47 -12 73.5t-38 26.5q-27 0 -38.5 -26.5t-11.5 -73.5q0 -48 11.5 -75t38.5 -27z" />
    <glyph glyph-name="uni2081" unicode="&#x2081;" horiz-adv-x="179" 
d="M98 -98v207q-6 -15 -25 -31t-48 -16l-6 38q16 0 30 7t24.5 18t17 24.5t7.5 25.5h41v-273h-41z" />
    <glyph glyph-name="uni2082" unicode="&#x2082;" horiz-adv-x="212" 
d="M30 -98v22q0 24 8.5 40.5t20.5 28.5t27 21.5t27 20t20.5 23.5t8.5 33q0 23 -10 35.5t-27 12.5q-13 0 -21 -6t-12 -13.5t-5 -14.5t-1 -8l-39 9q0 5 3.5 17t12 24t24 21.5t39.5 9.5q37 0 57 -23.5t20 -61.5q0 -35 -15.5 -56t-34 -36t-34 -28.5t-15.5 -33.5v-2h99v-35h-153z
" />
    <glyph glyph-name="uni2083" unicode="&#x2083;" horiz-adv-x="216" 
d="M87 23v34h20q10 0 20.5 11t10.5 34q0 14 -8.5 25.5t-27.5 11.5q-11 0 -17.5 -4t-10.5 -9t-7 -12l-36 14q4 14 14 25q8 9 22 17t37 8q21 0 35.5 -6.5t24 -16.5t14 -23t4.5 -26q0 -17 -4.5 -28.5t-10 -19t-11.5 -11t-9 -4.5q3 -2 10 -5.5t14 -11t12 -20t5 -31.5
q0 -35 -23.5 -55t-61.5 -20q-26 0 -41.5 7.5t-23.5 17.5q-10 11 -14 26l25 23q4 -11 11 -20q6 -8 16 -13.5t25 -5.5q22 0 35 11.5t13 31.5q0 25 -14 35t-28 10h-20z" />
    <glyph glyph-name="uni2084" unicode="&#x2084;" horiz-adv-x="226" 
d="M134 -98v62h-114v30l78 181h44l-74 -175h66v64h42v-64h29v-36h-29v-62h-42z" />
    <glyph glyph-name="uni2085" unicode="&#x2085;" horiz-adv-x="220" 
d="M71 142v-77q4 3 10 7q5 2 12.5 4.5t18.5 2.5q41 0 62.5 -23t21.5 -65q0 -38 -22 -64t-66 -26q-22 0 -36.5 6t-24.5 14q-11 9 -18 21l23 26q6 -8 14 -14q7 -5 17.5 -9.5t24.5 -4.5q23 0 35.5 16t12.5 37q0 22 -11.5 36.5t-35.5 14.5q-11 0 -18 -3.5t-12 -7.5
q-6 -4 -10 -10h-35v154h148v-35h-111z" />
    <glyph glyph-name="uni2086" unicode="&#x2086;" horiz-adv-x="231" 
d="M170 118q-4 6 -9 10t-12.5 7.5t-18.5 3.5q-24 0 -42 -22.5t-19 -68.5q5 7 14 13q7 5 18 9t26 4q35 0 58.5 -22t23.5 -64q0 -40 -22.5 -64t-60.5 -24q-44 0 -71 31t-27 98q0 76 27.5 112.5t73.5 36.5q17 0 29 -5t20 -11q9 -7 15 -16zM70 10q2 -41 19 -56t37 -15
q18 0 30 12t12 37t-13 36.5t-30 11.5q-14 0 -24 -4t-16.5 -8.5t-10 -9t-4.5 -4.5z" />
    <glyph glyph-name="uni2087" unicode="&#x2087;" horiz-adv-x="191" 
d="M52 -98q0 46 12.5 81t28 63t28 50.5t12.5 43.5h-113v35h155v-20q0 -30 -13 -55.5t-28 -53.5t-28 -62t-13 -82h-41z" />
    <glyph glyph-name="uni2088" unicode="&#x2088;" horiz-adv-x="234" 
d="M168 42q20 -9 30 -27t10 -39q0 -35 -23.5 -55.5t-64.5 -20.5q-38 0 -65.5 18.5t-27.5 60.5q0 18 6 30.5t13.5 21t14.5 13.5t9 7q-2 0 -7.5 3t-11 9.5t-9.5 17.5t-4 27q0 32 22.5 51t57.5 19q41 0 60.5 -23t19.5 -50q0 -18 -4 -29.5t-9.5 -19t-10.5 -11t-6 -3.5zM99 37
q-9 -4 -16 -11q-6 -6 -11 -16t-5 -24q0 -21 14.5 -34t38.5 -13q23 0 35.5 12.5t12.5 30.5q0 34 -31 43zM140 55q5 2 9 7q3 5 6 13t3 23q0 17 -11.5 29t-28.5 12t-28.5 -10t-11.5 -27q0 -18 9.5 -25.5t17.5 -10.5z" />
    <glyph glyph-name="uni2089" unicode="&#x2089;" horiz-adv-x="228" 
d="M61 -40q0 -1 9.5 -11t30.5 -10q24 0 42.5 22.5t20.5 68.5q-6 -8 -15 -13q-8 -5 -18.5 -9t-25.5 -4q-35 0 -58.5 22t-23.5 64q0 40 22 64t61 24q42 0 68.5 -31t26.5 -98q0 -76 -26.5 -112.5t-71.5 -36.5q-18 0 -30 5t-20 11q-9 7 -14 16zM162 68q-2 41 -19 56t-37 15
q-18 0 -30.5 -12t-12.5 -37t13.5 -36.5t30.5 -11.5q13 0 23 4t16.5 8.5t10.5 9t5 4.5z" />
    <glyph glyph-name="Euro" unicode="&#x20ac;" horiz-adv-x="562" 
d="M40 429h71q17 121 76 189.5t153 68.5q67 0 107.5 -25t61.5 -59l-49 -37q-17 25 -45 44.5t-74 19.5q-28 0 -54 -10.5t-47.5 -34.5t-37.5 -62.5t-24 -93.5h212v-56h-218v-69h218v-56h-208q17 -93 64 -139t107 -46q21 0 40.5 6t36 15t30.5 20t24 22l38 -42
q-11 -13 -27 -26.5t-37 -25t-47.5 -19t-59.5 -7.5q-44 0 -83 14t-70 43t-53 75t-32 110h-73v56h67q0 9 -0.5 18t-0.5 20v31h-66v56z" />
    <glyph glyph-name="trademark" unicode="&#x2122;" horiz-adv-x="675" 
d="M566 344v285l-85 -232h-32l-83 232v-285h-43v362h51l92 -254l93 254h50v-362h-43zM150 344v320h-102v42h251v-42h-99v-320h-50z" />
    <glyph glyph-name="estimated" unicode="&#x212e;" horiz-adv-x="695" 
d="M542 59q-38 -32 -85 -48.5t-102 -16.5q-69 0 -126 26.5t-97.5 75t-63 116.5t-22.5 151t22.5 151t63.5 116.5t97.5 75t125.5 26.5t125.5 -26.5t97.5 -75t63.5 -116.5t22.5 -151h-528v-58.5t-0.5 -66t-0.5 -59v-35.5q38 -58 94 -90.5t126 -32.5q48 0 92 16.5t78 43.5z
M573 390q0 23 0.5 53t0.5 58.5v52v32.5q-39 56 -94.5 87.5t-124.5 31.5t-123.5 -30t-92.5 -84q0 -8 -0.5 -31.5t-0.5 -53t-0.5 -61t-0.5 -55.5h436z" />
    <glyph glyph-name="onethird" unicode="&#x2153;" horiz-adv-x="448" 
d="M97 0l178 700h48l-177 -700h-49zM313 121v34h21q10 0 20.5 11t10.5 34q0 14 -9 25.5t-27 11.5q-11 0 -17 -4t-11 -9t-8 -12l-36 14q4 14 14 25q8 9 22.5 17t37.5 8q21 0 35.5 -6.5t23.5 -16.5t13.5 -23t4.5 -26q0 -17 -4 -28.5t-10 -19t-12 -11t-9 -4.5l11 -5.5t14 -11
t12 -20t5 -31.5q0 -35 -23.5 -55t-61.5 -20q-26 0 -41 7.5t-24 17.5q-11 11 -15 26l25 23q5 -11 12 -20q6 -8 16 -13.5t25 -5.5q21 0 34 11.5t13 31.5q0 25 -13.5 35t-27.5 10h-21zM108 427v207q-6 -15 -25 -31t-49 -16l-6 38q16 0 30.5 7t25 18t17 24.5t7.5 25.5h41v-273
h-41z" />
    <glyph glyph-name="twothirds" unicode="&#x2154;" horiz-adv-x="472" 
d="M135 0l178 700h48l-177 -700h-49zM39 426v22q0 24 8.5 40.5t21 28.5t27 21.5t27 20t21 23.5t8.5 33q0 23 -10 35.5t-27 12.5q-13 0 -21 -6t-12 -13.5t-5 -14.5t-1 -8l-39 9q0 5 3.5 17t12 24t24 21.5t39.5 9.5q37 0 57 -23.5t20 -61.5q0 -35 -15.5 -56t-34 -36t-34 -28.5
t-15.5 -33.5v-2h99v-35h-154zM337 121v34h21q10 0 20.5 11t10.5 34q0 14 -9 25.5t-27 11.5q-11 0 -17 -4t-11 -9t-8 -12l-36 14q4 14 14 25q8 9 22.5 17t37.5 8q21 0 35.5 -6.5t23.5 -16.5t13.5 -23t4.5 -26q0 -17 -4 -28.5t-9.5 -19t-11.5 -11t-10 -4.5l11 -5.5t14 -11
t12 -20t5 -31.5q0 -35 -23.5 -55t-61.5 -20q-25 0 -40.5 7.5t-24.5 17.5q-11 11 -15 26l25 23q5 -11 12 -20q6 -8 16 -13.5t25 -5.5q21 0 34.5 11.5t13.5 31.5q0 25 -14 35t-28 10h-21z" />
    <glyph glyph-name="oneeighth" unicode="&#x215b;" 
d="M107 427v207q-6 -15 -25 -31t-48 -16l-7 38q17 0 31.5 7t25 18t16.5 24.5t7 25.5h41v-273h-41zM100 0l178 700h47l-176 -700h-49zM382 140q20 -9 29.5 -27t9.5 -39q0 -35 -23.5 -55.5t-63.5 -20.5q-38 0 -66 18.5t-28 60.5q0 18 6 30.5t13.5 21t14.5 13.5t9 7q-2 0 -7 3
t-10.5 9.5t-9.5 17.5t-4 27q0 32 22 51t58 19q41 0 60 -23t19 -50q0 -18 -4 -29.5t-9 -19t-10 -11t-6 -3.5zM313 135q-10 -4 -17 -11q-6 -6 -11 -16t-5 -24q0 -21 14.5 -34t39.5 -13q23 0 35 12.5t12 30.5q0 16 -7 27t-24 16zM353 153q5 2 9 7q3 5 6 13t3 23q0 17 -11 29
t-28 12q-18 0 -29 -10t-11 -27q0 -18 9.5 -25.5t17.5 -10.5z" />
    <glyph glyph-name="threeeighths" unicode="&#x215c;" horiz-adv-x="479" 
d="M409 140q20 -9 29.5 -27t9.5 -39q0 -35 -23 -55.5t-64 -20.5q-38 0 -65.5 18.5t-27.5 60.5q0 18 5.5 30.5t13 21t14.5 13.5t10 7q-2 0 -7.5 3t-11 9.5t-9.5 17.5t-4 27q0 32 22 51t58 19q41 0 60.5 -23t19.5 -50q0 -18 -4 -29.5t-9.5 -19t-10.5 -11t-6 -3.5zM129 0
l178 700h47l-177 -700h-48zM95 547v34h21q9 0 20 11t11 34q0 14 -9 25.5t-27 11.5q-11 0 -17 -4t-11 -9t-8 -12l-36 14q4 14 14 25q8 9 22.5 17t37.5 8q41 0 59 -23t18 -49q0 -17 -4.5 -28.5t-10 -19t-11.5 -11t-9 -4.5q3 -2 10 -5.5t14 -11t12 -20t5 -31.5q0 -35 -23.5 -55
t-60.5 -20q-26 0 -41 7.5t-24 17.5q-11 11 -15 26l25 23q5 -11 12 -20q6 -8 16 -13.5t25 -5.5q21 0 34 11.5t13 31.5q0 25 -13.5 35t-27.5 10h-21zM340 135q-9 -4 -16 -11q-6 -6 -11 -16t-5 -24q0 -21 14.5 -34t38.5 -13q23 0 35.5 12.5t12.5 30.5q0 34 -32 43zM380 153
q5 2 9 7t7 13t3 23q0 17 -11 29t-29 12t-29 -10t-11 -27q0 -18 9.5 -25.5t17.5 -10.5z" />
    <glyph glyph-name="fiveeighths" unicode="&#x215d;" horiz-adv-x="490" 
d="M77 665v-77q4 3 10 7q5 2 13 4.5t19 2.5q40 0 62 -23t22 -65q0 -38 -22 -64t-66 -26q-22 0 -37 6t-24 14q-11 9 -18 21l23 26q6 -8 14 -14q7 -5 17.5 -9.5t24.5 -4.5q23 0 35.5 16t12.5 37q0 22 -12 36.5t-35 14.5q-11 0 -18.5 -3.5t-12.5 -7.5q-6 -4 -9 -10h-35v154h147
v-35h-111zM135 0l177 700h48l-177 -700h-48zM419 140q21 -9 30.5 -27t9.5 -39q0 -35 -23.5 -55.5t-63.5 -20.5q-38 0 -66 18.5t-28 60.5q0 18 6 30.5t13.5 21t14.5 13.5t9 7q-2 0 -7.5 3t-11 9.5t-9.5 17.5t-4 27q0 32 22.5 51t58.5 19q40 0 59.5 -23t19.5 -50
q0 -18 -4 -29.5t-9.5 -19t-10.5 -11t-6 -3.5zM351 135q-10 -4 -17 -11q-6 -6 -11 -16t-5 -24q0 -21 14.5 -34t39.5 -13q23 0 35 12.5t12 30.5q0 34 -31 43zM391 153q5 2 9 7q3 5 6 13t3 23q0 17 -11 29t-28 12q-18 0 -29.5 -10t-11.5 -27q0 -18 10 -25.5t18 -10.5z" />
    <glyph glyph-name="seveneighths" unicode="&#x215e;" horiz-adv-x="467" 
d="M60 427q0 46 12.5 81t28 63t28 50.5t12.5 43.5h-114v35h155v-20q0 -30 -12.5 -55.5t-28 -53.5t-28 -62t-12.5 -82h-41zM103 0l178 700h47l-177 -700h-48zM397 140q20 -9 30 -27t10 -39q0 -35 -23.5 -55.5t-64.5 -20.5q-38 0 -65.5 18.5t-27.5 60.5q0 18 6 30.5t13.5 21
t14 13.5t8.5 7q-2 0 -6.5 3t-10 9.5t-9.5 17.5t-4 27q0 32 21.5 51t57.5 19q41 0 60 -23t19 -50q0 -18 -4 -29.5t-9 -19t-10 -11t-6 -3.5zM328 135q-9 -4 -16 -11q-6 -6 -11 -16t-5 -24q0 -21 14.5 -34t38.5 -13t35.5 12.5t11.5 30.5q0 16 -6.5 27t-23.5 16zM369 153
q5 2 9 7q3 5 6 13t3 23q0 17 -11.5 29t-28.5 12q-18 0 -29 -10t-11 -27q0 -18 9.5 -25.5t18.5 -10.5z" />
    <glyph glyph-name="partialdiff" unicode="&#x2202;" horiz-adv-x="497" 
d="M235 -6q-93 0 -144 59.5t-51 166.5q0 54 15 94.5t41.5 67.5t61 40.5t73.5 13.5q37 0 64.5 -13.5t46 -30t29 -31t14.5 -16.5q-4 163 -46.5 235t-113.5 72q-27 0 -46 -8.5t-32 -20t-20 -22t-10 -14.5l-49 35q6 8 17.5 22t30 28t45.5 24t64 10q109 0 165.5 -94t56.5 -288
q0 -77 -14.5 -138.5t-42 -104t-67 -65t-88.5 -22.5zM383 283q-3 3 -13.5 18.5t-29 33.5t-44 32.5t-58.5 14.5q-63 0 -99.5 -41.5t-36.5 -120.5q0 -80 36.5 -126t96.5 -46t101.5 58.5t46.5 176.5z" />
    <glyph glyph-name="product" unicode="&#x220f;" horiz-adv-x="532" 
d="M399 0v644h-267v-644h-56v700h380v-700h-57z" />
    <glyph glyph-name="summation" unicode="&#x2211;" horiz-adv-x="464" 
d="M42 0v56l182 291l-182 297v56h376v-56h-299l183 -297l-183 -292h299v-55h-376z" />
    <glyph glyph-name="minus" unicode="&#x2212;" horiz-adv-x="414" 
d="M61 249v49h292v-49h-292z" />
    <glyph glyph-name="uni2215" unicode="&#x2215;" horiz-adv-x="339" 
d="M7 0l265 726h61l-263 -726h-63z" />
    <glyph glyph-name="uni2219" unicode="&#x2219;" horiz-adv-x="189" 
d="M95 236q-16 0 -26 11t-10 27q0 17 10 28t26 11q15 0 25 -11t10 -28q0 -16 -10 -27t-25 -11z" />
    <glyph glyph-name="radical" unicode="&#x221a;" horiz-adv-x="569" 
d="M139 0l-114 383h62l83 -310l181 627h198v-56h-158l-191 -644h-61z" />
    <glyph glyph-name="infinity" unicode="&#x221e;" horiz-adv-x="554" 
d="M277 379l21 37q14 23 35.5 41.5t60.5 18.5q23 0 43.5 -10t35.5 -28t23.5 -41.5t8.5 -50.5t-8.5 -50.5t-23.5 -41.5t-35.5 -28t-43.5 -10q-39 0 -60.5 17.5t-35.5 40.5l-21 37l-21 -37q-14 -23 -35.5 -40.5t-59.5 -17.5q-24 0 -44.5 10t-35.5 28t-24 41.5t-9 50.5t9 50.5
t24 41.5t35.5 28t44.5 10q38 0 59.5 -18.5t35.5 -41.5zM88 346q0 -38 21 -65t53 -27q16 0 28 5t21 12.5t14.5 16t9.5 15.5l23 43l-23 41q-4 7 -9.5 15.5t-14.5 16t-21 13t-28 5.5q-32 0 -53 -27t-21 -64zM466 346q0 37 -21 64t-53 27q-16 0 -28 -5t-21 -12.5t-15 -16.5
t-10 -16l-22 -41l22 -43q4 -7 10 -15.5t15 -16t21 -12.5t28 -5q32 0 53 27t21 65z" />
    <glyph glyph-name="integral" unicode="&#x222b;" horiz-adv-x="423" 
d="M243 -86q0 -72 -33 -116.5t-100 -44.5q-26 0 -45.5 7.5t-31.5 16.5q-15 11 -24 24l23 46l4.5 -6.5t13 -14t22 -14t33.5 -6.5q35 0 55 29t20 82v650q0 72 33 116.5t100 44.5q26 0 45.5 -7.5t32.5 -16.5q15 -11 24 -24l-24 -46l-4 6.5t-13 14t-23 14t-33 6.5q-35 0 -55 -29
t-20 -81v-651z" />
    <glyph glyph-name="approxequal" unicode="&#x2248;" horiz-adv-x="434" 
d="M73 437q-3 6 -6 14q-5 15 -5 37q0 34 19.5 59.5t57.5 25.5q23 0 42.5 -9.5t38 -21.5t36.5 -21.5t38 -9.5q18 0 27.5 12t9.5 33q0 9 -1.5 17t-3.5 13l-4 12h43q2 -6 4 -13q2 -6 3.5 -15t1.5 -19q0 -35 -17.5 -59.5t-55.5 -24.5q-27 0 -48 9.5t-39 21t-34.5 21t-32.5 9.5
q-21 0 -31.5 -13.5t-10.5 -33.5q0 -18 5 -31q3 -7 6 -13h-43zM73 271q-3 5 -6 13q-5 15 -5 37q0 34 19.5 59.5t57.5 25.5q23 0 42.5 -9.5t38 -21.5t36.5 -21.5t38 -9.5q18 0 27.5 12.5t9.5 32.5q0 9 -1.5 17t-3.5 13l-4 12h43q2 -6 4 -13q2 -6 3.5 -14.5t1.5 -19.5
q0 -35 -17.5 -59.5t-55.5 -24.5q-27 0 -48 9.5t-39 21t-34.5 21t-32.5 9.5q-21 0 -31.5 -13.5t-10.5 -33.5q0 -18 5 -31q3 -7 6 -12h-43z" />
    <glyph glyph-name="notequal" unicode="&#x2260;" horiz-adv-x="428" 
d="M209 151l-22 -91h-59l23 91h-94v48h108l35 143h-143v49h158l25 96h57l-24 -96h97v-49h-112l-34 -143h146v-48h-161z" />
    <glyph glyph-name="lessequal" unicode="&#x2264;" horiz-adv-x="396" 
d="M62 467v52l265 199v-57l-210 -168l210 -168v-57zM47 162v48h297v-48h-297z" />
    <glyph glyph-name="greaterequal" unicode="&#x2265;" horiz-adv-x="395" 
d="M69 268v57l210 168l-210 168v57l265 -199v-52zM52 162v48h296v-48h-296z" />
    <glyph glyph-name="lozenge" unicode="&#x25ca;" horiz-adv-x="429" 
d="M180 0l-145 349l145 351h64l153 -351l-153 -349h-64zM333 349l-121 293l-114 -293l114 -291z" />
    <glyph glyph-name="glyph52" horiz-adv-x="163" 
d="M37 -86q0 20 12.5 33.5t30.5 13.5q19 0 32.5 -14t13.5 -40q0 -35 -10.5 -56t-23.5 -33q-15 -14 -33 -20l-19 33q11 4 20 9q8 5 13.5 11.5t6.5 16.5q-17 0 -30 13t-13 33z" />
    <glyph glyph-name="glyph103" horiz-adv-x="411" 
 />
    <glyph glyph-name="a.salt" horiz-adv-x="459" 
d="M424 1l-8 -2t-9 -1h-11q-27 0 -44.5 17.5t-17.5 55.5v22q-2 -3 -9 -18.5t-22 -33.5t-40 -32.5t-63 -14.5q-30 0 -58.5 14t-50.5 43.5t-35.5 76t-13.5 111.5q0 67 13 114t35 77t51.5 44t62.5 14t57.5 -12.5t40.5 -27.5q18 -18 32 -39v73h55v-384q0 -25 7.5 -37.5
t27.5 -12.5v-47zM327 332q0 3 -5.5 19t-18.5 35t-34.5 34t-53.5 15q-47 0 -79.5 -48.5t-32.5 -147.5q0 -49 9 -85t24 -60t35.5 -35.5t43.5 -11.5q36 0 57.5 19t33.5 41.5t16.5 41.5t4.5 18v165z" />
    <glyph glyph-name="aacute.aalt" horiz-adv-x="459" 
d="M424 1l-8 -2t-9 -1h-11q-27 0 -44.5 17.5t-17.5 55.5v22q-2 -3 -9 -18.5t-22 -33.5t-40 -32.5t-63 -14.5q-30 0 -58.5 14t-50.5 43.5t-35.5 76t-13.5 111.5q0 67 13 114t35 77t51.5 44t62.5 14t57.5 -12.5t40.5 -27.5q18 -18 32 -39v73h55v-384q0 -25 7.5 -37.5
t27.5 -12.5v-47zM327 332q0 3 -5.5 19t-18.5 35t-34.5 34t-53.5 15q-47 0 -79.5 -48.5t-32.5 -147.5q0 -49 9 -85t24 -60t35.5 -35.5t43.5 -11.5q36 0 57.5 19t33.5 41.5t16.5 41.5t4.5 18v165zM180 564l71 162h77l-90 -162h-58z" />
    <glyph glyph-name="abreve.aalt" horiz-adv-x="459" 
d="M424 1l-8 -2t-9 -1h-11q-27 0 -44.5 17.5t-17.5 55.5v22q-2 -3 -9 -18.5t-22 -33.5t-40 -32.5t-63 -14.5q-30 0 -58.5 14t-50.5 43.5t-35.5 76t-13.5 111.5q0 67 13 114t35 77t51.5 44t62.5 14t57.5 -12.5t40.5 -27.5q18 -18 32 -39v73h55v-384q0 -25 7.5 -37.5
t27.5 -12.5v-47zM327 332q0 3 -5.5 19t-18.5 35t-34.5 34t-53.5 15q-47 0 -79.5 -48.5t-32.5 -147.5q0 -49 9 -85t24 -60t35.5 -35.5t43.5 -11.5q36 0 57.5 19t33.5 41.5t16.5 41.5t4.5 18v165zM330 684q0 -54 -23 -86t-75 -32q-53 0 -76 32t-23 86h49q0 -38 13 -54t36 -17
q25 0 37 16.5t12 54.5h50z" />
    <glyph glyph-name="acircumflex.aalt" horiz-adv-x="459" 
d="M424 1l-8 -2t-9 -1h-11q-27 0 -44.5 17.5t-17.5 55.5v22q-2 -3 -9 -18.5t-22 -33.5t-40 -32.5t-63 -14.5q-30 0 -58.5 14t-50.5 43.5t-35.5 76t-13.5 111.5q0 67 13 114t35 77t51.5 44t62.5 14t57.5 -12.5t40.5 -27.5q18 -18 32 -39v73h55v-384q0 -25 7.5 -37.5
t27.5 -12.5v-47zM327 332q0 3 -5.5 19t-18.5 35t-34.5 34t-53.5 15q-47 0 -79.5 -48.5t-32.5 -147.5q0 -49 9 -85t24 -60t35.5 -35.5t43.5 -11.5q36 0 57.5 19t33.5 41.5t16.5 41.5t4.5 18v165zM125 556l74 162h71l73 -162h-56l-53 112l-52 -112h-57z" />
    <glyph glyph-name="adieresis.aalt" horiz-adv-x="459" 
d="M424 1l-8 -2t-9 -1h-11q-27 0 -44.5 17.5t-17.5 55.5v22q-2 -3 -9 -18.5t-22 -33.5t-40 -32.5t-63 -14.5q-30 0 -58.5 14t-50.5 43.5t-35.5 76t-13.5 111.5q0 67 13 114t35 77t51.5 44t62.5 14t57.5 -12.5t40.5 -27.5q18 -18 32 -39v73h55v-384q0 -25 7.5 -37.5
t27.5 -12.5v-47zM327 332q0 3 -5.5 19t-18.5 35t-34.5 34t-53.5 15q-47 0 -79.5 -48.5t-32.5 -147.5q0 -49 9 -85t24 -60t35.5 -35.5t43.5 -11.5q36 0 57.5 19t33.5 41.5t16.5 41.5t4.5 18v165zM156 592q-16 0 -27.5 12.5t-11.5 30.5q0 17 11.5 30t27.5 13t27.5 -13
t11.5 -30q0 -18 -11.5 -30.5t-27.5 -12.5zM303 592q-16 0 -27.5 12.5t-11.5 30.5q0 17 11.5 30t27.5 13q17 0 28 -13t11 -30q0 -18 -11 -30.5t-28 -12.5z" />
    <glyph glyph-name="agrave.aalt" horiz-adv-x="459" 
d="M424 1l-8 -2t-9 -1h-11q-27 0 -44.5 17.5t-17.5 55.5v22q-2 -3 -9 -18.5t-22 -33.5t-40 -32.5t-63 -14.5q-30 0 -58.5 14t-50.5 43.5t-35.5 76t-13.5 111.5q0 67 13 114t35 77t51.5 44t62.5 14t57.5 -12.5t40.5 -27.5q18 -18 32 -39v73h55v-384q0 -25 7.5 -37.5
t27.5 -12.5v-47zM327 332q0 3 -5.5 19t-18.5 35t-34.5 34t-53.5 15q-47 0 -79.5 -48.5t-32.5 -147.5q0 -49 9 -85t24 -60t35.5 -35.5t43.5 -11.5q36 0 57.5 19t33.5 41.5t16.5 41.5t4.5 18v165zM225 564l-91 162h77l70 -162h-56z" />
    <glyph glyph-name="amacron.aalt" horiz-adv-x="459" 
d="M424 1l-8 -2t-9 -1h-11q-27 0 -44.5 17.5t-17.5 55.5v22q-2 -3 -9 -18.5t-22 -33.5t-40 -32.5t-63 -14.5q-30 0 -58.5 14t-50.5 43.5t-35.5 76t-13.5 111.5q0 67 13 114t35 77t51.5 44t62.5 14t57.5 -12.5t40.5 -27.5q18 -18 32 -39v73h55v-384q0 -25 7.5 -37.5
t27.5 -12.5v-47zM327 332q0 3 -5.5 19t-18.5 35t-34.5 34t-53.5 15q-47 0 -79.5 -48.5t-32.5 -147.5q0 -49 9 -85t24 -60t35.5 -35.5t43.5 -11.5q36 0 57.5 19t33.5 41.5t16.5 41.5t4.5 18v165zM117 601v48h227v-48h-227z" />
    <glyph glyph-name="aogonek.aalt" horiz-adv-x="459" 
d="M441 -138q-6 -8 -15 -14q-8 -5 -18.5 -9t-24.5 -4q-29 0 -49 17.5t-20 55.5q0 37 15.5 60.5t33.5 37.5q-29 16 -29 65v22q-2 -3 -9 -18.5t-22 -33.5t-40 -32.5t-63 -14.5q-30 0 -58.5 14t-50.5 43.5t-35.5 76t-13.5 111.5q0 67 13 114t35 77t51.5 44t62.5 14t57.5 -12.5
t40.5 -27.5q18 -18 32 -39v73h55v-384q0 -25 7.5 -37.5t27.5 -12.5v-47q-2 -1 -5 -1q-2 0 -5 -0.5t-6 -0.5q-5 -3 -14 -8.5t-18 -15.5t-15.5 -23.5t-6.5 -32.5q0 -43 34 -43q9 0 16 3t12 7t10 10zM327 332q0 3 -5.5 19t-18.5 35t-34.5 34t-53.5 15q-47 0 -79.5 -48.5
t-32.5 -147.5q0 -49 9 -85t24 -60t35.5 -35.5t43.5 -11.5q36 0 57.5 19t33.5 41.5t16.5 41.5t4.5 18v165z" />
    <glyph glyph-name="aring.aalt" horiz-adv-x="459" 
d="M424 1l-8 -2t-9 -1h-11q-27 0 -44.5 17.5t-17.5 55.5v22q-2 -3 -9 -18.5t-22 -33.5t-40 -32.5t-63 -14.5q-30 0 -58.5 14t-50.5 43.5t-35.5 76t-13.5 111.5q0 67 13 114t35 77t51.5 44t62.5 14t57.5 -12.5t40.5 -27.5q18 -18 32 -39v73h55v-384q0 -25 7.5 -37.5
t27.5 -12.5v-47zM327 332q0 3 -5.5 19t-18.5 35t-34.5 34t-53.5 15q-47 0 -79.5 -48.5t-32.5 -147.5q0 -49 9 -85t24 -60t35.5 -35.5t43.5 -11.5q36 0 57.5 19t33.5 41.5t16.5 41.5t4.5 18v165zM233 561q-29 0 -47 21t-18 53t18 53t47 21q28 0 47 -21t19 -53t-19 -53
t-47 -21zM266 635q0 17 -9 28t-24 11t-24 -11t-9 -28q0 -18 9 -29t24 -11t24 11t9 29z" />
    <glyph glyph-name="atilde.aalt" horiz-adv-x="459" 
d="M424 1l-8 -2t-9 -1h-11q-27 0 -44.5 17.5t-17.5 55.5v22q-2 -3 -9 -18.5t-22 -33.5t-40 -32.5t-63 -14.5q-30 0 -58.5 14t-50.5 43.5t-35.5 76t-13.5 111.5q0 67 13 114t35 77t51.5 44t62.5 14t57.5 -12.5t40.5 -27.5q18 -18 32 -39v73h55v-384q0 -25 7.5 -37.5
t27.5 -12.5v-47zM327 332q0 3 -5.5 19t-18.5 35t-34.5 34t-53.5 15q-47 0 -79.5 -48.5t-32.5 -147.5q0 -49 9 -85t24 -60t35.5 -35.5t43.5 -11.5q36 0 57.5 19t33.5 41.5t16.5 41.5t4.5 18v165zM108 570q-3 5 -5 12q-5 12 -5 31q0 29 17 49.5t49 20.5q18 0 34 -5.5t30.5 -12
t28.5 -12t28 -5.5q20 0 20 22q0 7 -1.5 13t-3.5 11l-4 10h51l4 -12t3 -13.5t1 -16.5q0 -27 -15.5 -46.5t-47.5 -19.5q-21 0 -37.5 5.5t-31 12.5t-26.5 12.5t-24 5.5q-11 0 -17.5 -7.5t-6.5 -21.5t5 -24q2 -5 5 -9h-51z" />
    <glyph glyph-name="e.aalt" horiz-adv-x="410" 
d="M221 205q-27 0 -49 4t-37 9q-18 6 -31 14v-2q0 -53 12 -88.5t30.5 -56.5t40.5 -29.5t42 -8.5q28 0 48 10.5t34 24.5q16 15 26 35l35 -36q-13 -25 -34 -44q-18 -17 -46.5 -30t-70.5 -13q-34 0 -66.5 12.5t-57.5 41.5t-40 76.5t-15 116.5q0 66 12.5 112.5t35.5 76.5
t54.5 44t70.5 14q44 0 73.5 -16.5t47.5 -41t25.5 -52t7.5 -48.5q0 -37 -10.5 -61t-30 -38.5t-46.5 -20t-61 -5.5zM106 286q11 -9 27 -16q14 -6 33.5 -10.5t45.5 -4.5q20 0 38 2.5t31.5 10.5t21.5 22.5t8 37.5q0 13 -5 31.5t-16.5 35t-30.5 28.5t-46 12q-46 0 -76.5 -40
t-30.5 -109z" />
    <glyph glyph-name="eight.dnom" horiz-adv-x="235" 
d="M168 140q20 -9 30 -27t10 -39q0 -35 -23.5 -55.5t-64.5 -20.5q-38 0 -65.5 18.5t-27.5 60.5q0 18 6 30.5t13.5 21t14.5 13.5t9 7q-2 0 -7.5 3t-11 9.5t-9.5 17.5t-4 27q0 32 22.5 51t57.5 19q41 0 60.5 -23t19.5 -50q0 -18 -4 -29.5t-9.5 -19t-10.5 -11t-6 -3.5zM99 135
q-9 -4 -16 -11q-6 -6 -11 -16t-5 -24q0 -21 14.5 -34t38.5 -13q23 0 35.5 12.5t12.5 30.5q0 34 -31 43zM140 153q5 2 9 7q3 5 6 13t3 23q0 17 -11.5 29t-28.5 12t-28.5 -10t-11.5 -27q0 -18 9.5 -25.5t17.5 -10.5z" />
    <glyph glyph-name="eight.numr" horiz-adv-x="234" 
d="M168 592q20 -9 30 -27t10 -39q0 -35 -23.5 -55.5t-64.5 -20.5q-38 0 -65.5 18.5t-27.5 60.5q0 18 6 30.5t13.5 21t14.5 13.5t9 7q-2 0 -7.5 3t-11 9.5t-9.5 17.5t-4 27q0 32 22.5 51t57.5 19q41 0 60.5 -23t19.5 -50q0 -18 -4 -29.5t-9.5 -19t-10.5 -11t-6 -3.5zM99 587
q-9 -4 -16 -11q-6 -6 -11 -16t-5 -24q0 -21 14.5 -34t38.5 -13q23 0 35.5 12.5t12.5 30.5q0 34 -31 43zM140 605q5 2 9 7q3 5 6 13t3 23q0 17 -11.5 29t-28.5 12t-28.5 -10t-11.5 -27q0 -18 9.5 -25.5t17.5 -10.5z" />
    <glyph glyph-name="five.dnom" horiz-adv-x="221" 
d="M71 239v-77q4 3 10 7q5 2 12.5 4.5t18.5 2.5q41 0 62.5 -23t21.5 -65q0 -38 -22 -64t-66 -26q-22 0 -36.5 6t-24.5 14q-11 9 -18 21l23 26q6 -8 14 -14q7 -5 17.5 -9.5t24.5 -4.5q23 0 35.5 16t12.5 37q0 22 -11.5 36.5t-35.5 14.5q-11 0 -18 -3.5t-12 -7.5
q-6 -4 -10 -10h-35v154h148v-35h-111z" />
    <glyph glyph-name="five.numr" horiz-adv-x="220" 
d="M71 691v-77q4 3 10 7q5 2 12.5 4.5t18.5 2.5q41 0 62.5 -23t21.5 -65q0 -38 -22 -64t-66 -26q-22 0 -36.5 6t-24.5 14q-11 9 -18 21l23 26q6 -8 14 -14q7 -5 17.5 -9.5t24.5 -4.5q23 0 35.5 16t12.5 37q0 22 -11.5 36.5t-35.5 14.5q-11 0 -18 -3.5t-12 -7.5
q-6 -4 -10 -10h-35v154h148v-35h-111z" />
    <glyph glyph-name="four.dnom" horiz-adv-x="226" 
d="M134 0v62h-114v30l78 181h44l-74 -175h66v64h42v-64h29v-36h-29v-62h-42z" />
    <glyph glyph-name="four.numr" horiz-adv-x="227" 
d="M135 453v62h-115v30l78 181h44l-74 -175h67v64h41v-64h29v-36h-29v-62h-41z" />
    <glyph glyph-name="g.aalt" horiz-adv-x="454" 
d="M334 93q-12 -28 -30 -50q-16 -19 -41 -34t-60 -15q-30 0 -59 14t-51.5 43.5t-36.5 76t-14 111.5q0 67 13.5 114t36 77t52.5 44t63 14q34 0 58.5 -12.5t40.5 -27.5q18 -18 31 -39v73h56v-541q0 -90 -43 -139t-121 -49q-46 0 -77 14.5t-51 31.5q-23 20 -37 47l34 41
q11 -23 29 -41q15 -15 38 -27.5t55 -12.5q50 0 82 32.5t32 102.5v152zM329 332q0 3 -5.5 19t-18 35t-34 34t-53.5 15q-24 0 -44.5 -12t-36.5 -36.5t-25 -61.5t-9 -86t9.5 -85t25 -60t36.5 -35.5t44 -11.5q36 0 57.5 19t33.5 41.5t16 41.5t4 18v165z" />
    <glyph glyph-name="gbreve.aalt" horiz-adv-x="454" 
d="M334 93q-12 -28 -30 -50q-16 -19 -41 -34t-60 -15q-30 0 -59 14t-51.5 43.5t-36.5 76t-14 111.5q0 67 13.5 114t36 77t52.5 44t63 14q34 0 58.5 -12.5t40.5 -27.5q18 -18 31 -39v73h56v-541q0 -90 -43 -139t-121 -49q-46 0 -77 14.5t-51 31.5q-23 20 -37 47l34 41
q11 -23 29 -41q15 -15 38 -27.5t55 -12.5q50 0 82 32.5t32 102.5v152zM329 332q0 3 -5.5 19t-18 35t-34 34t-53.5 15q-24 0 -44.5 -12t-36.5 -36.5t-25 -61.5t-9 -86t9.5 -85t25 -60t36.5 -35.5t44 -11.5q36 0 57.5 19t33.5 41.5t16 41.5t4 18v165zM337 684q0 -54 -23 -86
t-75 -32q-53 0 -76 32t-23 86h49q0 -38 13 -54t36 -17q25 0 37 16.5t12 54.5h50z" />
    <glyph glyph-name="gcircumflex.aalt" horiz-adv-x="454" 
d="M334 93q-12 -28 -30 -50q-16 -19 -41 -34t-60 -15q-30 0 -59 14t-51.5 43.5t-36.5 76t-14 111.5q0 67 13.5 114t36 77t52.5 44t63 14q34 0 58.5 -12.5t40.5 -27.5q18 -18 31 -39v73h56v-541q0 -90 -43 -139t-121 -49q-46 0 -77 14.5t-51 31.5q-23 20 -37 47l34 41
q11 -23 29 -41q15 -15 38 -27.5t55 -12.5q50 0 82 32.5t32 102.5v152zM329 332q0 3 -5.5 19t-18 35t-34 34t-53.5 15q-24 0 -44.5 -12t-36.5 -36.5t-25 -61.5t-9 -86t9.5 -85t25 -60t36.5 -35.5t44 -11.5q36 0 57.5 19t33.5 41.5t16 41.5t4 18v165zM124 556l74 162h71
l73 -162h-56l-53 112l-52 -112h-57z" />
    <glyph glyph-name="uni0123.aalt" horiz-adv-x="454" 
d="M334 93q-12 -28 -30 -50q-16 -19 -41 -34t-60 -15q-30 0 -59 14t-51.5 43.5t-36.5 76t-14 111.5q0 67 13.5 114t36 77t52.5 44t63 14q34 0 58.5 -12.5t40.5 -27.5q18 -18 31 -39v73h56v-541q0 -90 -43 -139t-121 -49q-46 0 -77 14.5t-51 31.5q-23 20 -37 47l34 41
q11 -23 29 -41q15 -15 38 -27.5t55 -12.5q50 0 82 32.5t32 102.5v152zM329 332q0 3 -5.5 19t-18 35t-34 34t-53.5 15q-24 0 -44.5 -12t-36.5 -36.5t-25 -61.5t-9 -86t9.5 -85t25 -60t36.5 -35.5t44 -11.5q36 0 57.5 19t33.5 41.5t16 41.5t4 18v165zM188 640q0 20 12.5 33.5
t30.5 13.5q19 0 32.5 -14t13.5 -40q0 -35 -10.5 -56t-23.5 -33q-15 -14 -33 -20l-19 33q11 4 20 9q8 5 13.5 11.5t6.5 16.5q-17 0 -30 13t-13 33z" />
    <glyph glyph-name="gdotaccent.aalt" horiz-adv-x="454" 
d="M334 93q-12 -28 -30 -50q-16 -19 -41 -34t-60 -15q-30 0 -59 14t-51.5 43.5t-36.5 76t-14 111.5q0 67 13.5 114t36 77t52.5 44t63 14q34 0 58.5 -12.5t40.5 -27.5q18 -18 31 -39v73h56v-541q0 -90 -43 -139t-121 -49q-46 0 -77 14.5t-51 31.5q-23 20 -37 47l34 41
q11 -23 29 -41q15 -15 38 -27.5t55 -12.5q50 0 82 32.5t32 102.5v152zM329 332q0 3 -5.5 19t-18 35t-34 34t-53.5 15q-24 0 -44.5 -12t-36.5 -36.5t-25 -61.5t-9 -86t9.5 -85t25 -60t36.5 -35.5t44 -11.5q36 0 57.5 19t33.5 41.5t16 41.5t4 18v165zM235 598q-16 0 -28 12.5
t-12 30.5q0 17 12 29.5t28 12.5t27.5 -12.5t11.5 -29.5q0 -18 -11.5 -30.5t-27.5 -12.5z" />
    <glyph glyph-name="nine.dnom" horiz-adv-x="229" 
d="M62 58q0 -1 9.5 -11t30.5 -10q24 0 42 22.5t20 68.5q-6 -8 -15 -13q-8 -5 -18.5 -9t-25.5 -4q-35 0 -58 22t-23 64q0 40 22 64t60 24q42 0 69 -31t27 -98q0 -76 -27 -112.5t-72 -36.5q-17 0 -29 5t-20 11q-9 7 -15 16zM163 166q-2 41 -19.5 56t-37.5 15q-18 0 -30 -12
t-12 -37t13 -36.5t31 -11.5q13 0 23 4t16.5 8.5t10.5 9t5 4.5z" />
    <glyph glyph-name="nine.numr" horiz-adv-x="231" 
d="M61 510q0 -1 9.5 -11t30.5 -10q24 0 42.5 22.5t20.5 68.5q-6 -8 -15 -13q-8 -5 -18.5 -9t-25.5 -4q-35 0 -58.5 22t-23.5 64q0 40 22 64t61 24q43 0 70.5 -31t27.5 -98q0 -76 -27.5 -112.5t-73.5 -36.5q-18 0 -30 5t-20 11q-9 7 -14 16zM162 618q-2 41 -19 56t-37 15
q-18 0 -30.5 -12t-12.5 -37t13.5 -36.5t30.5 -11.5q13 0 23 4t16.5 8.5t10.5 9t5 4.5z" />
    <glyph glyph-name="one.dnom" horiz-adv-x="179" 
d="M98 0v207q-5 -15 -24.5 -31t-49.5 -16l-6 38q16 0 30.5 7t25 18t17 24.5t7.5 25.5h41v-273h-41z" />
    <glyph glyph-name="one.numr" horiz-adv-x="180" 
d="M99 453v207q-6 -15 -25 -31t-49 -16l-6 38q16 0 30.5 7t25 18t17 24.5t7.5 25.5h41v-273h-41z" />
    <glyph glyph-name="seven.dnom" horiz-adv-x="193" 
d="M53 -1q0 46 12.5 81t27.5 63t27.5 50.5t12.5 44.5h-113v34h155v-20q0 -30 -12.5 -55t-28 -53.5t-28 -62.5t-12.5 -82h-41z" />
    <glyph glyph-name="seven.numr" horiz-adv-x="192" 
d="M53 453q0 46 12.5 81t27.5 63t27.5 50.5t12.5 43.5h-113v35h155v-20q0 -30 -12.5 -55.5t-28 -53.5t-28 -62t-12.5 -82h-41z" />
    <glyph glyph-name="six.dnom" horiz-adv-x="231" 
d="M170 216q-4 6 -9 10t-12.5 7.5t-18.5 3.5q-24 0 -42 -22.5t-19 -68.5q5 7 14 13q7 5 18 9t26 4q35 0 58.5 -22t23.5 -64q0 -40 -22.5 -64t-60.5 -24q-44 0 -71 31t-27 98q0 76 27.5 112.5t73.5 36.5q17 0 29 -5t20 -11q9 -7 15 -16zM70 108q2 -41 19 -56t37 -15
q18 0 30 12t12 37t-13 36.5t-30 11.5q-14 0 -24 -4t-16.5 -8.5t-10 -9t-4.5 -4.5z" />
    <glyph glyph-name="six.numr" horiz-adv-x="231" 
d="M170 668q-4 6 -9 10t-12.5 7.5t-18.5 3.5q-24 0 -42 -22.5t-19 -68.5q5 7 14 13q7 5 18 9t26 4q35 0 58.5 -22t23.5 -64q0 -40 -22.5 -64t-60.5 -24q-44 0 -71 31t-27 98q0 76 27.5 112.5t73.5 36.5q17 0 29 -5t20 -11q9 -7 15 -16zM70 560q2 -41 19 -56t37 -15
q18 0 30 12t12 37t-13 36.5t-30 11.5q-14 0 -24 -4t-16.5 -8.5t-10 -9t-4.5 -4.5z" />
    <glyph glyph-name="three.dnom" horiz-adv-x="216" 
d="M87 121v34h20q10 0 20.5 11t10.5 34q0 14 -9 25.5t-27 11.5q-11 0 -17 -4t-11 -9t-8 -12l-36 14q4 14 14 25q8 9 22.5 17t37.5 8q21 0 35.5 -6.5t23.5 -16.5t13.5 -23t4.5 -26q0 -17 -4 -28.5t-9.5 -19t-11.5 -11t-10 -4.5l11 -5.5t14 -11t12.5 -20t5.5 -31.5
q0 -35 -24 -55t-62 -20q-25 0 -40.5 7.5t-24.5 17.5q-11 11 -15 26l25 23q5 -11 12 -20q6 -8 16 -13.5t25 -5.5q21 0 34 11.5t13 31.5q0 25 -13.5 35t-27.5 10h-20z" />
    <glyph glyph-name="three.numr" horiz-adv-x="215" 
d="M86 573v34h20q10 0 21 11t11 34q0 14 -9.5 25.5t-27.5 11.5q-11 0 -17 -4t-11 -9t-8 -12l-35 14q4 14 14 25q8 9 22 17t37 8q21 0 35.5 -6.5t24 -16.5t14 -23t4.5 -26q0 -17 -4 -28.5t-10 -19t-12 -11t-10 -4.5q4 -2 11.5 -5.5t14.5 -11t12 -20t5 -31.5q0 -35 -24 -55
t-62 -20q-25 0 -40.5 7.5t-24.5 17.5q-11 11 -15 26l25 23q5 -11 12 -20q6 -8 16 -13.5t25 -5.5q21 0 34 11.5t13 31.5q0 25 -13.5 35t-27.5 10h-20z" />
    <glyph glyph-name="two.dnom" horiz-adv-x="212" 
d="M30 0v22q0 24 8.5 40.5t20.5 28.5t27 21.5t27 20t20.5 23.5t8.5 33q0 23 -10 35.5t-27 12.5q-13 0 -21 -6t-12 -13.5t-5 -14.5t-1 -8l-39 9q0 5 3.5 17t12 24t24 21.5t39.5 9.5q37 0 57 -23.5t20 -61.5q0 -35 -15.5 -56t-34 -36t-34 -28.5t-15.5 -33.5v-2h99v-35h-153z
" />
    <glyph glyph-name="two.numr" horiz-adv-x="210" 
d="M28 452v22q0 36 18 55.5t40 34t40 31t18 46.5q0 25 -11.5 38.5t-29.5 13.5q-13 0 -21 -6.5t-12 -14.5t-5 -15.5t-1 -9.5l-34 9q0 5 3 17t11.5 24t22.5 21.5t37 9.5q37 0 56.5 -23.5t19.5 -61.5q0 -36 -16 -56t-35.5 -34.5t-36 -28.5t-17.5 -38v-2h106v-32h-153z" />
    <glyph glyph-name="y.aalt" horiz-adv-x="444" 
d="M382 -59q0 -90 -43 -139t-121 -49q-46 0 -77 14.5t-51 31.5q-23 20 -37 47l35 41q11 -23 29 -41q15 -15 38 -27.5t55 -12.5q49 0 81 32.5t32 102.5v157q-16 -43 -49.5 -73.5t-87.5 -30.5q-63 0 -95 41t-32 128v319h62v-312q0 -68 23.5 -95.5t61.5 -27.5q30 0 51.5 16
t35.5 39.5t20.5 48.5t6.5 43v288h62v-541z" />
    <glyph glyph-name="yacute.aalt" horiz-adv-x="444" 
d="M382 -59q0 -90 -43 -139t-121 -49q-46 0 -77 14.5t-51 31.5q-23 20 -37 47l35 41q11 -23 29 -41q15 -15 38 -27.5t55 -12.5q49 0 81 32.5t32 102.5v157q-16 -43 -49.5 -73.5t-87.5 -30.5q-63 0 -95 41t-32 128v319h62v-312q0 -68 23.5 -95.5t61.5 -27.5q30 0 51.5 16
t35.5 39.5t20.5 48.5t6.5 43v288h62v-541zM189 564l71 162h77l-90 -162h-58z" />
    <glyph glyph-name="ycircumflex.aalt" horiz-adv-x="444" 
d="M382 -59q0 -90 -43 -139t-121 -49q-46 0 -77 14.5t-51 31.5q-23 20 -37 47l35 41q11 -23 29 -41q15 -15 38 -27.5t55 -12.5q49 0 81 32.5t32 102.5v157q-16 -43 -49.5 -73.5t-87.5 -30.5q-63 0 -95 41t-32 128v319h62v-312q0 -68 23.5 -95.5t61.5 -27.5q30 0 51.5 16
t35.5 39.5t20.5 48.5t6.5 43v288h62v-541zM112 556l74 162h71l73 -162h-56l-53 112l-52 -112h-57z" />
    <glyph glyph-name="ydieresis.aalt" horiz-adv-x="444" 
d="M382 -59q0 -90 -43 -139t-121 -49q-46 0 -77 14.5t-51 31.5q-23 20 -37 47l35 41q11 -23 29 -41q15 -15 38 -27.5t55 -12.5q49 0 81 32.5t32 102.5v157q-16 -43 -49.5 -73.5t-87.5 -30.5q-63 0 -95 41t-32 128v319h62v-312q0 -68 23.5 -95.5t61.5 -27.5q30 0 51.5 16
t35.5 39.5t20.5 48.5t6.5 43v288h62v-541zM154 592q-16 0 -27.5 12.5t-11.5 30.5q0 17 11.5 30t27.5 13t27.5 -13t11.5 -30q0 -18 -11.5 -30.5t-27.5 -12.5zM301 592q-16 0 -27.5 12.5t-11.5 30.5q0 17 11.5 30t27.5 13q17 0 28 -13t11 -30q0 -18 -11 -30.5t-28 -12.5z" />
    <glyph glyph-name="ygrave.aalt" horiz-adv-x="444" 
d="M382 -59q0 -90 -43 -139t-121 -49q-46 0 -77 14.5t-51 31.5q-23 20 -37 47l35 41q11 -23 29 -41q15 -15 38 -27.5t55 -12.5q49 0 81 32.5t32 102.5v157q-16 -43 -49.5 -73.5t-87.5 -30.5q-63 0 -95 41t-32 128v319h62v-312q0 -68 23.5 -95.5t61.5 -27.5q30 0 51.5 16
t35.5 39.5t20.5 48.5t6.5 43v288h62v-541zM207 564l-91 162h77l70 -162h-56z" />
    <glyph glyph-name="z.aalt" horiz-adv-x="389" 
d="M153 241q8 -2 26.5 -8t41.5 -18.5t48 -32.5t45.5 -50.5t33.5 -73t13 -99.5q0 -50 -13.5 -88.5t-37 -64.5t-54 -39.5t-63.5 -13.5q-32 0 -61.5 13t-52 38.5t-35.5 62.5t-13 85q0 56 14 96.5t33.5 67.5t40.5 42.5t35 22.5q-26 11 -41.5 15t-26.5 4v52l188 179h-237v51h312
v-53zM197 165q-5 -3 -21.5 -14t-35.5 -33.5t-33.5 -60t-14.5 -93.5q0 -75 29 -116.5t76 -41.5q45 0 74 42t29 117q0 40 -9 72t-23.5 56.5t-33 42t-37.5 29.5z" />
    <glyph glyph-name="zacute.aalt" horiz-adv-x="389" 
d="M153 241q8 -2 26.5 -8t41.5 -18.5t48 -32.5t45.5 -50.5t33.5 -73t13 -99.5q0 -50 -13.5 -88.5t-37 -64.5t-54 -39.5t-63.5 -13.5q-32 0 -61.5 13t-52 38.5t-35.5 62.5t-13 85q0 56 14 96.5t33.5 67.5t40.5 42.5t35 22.5q-26 11 -41.5 15t-26.5 4v52l188 179h-237v51h312
v-53zM197 165q-5 -3 -21.5 -14t-35.5 -33.5t-33.5 -60t-14.5 -93.5q0 -75 29 -116.5t76 -41.5q45 0 74 42t29 117q0 40 -9 72t-23.5 56.5t-33 42t-37.5 29.5zM160 564l71 162h77l-90 -162h-58z" />
    <glyph glyph-name="zcaron.aalt" horiz-adv-x="389" 
d="M153 241q8 -2 26.5 -8t41.5 -18.5t48 -32.5t45.5 -50.5t33.5 -73t13 -99.5q0 -50 -13.5 -88.5t-37 -64.5t-54 -39.5t-63.5 -13.5q-32 0 -61.5 13t-52 38.5t-35.5 62.5t-13 85q0 56 14 96.5t33.5 67.5t40.5 42.5t35 22.5q-26 11 -41.5 15t-26.5 4v52l188 179h-237v51h312
v-53zM197 165q-5 -3 -21.5 -14t-35.5 -33.5t-33.5 -60t-14.5 -93.5q0 -75 29 -116.5t76 -41.5q45 0 74 42t29 117q0 40 -9 72t-23.5 56.5t-33 42t-37.5 29.5zM150 721l52 -112l52 112h57l-73 -163h-71l-74 163h57z" />
    <glyph glyph-name="zdotaccent.aalt" horiz-adv-x="389" 
d="M153 241q8 -2 26.5 -8t41.5 -18.5t48 -32.5t45.5 -50.5t33.5 -73t13 -99.5q0 -50 -13.5 -88.5t-37 -64.5t-54 -39.5t-63.5 -13.5q-32 0 -61.5 13t-52 38.5t-35.5 62.5t-13 85q0 56 14 96.5t33.5 67.5t40.5 42.5t35 22.5q-26 11 -41.5 15t-26.5 4v52l188 179h-237v51h312
v-53zM197 165q-5 -3 -21.5 -14t-35.5 -33.5t-33.5 -60t-14.5 -93.5q0 -75 29 -116.5t76 -41.5q45 0 74 42t29 117q0 40 -9 72t-23.5 56.5t-33 42t-37.5 29.5zM200 598q-16 0 -28 12.5t-12 30.5q0 17 12 29.5t28 12.5t27.5 -12.5t11.5 -29.5q0 -18 -11.5 -30.5t-27.5 -12.5z
" />
    <glyph glyph-name="zero.dnom" horiz-adv-x="241" 
d="M120 -2q-43 0 -67.5 34.5t-24.5 104.5t24 104.5t68 34.5q45 0 69 -34.5t24 -104.5t-24.5 -104.5t-68.5 -34.5zM120 35q26 0 38 27t12 75q0 47 -12 73.5t-38 26.5q-27 0 -38.5 -26.5t-11.5 -73.5q0 -48 11.5 -75t38.5 -27z" />
    <glyph glyph-name="zero.numr" horiz-adv-x="240" 
d="M120 450q-44 0 -67.5 34.5t-23.5 104.5t23.5 104.5t67.5 34.5q45 0 69 -34.5t24 -104.5t-24.5 -104.5t-68.5 -34.5zM120 487q26 0 38 27t12 75q0 47 -12 73.5t-38 26.5q-27 0 -38.5 -26.5t-11.5 -73.5q0 -48 11.5 -75t38.5 -27z" />
    </font>
</defs>
</svg>
